<?xml version="1.0" encoding="utf-8"?>
<!-- Generator: Adobe Illustrator 28.0.0, SVG Export Plug-In . SVG Version: 6.00 Build 0)  -->
<svg version="1.1" id="Layer_1" xmlns="http://www.w3.org/2000/svg" xmlns:xlink="http://www.w3.org/1999/xlink" x="0px" y="0px"
	 viewBox="0 0 1179 2556" style="enable-background:new 0 0 1179 2556;" xml:space="preserve">
<style type="text/css">
	.st0{fill:#db852c;}
	.st1{fill:#FFFFFF;}
	.st2{fill:#db852c;}
	.st3{fill:#c68e3a;}
	.st4{fill:none;stroke:#000000;stroke-width:1.5672;stroke-miterlimit:10;}
	.st5{fill:none;stroke:#000000;stroke-width:3.1345;stroke-miterlimit:10;}
</style>
<g>
	<g>
		<g>
			<rect x="0" class="st0" width="131" height="2297.3"/>
		</g>
		<g>
			<rect x="131" class="st1" width="131" height="2297.3"/>
		</g>
		<g>
			<rect x="262" class="st0" width="131" height="2297.3"/>
		</g>
		<g>
			<rect x="393" class="st1" width="131" height="2297.3"/>
		</g>
		<g>
			<rect x="524" class="st0" width="131" height="2297.3"/>
		</g>
		<g>
			<rect x="655" class="st1" width="131" height="2297.3"/>
		</g>
		<g>
			<rect x="786" class="st0" width="131" height="2297.3"/>
		</g>
		<g>
			<rect x="917" class="st1" width="131" height="2297.3"/>
		</g>
		<g>
			<rect x="1048" class="st0" width="131" height="2297.3"/>
		</g>
		<g>
			<rect x="0" class="st2" width="131" height="2297.3"/>
		</g>
		<g>
			<rect x="131" class="st1" width="131" height="2297.3"/>
		</g>
		<g>
			<rect x="262" class="st2" width="131" height="2297.3"/>
		</g>
		<g>
			<rect x="393" class="st1" width="131" height="2297.3"/>
		</g>
		<g>
			<rect x="524" class="st2" width="131" height="2297.3"/>
		</g>
		<g>
			<rect x="655" class="st1" width="131" height="2297.3"/>
		</g>
		<g>
			<rect x="786" class="st2" width="131" height="2297.3"/>
		</g>
		<g>
			<rect x="917" class="st1" width="131" height="2297.3"/>
		</g>
		<g>
			<rect x="1048" class="st2" width="131" height="2297.3"/>
		</g>
	</g>
	<g>
		<g>
			<g>
				<rect x="0" y="2379.7" class="st1" width="235.8" height="176.3"/>
			</g>
			<g>
				<rect x="235.8" y="2379.7" class="st0" width="235.8" height="176.3"/>
			</g>
			<g>
				<rect x="471.6" y="2379.7" class="st1" width="235.8" height="176.3"/>
			</g>
			<g>
				<rect x="707.4" y="2379.7" class="st0" width="235.8" height="176.3"/>
			</g>
			<g>
				<rect x="943.2" y="2379.7" class="st1" width="235.8" height="176.3"/>
			</g>
			<g>
				<rect x="0" y="2379.7" class="st1" width="235.8" height="176.3"/>
			</g>
			<g>
				<rect x="235.8" y="2379.7" class="st0" width="235.8" height="176.3"/>
			</g>
			<g>
				<rect x="471.6" y="2379.7" class="st1" width="235.8" height="176.3"/>
			</g>
			<g>
				<rect x="707.4" y="2379.7" class="st0" width="235.8" height="176.3"/>
			</g>
			<g>
				<rect x="943.2" y="2379.7" class="st1" width="235.8" height="176.3"/>
			</g>
		</g>
		<g>
			<rect x="0" y="2265.7" class="st3" width="1179" height="114"/>
		</g>
		<path class="st4" d="M0,2265.7c392.5-0.2,786.5,0.2,1179,0"/>
		<path class="st5" d="M0,2379.8c392.5-0.2,786.5,0.2,1179,0"/>
	</g>
</g>
</svg>
