<?xml version="1.0" encoding="utf-8"?>
<!-- Generator: Adobe Illustrator 28.0.0, SVG Export Plug-In . SVG Version: 6.00 Build 0)  -->
<svg version="1.1" id="Layer_1" xmlns="http://www.w3.org/2000/svg" xmlns:xlink="http://www.w3.org/1999/xlink" x="0px" y="0px"
	 viewBox="0 0 1920 1080.2" style="enable-background:new 0 0 1920 1080.2;" xml:space="preserve">
<style type="text/css">
	.st0{fill:#2DBD40;}
	.st1{fill:#FFFFFF;}
	.st2{fill:#26A137;}
	.st3{fill:#1ED840;}
	.st4{fill:none;stroke:#000000;stroke-width:2;stroke-miterlimit:10;}
	.st5{fill:none;stroke:#000000;stroke-width:4;stroke-miterlimit:10;}
</style>
<g>
	<g>
		<g>
			<rect x="0" class="st0" width="128" height="1080"/>
		</g>
		<g>
			<rect x="128" class="st1" width="128" height="1080"/>
		</g>
		<g>
			<rect x="256" class="st0" width="128" height="1080"/>
		</g>
		<g>
			<rect x="384" class="st1" width="128" height="1080"/>
		</g>
		<g>
			<rect x="512" class="st0" width="128" height="1080"/>
		</g>
		<g>
			<rect x="640" class="st1" width="128" height="1080"/>
		</g>
		<g>
			<rect x="768" class="st0" width="128" height="1080"/>
		</g>
		<g>
			<rect x="896" class="st1" width="128" height="1080"/>
		</g>
		<g>
			<rect x="1024" class="st0" width="128" height="1080"/>
		</g>
		<g>
			<rect x="1152" class="st1" width="128" height="1080"/>
		</g>
		<g>
			<rect x="1280" class="st0" width="128" height="1080"/>
		</g>
		<g>
			<rect x="1408" class="st1" width="128" height="1080"/>
		</g>
		<g>
			<rect x="1536" class="st0" width="128" height="1080"/>
		</g>
		<g>
			<rect x="1664" class="st1" width="128" height="1080"/>
		</g>
		<g>
			<rect x="1792" class="st0" width="128" height="1080"/>
		</g>
		<g>
			<rect x="0" class="st2" width="128" height="1080"/>
		</g>
		<g>
			<rect x="128" class="st1" width="128" height="1080"/>
		</g>
		<g>
			<rect x="256" class="st2" width="128" height="1080"/>
		</g>
		<g>
			<rect x="384" class="st1" width="128" height="1080"/>
		</g>
		<g>
			<rect x="512" class="st2" width="128" height="1080"/>
		</g>
		<g>
			<rect x="640" class="st1" width="128" height="1080"/>
		</g>
		<g>
			<rect x="768" class="st2" width="128" height="1080"/>
		</g>
		<g>
			<rect x="896" class="st1" width="128" height="1080"/>
		</g>
		<g>
			<rect x="1024" class="st2" width="128" height="1080"/>
		</g>
		<g>
			<rect x="1152" class="st1" width="128" height="1080"/>
		</g>
		<g>
			<rect x="1280" class="st2" width="128" height="1080"/>
		</g>
		<g>
			<rect x="1408" class="st1" width="128" height="1080"/>
		</g>
		<g>
			<rect x="1536" class="st2" width="128" height="1080"/>
		</g>
		<g>
			<rect x="1664" class="st1" width="128" height="1080"/>
		</g>
		<g>
			<rect x="1792" class="st2" width="128" height="1080"/>
		</g>
	</g>
	<g>
		<g>
			<rect x="0" y="1030.3" class="st1" width="213.3" height="50"/>
		</g>
		<g>
			<rect x="213.3" y="1030.3" class="st0" width="213.3" height="50"/>
		</g>
		<g>
			<rect x="426.7" y="1030.3" class="st1" width="213.3" height="50"/>
		</g>
		<g>
			<rect x="640" y="1030.3" class="st0" width="213.3" height="50"/>
		</g>
		<g>
			<rect x="853.3" y="1030.3" class="st1" width="213.3" height="50"/>
		</g>
		<g>
			<rect x="1066.7" y="1030.3" class="st0" width="213.3" height="50"/>
		</g>
		<g>
			<rect x="1280" y="1030.3" class="st1" width="213.3" height="50"/>
		</g>
		<g>
			<rect x="1493.3" y="1030.3" class="st0" width="213.3" height="50"/>
		</g>
		<g>
			<rect x="1706.7" y="1030.3" class="st1" width="213.3" height="50"/>
		</g>
		<g>
			<rect x="0" y="1030.3" class="st1" width="213.3" height="50"/>
		</g>
		<g>
			<rect x="213.3" y="1030.3" class="st0" width="213.3" height="50"/>
		</g>
		<g>
			<rect x="426.7" y="1030.3" class="st1" width="213.3" height="50"/>
		</g>
		<g>
			<rect x="640" y="1030.3" class="st0" width="213.3" height="50"/>
		</g>
		<g>
			<rect x="853.3" y="1030.3" class="st1" width="213.3" height="50"/>
		</g>
		<g>
			<rect x="1066.7" y="1030.3" class="st0" width="213.3" height="50"/>
		</g>
		<g>
			<rect x="1280" y="1030.3" class="st1" width="213.3" height="50"/>
		</g>
		<g>
			<rect x="1493.3" y="1030.3" class="st0" width="213.3" height="50"/>
		</g>
		<g>
			<rect x="1706.7" y="1030.3" class="st1" width="213.3" height="50"/>
		</g>
	</g>
	<g>
		<rect x="0" y="916.3" class="st3" width="1920" height="114"/>
	</g>
	<path class="st4" d="M0,916.3c639.2-0.2,1280.8,0.2,1920,0"/>
	<path class="st5" d="M0,1030.3c639.2-0.2,1280.8,0.2,1920,0"/>
</g>
</svg>
