<?xml version="1.0" encoding="utf-8"?>
<!-- Generator: Adobe Illustrator 28.0.0, SVG Export Plug-In . SVG Version: 6.00 Build 0)  -->
<svg version="1.1" id="Layer_1" xmlns="http://www.w3.org/2000/svg" xmlns:xlink="http://www.w3.org/1999/xlink" x="0px" y="0px"
	 viewBox="0 0 544.2 345.7" style="enable-background:new 0 0 544.2 345.7;" xml:space="preserve">
<style type="text/css">
	.st0{fill:#377f32;}
</style>
<g>
	<path class="st0" d="M390,339.5c-116.4-1.3-222.6,3.8-339,1.5c-3.4-0.1-6.8-0.1-10.2-0.2c-31.7-0.6-34.7-22.3-34.9-28.9
		C4.7,267.1,4.1,133.5,4.1,92.4c-0.2-9,0.1-17.8,0.4-26.3c0.6-16.6-3.7-44.3,13.4-54.4C35.5,1.3,49.6,4.4,69.1,4.4
		c33.9,0,67.7,1.2,101.6,1.2c60.4,0,120.8,0,181.2,0c32,0,63.9,0,95.9,0c3.7,0,7.5,0,11.2-0.1c20.6-0.1,21.1,1,41.6,1.1
		c17.2,0.1,32.2,6.2,37.1,24.1c5.7,20.5-0.3,46-0.6,67c-0.4,24.2,0.5,139.6,0.8,164.2c0.2,17.7,3.7,36.2-1.1,53.6
		c-5.6,20.4-21.4,25.3-41,25.2C453.9,340.6,432,340,390,339.5z"/>
</g>
<g>
	<path d="M106.4,345.7c-21.9,0-33.8-0.2-55.5-0.6c-3.4-0.1-6.8-0.1-10.2-0.2c-28-0.5-38.4-17.3-38.8-32.8
		C0.7,268.2,0.1,136.5,0.1,92.4c-0.2-9,0.1-17.8,0.4-26.4c0.1-3,0-6.3,0-9.8C0.2,39-0.2,17.7,15.9,8.2c15.3-9,34.9-8.5,52.1-8
		c3.9,0.1,35.9,0.5,52.8,0.8c16.3,0.3,33.2,0.6,49.8,0.6l277-0.1c3.7,0,44.1,1,53,1.1c21.9,0.2,36.1,9.5,41,27
		c4.1,14.7,2.5,31.3,1,47.4c-0.7,7.3-1.4,14.3-1.5,20.8c-0.4,23.7,0.5,138,0.8,164.1c0.1,4.9,0.4,10,0.7,15
		c0.8,13.1,1.7,26.6-1.9,39.8c-6.9,25.1-28.3,28.1-44.2,28.1c-0.2,0-0.4,0-0.7,0c-29.8-0.2-40.2-0.5-69.6-0.9
		c-12.1-0.1-24.1-0.3-36.2-0.4c-53.8-0.6-108.5,0.2-161.4,1C188.4,345.1,147.4,345.7,106.4,345.7z M55.7,8C42.8,8,30.2,9.1,20,15.1
		C7.9,22.2,8.2,41,8.5,56c0.1,3.6,0.1,7.1,0,10.2c-0.3,8.5-0.6,17.2-0.4,26.1c0,44.2,0.6,175.8,1.8,219.5c0.2,7.4,3.6,24.5,31,25
		c3.4,0.1,6.8,0.1,10.2,0.2c62.4,1.2,115.9,0.3,177.3-0.6c53-0.8,107.7-1.6,161.7-1l0,0c12.1,0.1,24.1,0.3,36.2,0.4
		c29.4,0.4,39.8,0.7,69.6,0.9c22,0.1,32.7-6.3,37.1-22.3c3.3-11.8,2.4-24.7,1.7-37.1c-0.3-5.1-0.6-10.3-0.7-15.4
		c-0.3-26.2-1.1-140.6-0.8-164.3c0.1-6.8,0.8-13.9,1.5-21.4c1.5-15.3,3-31.2-0.7-44.5c-3.9-13.9-15.1-21-33.3-21.1
		c-8.9-0.1-49.1-1.1-52.9-1.1l-277,0.1c-16.7,0-33.6-0.3-50-0.6c-16.9-0.3-49-0.7-52.9-0.8C63.8,8.1,59.7,8,55.7,8z"/>
</g>
</svg>
