<?xml version="1.0" encoding="utf-8"?>
<!-- Generator: Adobe Illustrator 28.0.0, SVG Export Plug-In . SVG Version: 6.00 Build 0)  -->
<svg version="1.1" id="Layer_1" xmlns="http://www.w3.org/2000/svg" xmlns:xlink="http://www.w3.org/1999/xlink" x="0px" y="0px"
	 viewBox="0 0 1920 102.1" style="enable-background:new 0 0 1920 102.1;" xml:space="preserve">
<style type="text/css">
	.st0{fill:#7F3FD4;}
	.st1{fill:#FFFFFF;}
</style>
<g>
	<g>
		<rect x="0" class="st0" width="1920" height="100"/>
	</g>
	<g>
		<path d="M1514.3,102.1c-186.2,0-372,0-554.3-0.1c-314.8,0-640.4-0.1-960,0l0-4c319.6-0.1,645.2,0,960,0c314.8,0,640.4,0.1,960,0
			l0,4C1785.4,102,1649.8,102.1,1514.3,102.1z"/>
	</g>
	<g>
		<path d="M293.7,54.8L289.2,81l-12.9,1.9l-21.7-58.3l15.5-4.1l8.9,36.2l6.8-36.7l10.3-0.6l11.8,36.8l5.4-43.1l15.9,2.5l-12.5,66.5
			l-13-0.5L293.7,54.8z"/>
		<path d="M379.6,50.9l9.8,10.2c-6.2,9-15,13.4-26.5,13.5c-18.2,0-27.4-8.2-27.6-24.7c0.1-18,8.3-27.1,24.5-27.1
			c12.9,0.2,20.5,5.8,22.8,16.7l-23.4,18.9C368.7,59.3,375.5,56.9,379.6,50.9z M351.5,52.7l16.8-13.1c-5.1-4.4-10.3-4.9-15.5-1.4
			C348.1,42.7,347.7,47.5,351.5,52.7z"/>
		<path d="M438.5,50.9l9.8,10.2c-6.2,9-15,13.4-26.5,13.5c-18.2,0-27.4-8.2-27.6-24.7c0.1-18,8.3-27.1,24.5-27.1
			c12.9,0.2,20.5,5.8,22.8,16.7l-23.4,18.9C427.6,59.3,434.4,56.9,438.5,50.9z M410.4,52.7l16.8-13.1c-5.1-4.4-10.3-4.9-15.5-1.4
			C407,42.7,406.5,47.5,410.4,52.7z"/>
		<path d="M454.1,16.6l16,1.9L467,65.4l27.8-2.8l1.3,19.8l-44.4,1.7L454.1,16.6z"/>
		<path d="M582.4,32.3c5.4,5.2,8.1,11.5,8.1,18.8c0,7.4-2.7,13.7-8.1,18.9c-5.4,5.2-11.9,7.8-19.6,7.8c-7.6,0-14.2-2.6-19.6-7.8
			c-5.4-5.2-8.1-11.5-8.1-18.9c0-7.3,2.7-13.6,8.1-18.8c5.4-5.2,11.9-7.8,19.6-7.8C570.5,24.4,577,27,582.4,32.3z M578.3,49.1
			c-1.7,1.6-3.7,2.4-6,2.4c-2.3,0-4.3-0.8-6-2.3c-1.7-1.6-2.5-3.4-2.5-5.7c0-2.2,0.8-4.1,2.5-5.6c1.7-1.5,3.7-2.3,6-2.3
			c0.5,0,0.9,0,1.3,0.1c-1.8-0.9-3.8-1.4-6-1.4c-3.7,0-6.8,1.3-9.4,3.8c-2.6,2.5-3.9,5.6-3.9,9.1s1.3,6.6,3.9,9.1
			c2.6,2.5,5.7,3.8,9.4,3.8s6.8-1.3,9.4-3.8c2.6-2.5,3.9-5.5,3.9-9.1c0-0.7,0-1.4-0.1-2.1C580.3,46.6,579.5,47.9,578.3,49.1z"/>
		<path d="M599.3,85.2l-1.1-51.4l-4.3-0.2l-1.1-11.1l47.1-5l-0.2,17.8l-26.5-0.6l0.2,11.5l17.8,2l-1.3,10l-17.6,2.4l-0.9,21.5
			L599.3,85.2z"/>
		<path d="M675.1,85.2L674,33.8l-4.3-0.2l-1.1-11.1l47.1-5l-0.2,17.8l-26.5-0.6l0.2,11.5l17.8,2l-1.3,10l-17.6,2.4l-0.9,21.5
			L675.1,85.2z"/>
		<path d="M762.2,32.3c5.4,5.2,8.1,11.5,8.1,18.8c0,7.4-2.7,13.7-8.1,18.9c-5.4,5.2-11.9,7.8-19.6,7.8c-7.6,0-14.2-2.6-19.6-7.8
			c-5.4-5.2-8.1-11.5-8.1-18.9c0-7.3,2.7-13.6,8.1-18.8c5.4-5.2,11.9-7.8,19.6-7.8C750.3,24.4,756.8,27,762.2,32.3z M758.1,49.1
			c-1.7,1.6-3.7,2.4-6,2.4c-2.3,0-4.3-0.8-6-2.3c-1.7-1.6-2.5-3.4-2.5-5.7c0-2.2,0.8-4.1,2.5-5.6c1.7-1.5,3.7-2.3,6-2.3
			c0.5,0,0.9,0,1.3,0.1c-1.8-0.9-3.8-1.4-6-1.4c-3.7,0-6.8,1.3-9.4,3.8c-2.6,2.5-3.9,5.6-3.9,9.1s1.3,6.6,3.9,9.1
			c2.6,2.5,5.7,3.8,9.4,3.8s6.8-1.3,9.4-3.8c2.6-2.5,3.9-5.5,3.9-9.1c0-0.7,0-1.4-0.1-2.1C760.1,46.6,759.4,47.9,758.1,49.1z"/>
		<path d="M803.6,62.5c-1.8,0.5-3.8,1-5.9,1.4L796.2,84l-9.9-0.2l-3-47.3l-7.1,0.5l-0.4-16.6c21.2-1.9,34.5-0.9,39.9,3
			c5.4,3.9,8.1,9.7,8.1,17.6c-0.5,7.6-4.1,13.4-10.8,17.5l13.2,19.4l-15.4,5.8L803.6,62.5z M798.2,49.4c8.3-1.9,12.5-4.9,12.6-8.8
			c-0.2-2.4-1.1-4-2.7-4.8c-1.6-0.8-4.9-1-9.9-0.5L798.2,49.4z"/>
		<path d="M873.9,54.6l9.8,10.2c-3.9,6.5-11.6,9.7-23,9.8c-18.2,0-27.4-8.2-27.6-24.7c0.1-15.4,7.4-24.7,21.9-27.8
			c12.1-0.5,21.2,3.6,27.2,12.3l-12.3,8.7c-4.7-8.3-11.1-9.7-19-4c-6,6.6-5.3,13.1,2.2,19.5C862.1,62.3,869.1,61,873.9,54.6z"/>
		<path d="M903.1,60.2l1.4,21.7l-15.4,1L888,62l-7.4,0.9l-0.7-6.1l7.7-2.3l-1.4-27l14.5-1.7l1.6,24.2l13.1-4l0.6-33.1l14.6-0.8
			l-0.5,73.9L914.8,86l0.5-27.2L903.1,60.2z"/>
		<path d="M939.3,25.3l15.8-1.8v34.1c-0.2,4.5,2.7,6.8,8.6,7c6.1,0.3,9.2-3.7,9.3-11.9l-0.4-32.1l15.8,3.9l-0.4,30.8
			c0,17.3-8.5,25.4-25.4,24.3c-14.9,0-22.6-7.2-23.2-21.5L939.3,25.3z"/>
		<path d="M999.3,80l1.3-51.2l-3.9-0.2v-8.5l16.9,0.7l12.3,33.4l2.6-36.6l13.2-1.5l-4.6,74.6l-13.9-2.6l-11.5-33v26.2L999.3,80z"/>
		<path d="M1092.9,50.9l9.8,10.2c-6.2,9-15,13.4-26.5,13.5c-18.2,0-27.4-8.2-27.6-24.7c0.1-18,8.3-27.1,24.5-27.1
			c12.9,0.2,20.5,5.8,22.8,16.7l-23.4,18.9C1082.1,59.3,1088.9,56.9,1092.9,50.9z M1064.8,52.7l16.8-13.1
			c-5.1-4.4-10.3-4.9-15.5-1.4C1061.5,42.7,1061,47.5,1064.8,52.7z"/>
	</g>
	<g>
		<path class="st1" d="M293.7,48.2l-4.4,26.3l-12.9,1.9L254.7,18l15.5-4.1l8.9,36.2l6.8-36.7l10.3-0.6l11.8,36.8l5.4-43.1L329.2,9
			l-12.5,66.5l-13-0.5L293.7,48.2z"/>
		<path class="st1" d="M379.6,44.4l9.8,10.2c-6.2,9-15,13.4-26.5,13.5c-18.2,0-27.4-8.2-27.6-24.7c0.1-18,8.3-27.1,24.5-27.1
			c12.9,0.2,20.5,5.8,22.8,16.7l-23.4,18.9C368.7,52.8,375.5,50.3,379.6,44.4z M351.5,46.2l16.8-13.1c-5.1-4.4-10.3-4.9-15.5-1.4
			C348.1,36.2,347.7,41,351.5,46.2z"/>
		<path class="st1" d="M438.5,44.4l9.8,10.2c-6.2,9-15,13.4-26.5,13.5c-18.2,0-27.4-8.2-27.6-24.7c0.1-18,8.3-27.1,24.5-27.1
			c12.9,0.2,20.5,5.8,22.8,16.7l-23.4,18.9C427.6,52.8,434.4,50.3,438.5,44.4z M410.4,46.2l16.8-13.1c-5.1-4.4-10.3-4.9-15.5-1.4
			C407,36.2,406.5,41,410.4,46.2z"/>
		<path class="st1" d="M454.1,10.1l16,1.9L467,58.9l27.8-2.8l1.3,19.8l-44.4,1.7L454.1,10.1z"/>
		<path class="st1" d="M582.4,25.7c5.4,5.2,8.1,11.5,8.1,18.8c0,7.4-2.7,13.7-8.1,18.9c-5.4,5.2-11.9,7.8-19.6,7.8
			c-7.6,0-14.2-2.6-19.6-7.8c-5.4-5.2-8.1-11.5-8.1-18.9c0-7.3,2.7-13.6,8.1-18.8c5.4-5.2,11.9-7.8,19.6-7.8
			C570.5,17.9,577,20.5,582.4,25.7z M578.3,42.5c-1.7,1.6-3.7,2.4-6,2.4c-2.3,0-4.3-0.8-6-2.3c-1.7-1.6-2.5-3.4-2.5-5.7
			c0-2.2,0.8-4.1,2.5-5.6c1.7-1.5,3.7-2.3,6-2.3c0.5,0,0.9,0,1.3,0.1c-1.8-0.9-3.8-1.4-6-1.4c-3.7,0-6.8,1.3-9.4,3.8
			c-2.6,2.5-3.9,5.6-3.9,9.1s1.3,6.6,3.9,9.1c2.6,2.5,5.7,3.8,9.4,3.8s6.8-1.3,9.4-3.8c2.6-2.5,3.9-5.5,3.9-9.1c0-0.7,0-1.4-0.1-2.1
			C580.3,40,579.5,41.4,578.3,42.5z"/>
		<path class="st1" d="M599.3,78.6l-1.1-51.4l-4.3-0.2l-1.1-11.1l47.1-5l-0.2,17.8l-26.5-0.6l0.2,11.5l17.8,2l-1.3,10l-17.6,2.4
			l-0.9,21.5L599.3,78.6z"/>
		<path class="st1" d="M675.1,78.6L674,27.2l-4.3-0.2l-1.1-11.1l47.1-5l-0.2,17.8l-26.5-0.6l0.2,11.5l17.8,2l-1.3,10l-17.6,2.4
			l-0.9,21.5L675.1,78.6z"/>
		<path class="st1" d="M762.2,25.7c5.4,5.2,8.1,11.5,8.1,18.8c0,7.4-2.7,13.7-8.1,18.9c-5.4,5.2-11.9,7.8-19.6,7.8
			c-7.6,0-14.2-2.6-19.6-7.8c-5.4-5.2-8.1-11.5-8.1-18.9c0-7.3,2.7-13.6,8.1-18.8c5.4-5.2,11.9-7.8,19.6-7.8
			C750.3,17.9,756.8,20.5,762.2,25.7z M758.1,42.5c-1.7,1.6-3.7,2.4-6,2.4c-2.3,0-4.3-0.8-6-2.3c-1.7-1.6-2.5-3.4-2.5-5.7
			c0-2.2,0.8-4.1,2.5-5.6c1.7-1.5,3.7-2.3,6-2.3c0.5,0,0.9,0,1.3,0.1c-1.8-0.9-3.8-1.4-6-1.4c-3.7,0-6.8,1.3-9.4,3.8
			c-2.6,2.5-3.9,5.6-3.9,9.1s1.3,6.6,3.9,9.1c2.6,2.5,5.7,3.8,9.4,3.8s6.8-1.3,9.4-3.8c2.6-2.5,3.9-5.5,3.9-9.1c0-0.7,0-1.4-0.1-2.1
			C760.1,40,759.4,41.4,758.1,42.5z"/>
		<path class="st1" d="M803.6,55.9c-1.8,0.5-3.8,1-5.9,1.4l-1.5,20.1l-9.9-0.2l-3-47.3l-7.1,0.5l-0.4-16.6c21.2-1.9,34.5-0.9,39.9,3
			c5.4,3.9,8.1,9.7,8.1,17.6c-0.5,7.6-4.1,13.4-10.8,17.5l13.2,19.4l-15.4,5.8L803.6,55.9z M798.2,42.8c8.3-1.9,12.5-4.9,12.6-8.8
			c-0.2-2.4-1.1-4-2.7-4.8c-1.6-0.8-4.9-1-9.9-0.5L798.2,42.8z"/>
		<path class="st1" d="M873.9,48.1l9.8,10.2c-3.9,6.5-11.6,9.7-23,9.8c-18.2,0-27.4-8.2-27.6-24.7c0.1-15.4,7.4-24.7,21.9-27.8
			c12.1-0.5,21.2,3.6,27.2,12.3l-12.3,8.7c-4.7-8.3-11.1-9.7-19-4c-6,6.6-5.3,13.1,2.2,19.5C862.1,55.8,869.1,54.4,873.9,48.1z"/>
		<path class="st1" d="M903.1,53.7l1.4,21.7l-15.4,1l-1.1-21l-7.4,0.9l-0.7-6.1l7.7-2.3l-1.4-27l14.5-1.7l1.6,24.2l13.1-4l0.6-33.1
			l14.6-0.8l-0.5,73.9l-15.5,0.1l0.5-27.2L903.1,53.7z"/>
		<path class="st1" d="M939.3,18.8l15.8-1.8v34.1c-0.2,4.5,2.7,6.8,8.6,7c6.1,0.3,9.2-3.7,9.3-11.9L972.7,14l15.8,3.9l-0.4,30.8
			c0,17.3-8.5,25.4-25.4,24.3c-14.9,0-22.6-7.2-23.2-21.5L939.3,18.8z"/>
		<path class="st1" d="M999.3,73.4l1.3-51.2l-3.9-0.2v-8.5l16.9,0.7l12.3,33.4l2.6-36.6l13.2-1.5l-4.6,74.6l-13.9-2.6l-11.5-33v26.2
			L999.3,73.4z"/>
		<path class="st1" d="M1092.9,44.4l9.8,10.2c-6.2,9-15,13.4-26.5,13.5c-18.2,0-27.4-8.2-27.6-24.7c0.1-18,8.3-27.1,24.5-27.1
			c12.9,0.2,20.5,5.8,22.8,16.7l-23.4,18.9C1082.1,52.8,1088.9,50.3,1092.9,44.4z M1064.8,46.2l16.8-13.1
			c-5.1-4.4-10.3-4.9-15.5-1.4C1061.5,36.2,1061,41,1064.8,46.2z"/>
	</g>
	<g>
		<rect x="1484.5" y="20.9" class="st1" width="202.7" height="58.1"/>
		<path d="M1689.2,81.1h-206.7V18.9h206.7V81.1z M1486.5,77.1h198.7V22.9h-198.7V77.1z"/>
	</g>
	<g>
		<path d="M1533,50.5l-1.8,10.4l-5.1,0.7l-8.6-23.1l6.1-1.6l3.5,14.3l2.7-14.5l4.1-0.2l4.7,14.6l2.1-17l6.3,1l-5,26.3l-5.2-0.2
			L1533,50.5z"/>
		<path d="M1554.2,58.3l-1,2.6l-3.8-0.6l0.5-2.2l-2.5-0.2l-0.5-2.4l3.9-1l4.3-17.7l5.1-0.5l7.3,23.5l-6.2,1.3l-0.5-2.5L1554.2,58.3z
			 M1559.7,52.3l-1.1-5.6l-2.4,6.5L1559.7,52.3z"/>
		<path d="M1570.1,35.4l6.4,0.8l-1.3,18.5l11-1.1l0.5,7.8l-17.6,0.7L1570.1,35.4z"/>
		<path d="M1590.3,35.4l6.4,0.8l-1.3,18.5l11-1.1l0.5,7.8l-17.6,0.7L1590.3,35.4z"/>
		<path d="M1627.5,49l3.9,4c-2.5,3.5-6,5.3-10.5,5.3c-7.2,0-10.8-3.3-10.9-9.8c0.1-7.1,3.3-10.7,9.7-10.7c5.1,0.1,8.1,2.3,9,6.6
			l-9.3,7.5C1623.2,52.3,1625.9,51.3,1627.5,49z M1616.4,49.7l6.7-5.2c-2-1.8-4.1-1.9-6.1-0.5C1615,45.7,1614.9,47.7,1616.4,49.7z"
			/>
		<path d="M1632.1,42.6v-6.1l22-1.5l-0.2,6.6l-8.5,0.7l1.5,18.5l-7.7,1l0.4-19.5L1632.1,42.6z"/>
	</g>
</g>
</svg>
