<?xml version="1.0" encoding="utf-8"?>
<!-- Generator: Adobe Illustrator 28.0.0, SVG Export Plug-In . SVG Version: 6.00 Build 0)  -->
<svg version="1.1" id="Layer_1" xmlns="http://www.w3.org/2000/svg" xmlns:xlink="http://www.w3.org/1999/xlink" x="0px" y="0px"
	 viewBox="0 0 191.4 132.3" style="enable-background:new 0 0 191.4 132.3;" xml:space="preserve">
<style type="text/css">
	.st0{fill:#734d26;}
	.st1{fill:#0E1117;}
	.st2{fill:#192226;}
	.st3{fill:#273138;}
	.st4{fill:#FFFFFF;}
</style>
<g>
	<g>
		<path class="st0" d="M191.3,101.5c2.4,6.4-43.2,18.3-80.7,27.7C55.4,135.8,14,130.1,4,128c0-9.6,16.9-26,72-32.6
			S188.9,95.1,191.3,101.5z"/>
	</g>
	<g>
		<g id="XMLID_00000142175213471442518230000010943265064928627344_">
			<g>
				<path class="st1" d="M125.6,4c0.1,1.1,0.2,2.1,0.2,3.1s0.1,2,0.1,3c-0.3,3-0.5,6.1-0.6,9.2c0,1-0.1,2.1-0.1,3.1
					c0,1.7-0.1,3.5-0.1,5.2c0,0.9,0,1.7,0,2.5c-0.1,8.4-0.1,15.5-0.1,23.4c0,0.9,0,1.7,0,2.5c0,3.4,0.1,6.7,0.1,10
					c0,1,0.1,1.9,0.1,2.9c-0.2,4.2-0.2,8.3,0.4,12.3c0,1,0.1,2.1,0.1,3.1c0.3,8.3,1,16.7,2.3,25c-3.7,2.1-7.7,8.1-11.7,10.3
					c-2.9,1.6-5.5,1.8-8.3,3.3c-0.8-8.7-1.7-19.5-2-28c0-1.2-0.1-2.4-0.1-3.7c-0.8-11-2.2-21.2-0.1-32.2c0-1.2,0.1-2.3,0.1-3.5
					c0.6-9.1,0.6-17.2,1.2-26.9c0.1-1.1,0.2-2.2,0.2-3.2c0.2-3.2,0.4-6.4,0.6-9.5c3.6-2.5,7.1-4.9,10.6-7.3
					C120.9,7.3,123.3,5.6,125.6,4z"/>
				<path class="st2" d="M109.4,15.5c-1.2,23.6-1.9,51.3-2.7,74.9c-0.1,2.6,2.7,34.1,2.7,34c-33.3,3.9-70.6,4.4-103.6,1
					c-0.3-3.4-0.6-5.7-0.8-9.1c-0.3-3.4-0.8-7-1-10.5C3.6,88.9,1.8,74.3,2.8,57.2c0-3.5-0.1-11.4,0-14.9C3,35.4,3.4,26.7,3.7,19.8
					c0.1-2.3,39.2-1,42-0.9C62.2,19,79.1,11,95.6,11.3C96.8,11.2,109.4,15.8,109.4,15.5z"/>
				<path d="M130.3,110.4c0.1,0.7-0.2,1.3-0.7,1.8c-2.9,2.4-6,4.8-9.1,7.2c-3.1,2.3-6.2,4.8-9,7.1l0,0l0,0c-0.1,0.1-0.2,0.1-0.3,0.2
					c0,0,0,0-0.1,0s-0.2,0.1-0.3,0.1h-0.1c-0.1,0-0.2,0-0.3,0.1l0,0c-18.6,2.3-37.8,3.4-56.8,3.4c-16.5,0-32.8-0.9-48.8-2.6
					c-1-0.1-1.7-0.9-1.8-1.8c-0.3-3.6-0.6-7.1-0.9-10.7C1,90.3,0,64.3,0.3,39.5c0.1-3.6,0.2-7.2,0.4-10.8C0.8,25.2,1,21.6,1.2,18
					v-0.1c0-0.1,0-0.1,0-0.2s0-0.1,0.1-0.2c0-0.1,0-0.1,0.1-0.2c0-0.1,0.1-0.1,0.1-0.2s0-0.1,0.1-0.1c0-0.1,0.1-0.1,0.1-0.2
					s0.1-0.1,0.1-0.1s0.1-0.1,0.2-0.1l0.1-0.1c0.1,0,0.2-0.1,0.2-0.1h0.1l0,0C14,11.4,22.3,7,32.2,0.7c0.3-0.2,0.7-0.3,1.1-0.3
					c5.3,0,11.5,0,17.9-0.1c4-0.1,8-0.2,11.9-0.3C75,0.3,88,0.3,100.2,0.1c4.3,0,8.6,0,12.4,0c7.7,0,13.4,0.1,13.4,0.1s0,0,0.1,0
					c0.2,0,0.3,0,0.5,0.1h0.1c0.1,0.1,0.3,0.1,0.4,0.2l0.1,0.1c0.1,0.1,0.3,0.2,0.4,0.3c0,0,0,0,0.1,0.1s0.2,0.3,0.2,0.4
					c0,0,0,0,0,0.1l0,0C128,1.6,128,1.8,128,2c0,0,0,0,0,0.1c0.1,1.1,0.2,2.1,0.3,3.1s0.1,2,0.2,2.9c-0.2,3.9-0.3,7.8-0.4,11.7
					c0,1,0,1.9,0,2.9c0,3.7-0.1,7.6-0.1,11.5c0,1,0,2,0,3c0,4.1,0,8.1,0,12.3c0,1,0,2,0,2.9c0,8.8,0,17.8,0.4,26.4
					c0,1,0,2.1,0.1,3.1C128.6,91.4,129.1,101,130.3,110.4z M124.1,24c-0.2-0.6-0.3-1.3-0.3-1.9s0-1.3,0.1-1.9c0.2-2.6,1-5.2,0.8-7.7
					c0-1,0-1.9-0.1-2.9c0-1-0.1-2-0.2-3c-1.7,1.6-3.3,3.2-4.9,4.7c-2.4,2.4-4.9,4.7-7.4,7.1c-0.2,3.1-0.3,6.2-0.4,9.3
					c0,1-0.1,2.1-0.2,3.2c-1.5,9.4,0.5,17.4-0.8,26.3c0,1.1,0,2.3-0.1,3.4c0.4,10.7,0.4,20.7,0,31.5c0,1.2,0.1,2.4,0.1,3.6
					c0.2,8.3,0.6,16.8,1.1,25.3c2-1.6,4.1-3.2,6.1-4.7c2.8-2.1,5.6-4.3,8.2-6.4c-1-8.1-1.4-16.3-1.6-24.5c0-1,0-2-0.1-3.1
					c-1.5-3.9-0.5-7.9-0.3-11.6c0-0.9-0.1-1.7-0.1-2.6c-0.1-3.1-0.1-6.2-0.1-9.4c0-0.8,0-1.6,0-2.4c0-7.9,0-16.9,0-25.2
					c0-0.8,0-1.6,0-2.4s0-1.6,0-2.4C124,25.5,124.1,24.8,124.1,24z M121.1,4.2c0,0-11.7-0.1-23.5-0.1c-3.9,0-7.8,0-11.3,0
					c-5.2,0.2-9.9,0.2-14.6,0.2c-0.9,0-1.9,0-2.8,0c-4.9,0-8.9,0-13.7-0.2c-0.7,0-1.3,0-2,0s-1.3,0-2,0c-6.1,0-12.1,0.1-17.3,0.1
					C26.6,8.8,20.2,12.4,12.7,16c9.4-0.1,18.9-0.2,28.3-0.2c1,0,2.1,0,3.1,0c4.3-1,8.5-1.1,12.7-0.9c1.1,0,2.1,0.1,3.2,0.2
					c11,1.2,21,0.2,31.7,0.6c1,0,2,0,3,0c5,0,9.9-0.1,14.8-0.2c2.5-2.4,5-4.8,7.4-7.1C118.2,7,119.6,5.6,121.1,4.2z M108,123.1
					c-0.7-9.8-1.1-19.5-1.3-29.1c0-1.2-0.1-2.4-0.1-3.6c0.4-9.1-1.6-19.1,0-28.2c0-1.1,0-2.3,0.1-3.4c0-1.1,0-2.3,0.1-3.4
					c0.3-8,0.3-15,0.7-23.2c0.1-1.1,0.1-2.1,0.1-3.2c0.1-3.2,0.3-6.3,0.4-9.4c-4.2,0-8.5,0.1-12.8,0.1c-1.1,0-2.1,0-3.2,0
					c-10-0.4-21,0.6-30.5-0.3c-1,0-1.9-0.1-2.9-0.1c-4.8-0.1-9.7-0.1-14.8,0.5c-1.1,0-2.2,0-3.2,0c-11.9,0-23.8,0.1-35.5,0.3
					C4.6,27,4.4,33.9,4.2,40.8c-0.1,3.5-0.1,7-0.2,10.4c-1,17.1,1,35.1,1.3,52c0.2,3.5,0.4,6.9,0.7,10.4c0.3,3.4,0.5,6.9,0.8,10.3
					C39.8,127.3,74.7,127,108,123.1z"/>
				<path class="st3" d="M74.2,4c0,0,5.2,0,12.2,0.1c3.5,0,7.4,0,11.3,0c11.7,0.1,23.4,0.1,23.4,0.1c-1.5,1.4-2.9,2.8-4.3,4.2
					c-2.4,2.4-4.9,4.7-7.4,7.1c-4.9,0.1-9.8,0.1-14.8,0.1c-1,0-2,0-3,0C81,15.3,71,16.3,60.1,15.4c-1.1,0-2.1-0.1-3.2-0.1
					c-4.2-0.1-8.4-0.1-12.7,0.5c-1,0-2.1,0-3.1,0c-9.4,0-18.9,0.1-28.4,0.2c7.5-3.6,13.9-7.2,21.2-11.8c5.2,0,11.2-0.1,17.3-0.1
					c0.7,0,1.3,0,2,0s1.3,0,2,0C60,4.3,64,4.3,68.8,4c0.9,0,1.8,0,2.7,0S73.3,4,74.2,4z"/>
			</g>
		</g>
	</g>
</g>
<g>
	<g>
		<path class="st4" d="M54,90.2c-0.4-0.1-0.6-0.3-0.9-0.7c-1.6-2.6-3-4.9-4.3-7.4c-0.8-1.5-2.2-3.4-4-1.5c-1.1,0.9-2.6,2.4-4,1
			c-2-2.4-2.8-7-6.3-4.1c-1.6,1.4-3.3,1.1-2-1.3c4.5-9.1,1.4-19.9,5-29.6c1.1-2.6,3.7,1.9,3.4,3.4c-0.6,3.4-0.7,5.9,2.9,7.6
			c1.3,0.6,3.1,0.7,3.4,2c0.4,2.5-3,3.3-4.6,4.5c-0.6,0.4-0.8,0.7-0.7,1c0.1,0.2,0.2,0.6,0.6,0.8c3.8,2,6.4,4.8,7.8,8.2
			c1.5,3.4,2.4,7.3,3.6,11c0.3,0.8,0,1.1,0.4,0.3c3-7.3,4.1-15.7,11.6-19.1c0.5-0.3,0.9-0.2,1.1-0.9c0-1.1-2.1-1.4-3-2.1
			c-1.1-0.6-2.2-2-2-3.3c0.3-1.8,2.5-1.7,3.8-2.5c1.9-1.1,3.2-2.8,2.9-5c-0.2-1.4-0.4-3.1,0.3-4.4c2.9-5.2,4.6,2.2,4.6,4.8
			c0.1,8.4,0.2,16.7,3.1,24.7c0.6,2.2-1.3,1.9-2.4,1.1c-3.5-2.8-4.3,0.4-6.1,2.8c-2.3,3.2-4.2-2.4-6.2-2c-1.1,0.3-2,1.8-2.6,2.8
			c-1.4,2.4-2.9,4.5-4.5,7c-0.3,0.4-0.1,1-0.6,1C54,90.3,54.1,90.2,54,90.2z"/>
	</g>
	<g>
		<path class="st4" d="M71.9,40.9c-9.3,14.7-22.6,15.7-33.2,0.8c-1.4-2,0-1,1.8-1.2c1.6-0.3,2.8-1.4,4.2-2.2
			c6.7-4,15.1-3.8,21.5,0.8c1.3,0.9,2.5,2.1,4.2,1.8c0.7-0.1,1.5-0.4,1.6-0.3C72,40.7,72,40.8,71.9,40.9z"/>
	</g>
	<g>
		<path class="st4" d="M54.3,76.2c-1.6-3.5-2.5-7.5-5.5-9.9c-0.4-0.4-1.5-1-1-1.7c0.3-0.4,1.2-0.6,1.6-1.1c1.1-1.4,0.3-3.5,0.8-5.1
			c0.7-1.9,2.4-4.1,4.6-4c1.8,0,3,1.7,3.7,3.2c0.9,2.4,0,5.3,2.6,7c0.4,0.5-0.2,1-0.6,1.4c-3.4,2.3-4,6.8-6,10.3
			C54.3,76.5,54.3,76.3,54.3,76.2z"/>
	</g>
	<g>
		<path class="st4" d="M49.3,55.6c-1.2,0.4-2.8,0.5-4-0.1c-1.6-0.6-2.8-2.6-1.3-3.8c0.9-0.6,1.6,1,2.3,1.3
			C47.4,53.5,48.9,54.1,49.3,55.6L49.3,55.6z"/>
	</g>
	<g>
		<path class="st4" d="M65.7,51.8c0,4.2-1.9,5.1-6.1,3.5C61.4,54.1,63.7,52.9,65.7,51.8C65.7,51.7,65.7,51.7,65.7,51.8z"/>
	</g>
</g>
<g>
	<g>
		<path class="st4" d="M13.5,96.6c3.2-0.1,6.9-0.1,6.7,4.4c-0.1,4.5-3.3,4.5-6.8,4.2c-0.3,0-0.1-0.2-0.1-0.8
			C13.4,102.2,13.4,98.5,13.5,96.6C13.5,96.5,13.5,96.6,13.5,96.6z M15.7,103.8c1.7,0.1,2.7-1.3,2.5-3.4c0-1.6-1.4-2.5-2.8-2.3
			c-0.1,0-0.1,0.2-0.1,0.4c0,1.3,0,3.1-0.1,4.3C15.3,103.6,15.1,103.8,15.7,103.8L15.7,103.8z"/>
	</g>
	<g>
		<path class="st4" d="M22.1,96.7c0.7,0,4.3,0,5.3,0.1c0.1,0,0.2,0.1,0.2,0.3c0,0.3,0,0.9-0.1,1.2c-0.1,0.3-0.5,0.1-1.1,0.1
			s-1.3,0.1-1.7,0c-0.8-0.1-0.7,0.4-0.7,1c0,0.3,0,0.6,0,0.7c0.3,0.2,1,0,1.4,0.1c0.7,0.1,1.7-0.2,1.7,0.6c0,0.8,0.1,1.3-1,1.2
			c-0.4,0-1,0-1.4-0.1c-0.6,0-0.7,0-0.7,0.6c-0.1,1.7-0.2,1.4,1.8,1.4c1.2,0.1,2-0.3,1.9,0.8c0,0.4-0.1,0.7-0.2,0.8
			c-0.1,0.1-0.5,0-1.2,0c-1.3-0.1-3,0-4.2-0.1C21.9,104.4,21.9,97.5,22.1,96.7C22,96.7,22.1,96.7,22.1,96.7z"/>
	</g>
	<g>
		<path class="st4" d="M30.8,101.1c-0.4-0.9-2-3.7-2.2-4.1c0-0.2,0.2-0.2,0.4-0.2c0.3,0,0.9,0,1.2,0c0.9,0,0.9,1.1,1.3,1.7
			c0.2,0.2,0.6,1.5,1,1c0.4-0.7,0.6-1.5,1-2.3c0.3-0.5,0.8-0.3,1.4-0.3c1,0,1,0,0.5,0.8c-0.5,1-1.6,2.5-2,3.5c0.2,0.7,1,1.8,1.4,2.6
			c1,2,1.8,2-0.9,1.8c-0.4,0-0.5-0.3-0.8-0.8c-0.3-0.6-0.4-1-0.6-1.5c-0.2-0.4-0.4-0.7-0.5-0.6c-0.6,0.6-1,2.2-1.6,2.7
			c-0.3,0.1-0.6,0.1-1,0.1c-0.3,0-0.8,0-1-0.1C28.6,104.7,30.6,101.8,30.8,101.1C30.9,101.1,30.8,101.1,30.8,101.1z"/>
	</g>
	<g>
		<path class="st4" d="M39.4,104.7c0.3-1,1.1-0.2,1.7,0c0.4,0.2,0.8,0.2,1.2,0.2c1.5,0.2,2.7-1.1,1.5-2.3c-0.6-0.5-1.5-0.7-2.2-1.1
			c-4.4-2.1-0.3-6.4,3.1-4.1c0.6,0.3,0.3,1.1-0.3,1c-0.4,0-0.8-0.4-1.3-0.4c-1.9-0.5-3.3,1.5-1.2,2.5c1.1,0.6,2.8,0.8,3.4,2.1
			c0.5,1.1,0,2.5-1.1,3.1C42.8,106.5,40.3,106.1,39.4,104.7C39.3,104.7,39.3,104.7,39.4,104.7z"/>
	</g>
	<g>
		<path class="st4" d="M46.5,101.4c-0.1-3.4,3.5-5.8,6.3-3.8c0.5,0.3,0.2,0.9-0.3,1c-0.4,0-0.7-0.3-1.1-0.4
			c-5.5-1.5-4.6,9.5,0.7,6.4c0.3-0.3,0.8-0.3,0.8,0.2c0,0.6-0.7,0.9-1.2,1.1C48.9,106.9,46.3,104.6,46.5,101.4
			C46.5,101.5,46.5,101.5,46.5,101.4z"/>
	</g>
	<g>
		<path class="st4" d="M55,97.2c1.3,0.1,3.3-0.2,4.5,0.4c1.7,0.7,1.5,3.6,0.1,4.3c-1,0.7-2.6,0.3-3.6,0.5c-0.1,0.8,0.1,3.1,0,3.6
			c0,0.2-0.4,0.1-0.6,0.1c-0.8,0-0.6,0.1-0.6-0.9C54.9,103.1,54.8,99.1,55,97.2L55,97.2z M57.6,101.4c0.4,0,1.1-0.1,1.5-0.4
			c1.1-1,0.6-2.9-1.2-2.9c-0.4,0-1.2-0.1-1.7-0.1c-0.2,0-0.1,0.1-0.1,0.2c0,0.8-0.1,2.2-0.1,3c0,0.1,0,0.1,0.1,0.2
			C56.4,101.5,57.1,101.4,57.6,101.4C57.5,101.4,57.5,101.4,57.6,101.4z M57.4,102c0,0,0.6-0.4,0.8-0.5c0.1-0.1,0.1,0,0.1,0.2
			c0.3,0.6,0.6,1.2,1,1.9c0.6,1.1,1.4,2.1,1.6,2.5c0.1,0.1,0,0.2-0.1,0.2s-0.8,0-1,0c-0.3,0-0.2,0-0.4-0.2
			C58.9,105,57.8,103,57.4,102C57.3,102.1,57.4,102,57.4,102z"/>
	</g>
	<g>
		<path class="st4" d="M62.7,97.4c0.6,0,4-0.1,4.8,0c0.1,0,0.2,0.1,0.2,0.1c0.1,0.2,0.1,0.8-0.3,0.8c-0.6,0-2.8,0-3.4,0
			c-0.5,0-0.3,0.5-0.3,1s-0.1,1.5,0.1,1.7c0.6,0.3,2.1,0.2,2.8,0.2c0.6,0,0.6,1,0,0.9c-3.6,0-2.8-0.8-2.9,2.8c0,0.6,0.9,0.2,1.7,0.3
			c0.7,0,1.4,0,1.8,0.1c0.4,0,0.4,0.2,0.4,0.5c0,0.5-0.2,0.6-0.7,0.5c-0.6,0-1.4-0.1-2.1-0.1c-0.9,0-1.6,0-2.3,0l-0.1-0.1
			c0-0.7,0.1-8,0.2-8.8C62.6,97.4,62.7,97.4,62.7,97.4z"/>
	</g>
	<g>
		<path class="st4" d="M69.8,97.6c0.6,0,4,0,4.8,0c0.1,0,0.1,0,0.2,0.1c0.1,0.2,0.1,0.8-0.2,0.8c-0.6,0-2.8-0.1-3.4-0.1
			c-0.5,0-0.3,0.6-0.4,1c0,0.5,0,1.6,0.1,1.7c0.6,0.3,2.1,0.2,2.8,0.2c0.6,0,0.6,0.9,0,0.8c-3.6,0-2.9-0.7-3,2.9
			c0,0.6,0.9,0.2,1.8,0.3c0.7,0,1.4,0.1,1.8,0.1s0.4,0.2,0.4,0.5c0,0.5-0.2,0.4-0.7,0.4c-0.6,0-1.4,0-2.1,0c-0.9,0-1.6,0-2.3-0.1
			l-0.1-0.1C69.6,105.5,69.7,98.2,69.8,97.6C69.8,97.5,69.8,97.6,69.8,97.6z"/>
	</g>
	<g>
		<path class="st4" d="M77,97.6c0.3,0,0.8,0,1,0.2c0.1,0.2,0.3,0.6,0.6,1.1c0.8,1.4,2.1,3.7,2.6,4.8c0.2,0.3,0.6,1.1,0.7,1.2
			s0.1,0.1,0.1,0c0-2.1-0.1-5,0-6.9c0-0.4,1.2-0.4,1.2,0c0,1.2-0.2,7.6-0.3,8.5c0,0.1,0,0.2-0.1,0.2c-0.5,0-1,0-1.2-0.5
			c-0.4-0.8-0.9-1.6-1.4-2.5c-0.7-1.3-1.2-2-1.8-3.2c-0.2-0.3-0.4-0.8-0.6-1c-0.1,0.1,0,0.4,0,0.6c0.1,1.7,0.1,2.9,0,4.7
			c0,0.5-0.1,1.2-0.2,1.6c0,0.1,0,0.2-0.1,0.2c-0.3,0.1-0.8,0.1-1-0.1c0-0.8,0.1-5.4,0.1-7.1C76.8,98.4,76.7,97.8,77,97.6
			C77,97.7,77,97.6,77,97.6z"/>
	</g>
	<g>
		<path class="st4" d="M85.7,97.9c0.6,0,4-0.1,4.8-0.1c0.1,0,0.2,0.1,0.2,0.1c0.1,0.2,0.1,0.9-0.3,0.9c-0.6,0-2.8,0-3.4,0
			c-0.5,0-0.3,0.5-0.4,0.9c0,0.5-0.1,1.6,0.1,1.8c0.6,0.3,2.1,0.1,2.8,0.2c0.6,0,0.6,1,0,0.9c-3.6,0-2.7-0.8-2.9,2.8
			c0,0.6,0.8,0.3,1.7,0.5c0.7,0,1.4,0.1,1.9,0.1c0.4,0,0.5,0.1,0.5,0.4c0,0.5-0.3,0.5-0.8,0.5c-0.6,0-1.4,0-2.1,0
			c-0.9,0-1.6,0-2.3-0.1v-0.1C85.6,105.8,85.5,98.5,85.7,97.9C85.6,97.8,85.7,97.9,85.7,97.9z"/>
	</g>
	<g>
		<path class="st4" d="M92.8,98c1.3,0.1,3.3-0.2,4.6,0.4c1.7,0.7,1.6,3.7,0.1,4.4c-1,0.7-2.6,0.2-3.7,0.4c-0.1,0.8-0.1,3.1-0.1,3.5
			c0,0.2-0.2,0.2-0.4,0.3c-0.8,0-0.6,0-0.6-1C92.7,103.8,92.6,99.8,92.8,98C92.7,97.9,92.8,98,92.8,98z M95.4,102.2
			c0.4,0,1.1-0.1,1.5-0.4c1.1-1,0.6-2.8-1.2-2.8c-0.4,0-1.3-0.1-1.7-0.1c-0.2,0-0.2,0-0.2,0.2c0,0.8,0.1,2.2,0.1,3
			c0,0.1-0.1,0.2,0,0.2C94.2,102.2,94.9,102.1,95.4,102.2C95.3,102.1,95.3,102.2,95.4,102.2z M95.2,102.8c0,0,0.6-0.4,0.8-0.5
			c0.1-0.1,0.2,0,0.2,0.1c0.3,0.6,0.6,1.2,1,1.9c0.6,1.1,1.2,2.2,1.4,2.6c0.1,0.1,0.2,0.2,0.1,0.2s-0.8-0.2-1-0.2
			c-0.3,0-0.2,0.1-0.4-0.2C96.7,105.7,95.7,103.7,95.2,102.8C95.3,102.8,95.2,102.8,95.2,102.8z"/>
	</g>
</g>
</svg>
