<?xml version="1.0" encoding="utf-8"?>
<!-- Generator: Adobe Illustrator 28.0.0, SVG Export Plug-In . SVG Version: 6.00 Build 0)  -->
<svg version="1.1" id="Layer_1" xmlns="http://www.w3.org/2000/svg" xmlns:xlink="http://www.w3.org/1999/xlink" x="0px" y="0px"
	 viewBox="0 0 191.4 132.3" style="enable-background:new 0 0 191.4 132.3;" xml:space="preserve">
<style type="text/css">
	.st0{fill:#267337;}
	.st1{fill:#248E67;}
	.st2{fill:#53D490;}
	.st3{fill:#83DEAC;}
	.st4{fill:#FFFFFF;}
</style>
<g>
	<g>
		<g>
			<path class="st0" d="M191.3,102c-7.2,17.2-64.7,22.8-80.5,26.6c-35.5,3.5-72.7,6-108.2,0.2c4.9-26,54.5-31.1,73.4-33.8
				c25.7-2.7,51.3-3.7,77.1-1.6C164.6,94.4,181.8,94.4,191.3,102z"/>
		</g>
		<g>
			<g id="XMLID_00000002352819246838209500000016928459312155504813_">
				<g>
					<path class="st1" d="M126.1,4.1c0.1,1.1,0.1,2.1,0.2,3.1c0,1,0.1,2.1,0,3c-0.2,2.9-0.6,6.1-0.8,9.1c-0.1,1-0.1,2.1-0.1,3.1
						c0,1.7-0.1,3.4-0.2,5.1c0,0.8,0,1.7-0.1,2.5c-0.2,8.3-0.3,15.5-0.3,23.3c0,0.8,0,1.7,0,2.5c0,3.4,0,6.7,0.1,10
						c0,1,0.1,1.9,0.1,2.9c0,4,0,8.5,0.4,12.3c0.1,1,0.1,2.1,0.1,3.1c0.4,8.3,1.1,16.6,2.6,24.9c-3.7,2.1-7.7,8-11.6,10.1
						c-2.8,1.5-5.5,1.7-8.4,3.2c-0.9-8.6-1.9-19.4-2.2-27.8c0-1.2,0-2.5-0.1-3.6c-0.7-9.8-1.1-22.5-0.1-32c0.1-1,0-2.3,0.1-3.5
						c0.4-8.8,0.6-17.2,1.3-26.7c0.1-1.1,0.2-2.2,0.2-3.2c0.2-3.2,0.4-6.3,0.7-9.4c3.6-2.4,7.3-4.9,10.8-7.3
						C121.2,7.4,123.7,5.8,126.1,4.1z"/>
					<path class="st2" d="M109.5,15.7c-1.3,24.8-3.1,50.6-2.9,74.4c0.1,10.8,1.7,22.6,2.9,33.8c-35,3.4-69.8,4.4-104.9,2.3
						c-0.1-3.5-0.2-5.8-0.3-9.3c-0.1-3.5-0.5-7.1-0.5-10.6C3.7,89.9,3.3,73.2,3.5,56.9c0-3.5-0.3-11.6-0.3-15.1
						c0-7.1-1.5-21.1,0-22.9c3.2-4,29.3,0.1,42.2-0.2c16-0.4,34-6.7,50.2-7.2C96.7,11.4,109.5,16,109.5,15.7z"/>
					<path d="M130.4,110.1c0.1,0.7-0.2,1.3-0.7,1.8c-2.6,2.4-6,4.8-9,7.1c-3,2.3-6.2,4.7-9,7l0,0l0,0c-0.1,0.1-0.2,0.1-0.3,0.2
						c0,0,0,0-0.1,0c-0.1,0-0.2,0.1-0.3,0.1c0,0-0.1,0-0.1,0c-0.1,0-0.2,0-0.3,0.1l0,0c-19.2,2-38.6,3.4-57.7,3.7
						c-16.4,0.2-33-0.4-49.4-1.5c-1-0.1-1.7-0.9-1.7-1.8c-0.1-3.6-0.2-7.3-0.3-10.9c-0.2-25.3-0.6-51.5-0.9-77c0-3.6,0-7.3,0-11
						c0-3.7,0-7.3,0-10.9c0,0,0-0.1,0-0.1c0-0.1,0-0.1,0-0.2c0-0.1,0-0.1,0.1-0.2c0-0.1,0-0.1,0.1-0.2c0-0.1,0.1-0.1,0.1-0.2
						C0.9,16,0.9,16,1,16c0-0.1,0.1-0.1,0.1-0.2c0-0.1,0.1-0.1,0.1-0.1s0.1-0.1,0.2-0.1c0,0,0.1-0.1,0.1-0.1c0.1,0,0.2-0.1,0.2-0.1
						c0,0,0.1,0,0.1,0l0,0c10.1-4.5,20.1-9.1,29.3-15.1C31.4,0.1,31.8,0,32.2,0C37.6,0.1,44,0.3,50.4,0.3c4,0,8.2-0.1,12.1-0.1
						C75,0.3,87.7,0.5,100.2,0.4c4.4,0,8.8,0,12.7,0c7.8,0,13.6-0.1,13.6-0.1s0,0,0.1,0c0.2,0,0.3,0,0.5,0.1c0,0,0.1,0,0.1,0
						c0.1,0.1,0.3,0.1,0.4,0.2c0,0,0.1,0.1,0.1,0.1c0.1,0.1,0.3,0.2,0.4,0.3c0,0,0,0,0.1,0.1c0.1,0.1,0.2,0.3,0.2,0.4c0,0,0,0,0,0.1
						l0,0c0.1,0.1,0.1,0.3,0.1,0.5c0,0,0,0,0,0.1c0,1,0.2,2.1,0.2,3.1c0.1,1,0.2,2,0.1,2.9c-0.1,3.7-0.5,7.8-0.6,11.6
						c0,1-0.1,1.9-0.1,2.9c-0.1,3.7-0.2,7.5-0.2,11.5c0,1,0,2,0,3c-0.1,4.1-0.1,8.1-0.1,12.3c0,1,0,1.9,0,2.9
						c0,8.8,0.1,17.8,0.4,26.3c0,1,0,2.1,0.1,3.1C128.5,91.2,129,100.8,130.4,110.1z M124.2,24.1c-0.2-0.6-0.3-1.3-0.3-1.9
						c0-0.6,0-1.3,0.1-1.9c0.3-2.6,1-5.3,0.9-7.6c0-0.9,0-1.9,0-2.9c0-1,0-2-0.1-3c-1.8,1.6-3.4,3.2-5,4.7c-2.5,2.3-5,4.7-7.5,7.1
						c-0.2,3-0.3,6.1-0.5,9.2c-0.1,1-0.1,2.2-0.2,3.2c-1,8.9-0.3,17.9-0.9,26.2c-0.1,1-0.1,2.3-0.1,3.4c0.1,10.1,0.1,21.2,0.1,31.3
						c0,1.1,0.1,2.4,0.1,3.5c0.3,8.3,0.7,16.7,1.3,25.1c2-1.6,4.1-3.2,6.1-4.6c2.8-2.1,5.6-4.2,8.2-6.3c-1.1-8.1-1.6-16.3-1.9-24.4
						c0-1-0.1-2-0.1-3c-1.5-3.9-0.4-8.1-0.3-11.5c0-0.8-0.1-1.7-0.1-2.6c-0.1-3.1-0.1-6.2-0.1-9.3c0-0.8,0-1.6,0-2.4
						c0-7.9,0.1-16.9,0.2-25c0-0.8,0-1.6,0-2.4c0-0.8,0-1.6,0-2.4C124.1,25.5,124.1,24.8,124.2,24.1z M121.5,4.4
						c0,0-11.9,0.1-23.8,0c-4,0-8-0.1-11.5-0.1c-5.2,0-10.1,0.2-14.9,0.1c-1,0-1.9-0.1-2.9-0.1c-4.8,0-9.1-0.1-13.9-0.3
						c-0.7,0-1.3,0-2,0c-0.7,0-1.3,0-2,0C44.4,4,38.2,3.9,33,3.8c-7.2,4.5-13.5,7.9-20.9,11.4c9.5,0.1,19,0.2,28.5,0.4
						c1.1,0,2.1,0,3.2,0c4.3-0.9,8.6-1,12.8-0.8c1.1,0.1,2.1,0.1,3.2,0.2c10.4,1,21.4,0.8,31.8,0.8c1,0,2,0,3,0c5,0,10-0.1,14.9-0.2
						c2.5-2.4,5.1-4.8,7.6-7.1C118.5,7.2,119.9,5.8,121.5,4.4z M108.1,122.5c-0.8-9.6-1.2-19.3-1.5-28.9c0-1.2-0.1-2.4-0.1-3.6
						c0.1-8.7-1.6-18.9-0.1-28c0-1.1,0-2.3,0.1-3.4c0-1.1,0-2.3,0.1-3.4c0.2-7.8,0.3-14.9,0.8-23c0.1-1.1,0.1-2.1,0.2-3.2
						c0.2-3.2,0.3-6.3,0.5-9.3c-4.3,0.1-8.6,0.1-12.9,0.1c-1.1,0-2.2,0-3.2,0c-10.1,0-20.6,0.3-30.6-0.4c-1-0.1-1.9-0.1-2.9-0.1
						c-4.9-0.2-10.1,0.1-14.9,0.3c-1,0-2.2,0-3.2,0c-11.9-0.1-23.8-0.3-35.7-0.4c0,7,0,14,0,21.1c0,3.5,0.1,7.1,0,10.6
						c0,17.4,0.5,35.3,0.7,52.8c0,3.5,0.1,7,0.2,10.5c0.1,3.5,0.2,7,0.3,10.5C40,126.7,74,125.9,108.1,122.5z"/>
					<path class="st3" d="M73.9,4.2c0,0,5.3,0.1,12.3,0.1c3.5,0,7.5,0,11.5,0.1c11.9,0,23.8,0,23.8,0c-1.5,1.4-3,2.8-4.4,4.2
						c-2.5,2.4-5,4.7-7.6,7.1c-4.9,0.1-9.9,0.1-14.9,0.2c-1,0-2,0-3,0c-10.5-0.1-21.3,0.3-31.8-0.4c-1.1-0.1-2.1-0.1-3.2-0.2
						c-4.2-0.2-8.7,0.1-12.8,0.3c-1,0.1-2.1,0-3.2,0c-9.5-0.1-19-0.3-28.6-0.4c7.4-3.5,13.7-7,20.9-11.4C38.2,3.9,44.4,4,50.5,4
						c0.7,0,1.3,0,2,0c0.7,0,1.4,0,2,0c4.8,0.2,9.1,0.2,13.8,0.1c0.9,0,1.9,0,2.8,0C72.1,4.2,73,4.2,73.9,4.2z"/>
				</g>
			</g>
		</g>
	</g>
</g>
<path class="st4" d="M87.1,44C86,38.3,82.3,33,77.2,30.3c-5.8-3.1-12.5-2.8-18.1,0.3c-6.8,3.8-11,10.4-16.2,16
	c-0.1,0.1-0.3,0.2-0.4,0.4c-4.1,4.9-9.8,8.3-13,14c-3,5.3-4,11.9-2.1,17.8C30.8,89.2,43.9,97,53.9,89.8c5.2-3.8,8.8-9.9,13.3-14.4
	c0.9-1,1.9-1.9,2.9-2.8c0,0,0.1-0.1,0.1-0.1c4.2-4.1,8.5-8,12.3-12.5C86.4,55.2,88.4,50.2,87.1,44z M57,80.7
	c-3.3,4.1-6.9,8.2-12.7,7.7c-5.2-0.4-9.7-4.1-12-8.6c-2.8-5.5-2.1-12.1,1-17.3c2.6-4.4,7-7.4,10.6-11.1c3.2,3.9,6.7,7.5,10.4,10.9
	c3.5,3.3,7,6.7,11.2,9.2C62.5,74.5,59.6,77.5,57,80.7z M78.9,57.8c-3.3,3.8-6.9,7.3-10.4,10.8c-4.3-2.3-7.8-5.8-11.3-9.1
	c-3.7-3.5-7.3-7-10.5-11c6.3-7.2,13.2-18,24-16.2c5.5,0.9,10,5,11.8,10.2C84.6,48.4,82.8,53.3,78.9,57.8z"/>
<g>
	<path class="st4" d="M47.8,104.5c0-0.1,0-0.2,0-0.3c0.1-0.9,0.2-1.8,0.2-2.6c-0.1,0-0.2,0-0.3-0.1c-0.1,0.3-0.3,0.6-0.4,0.9
		c-0.9,2.6-1.9,5.2-2.8,7.7c-0.2,0.5-0.4,0.9-1,1l-0.1,0c0,0-0.1,0-0.1,0c-0.1,0-0.1-0.1-0.2-0.1c-0.1-0.1-0.1-0.1-0.2-0.2
		c-0.2-0.4-0.3-0.8-0.5-1.3c-0.2-0.6-0.5-1.3-0.7-1.9c-0.1-0.3-0.2-0.6-0.3-0.9c0-0.1,0-0.1,0-0.1c-0.6-1.8-1.2-3.6-1.8-5.4
		c-0.1,0-0.2,0-0.3,0.1c0.1,0.7,0.1,1.3,0.1,2c0,2.6,0,5.2,0,7.8c0,1.3,0,1.3-1.3,1.4c-0.1-0.1-0.1-0.1-0.2-0.2
		c0-4.1,0-8.3,0.1-12.4c0-0.3-0.3-1,0.4-0.9c0.6,0,1.5-0.4,1.8,0.6c0.6,1.6,1.1,3.3,1.7,4.9c0.5,1.5,1.1,3,1.6,4.5
		c0.1,0,0.1,0,0.2,0c0.5-1.5,1-3,1.4-4.5c0,0,0,0,0,0c0.6-1.8,1.3-3.6,1.9-5.4c0,0,0,0,0,0c0.3,0,0.6,0,1,0c1.1,0,1.1,0,1.1,1.1
		c0,3.6,0,7.3,0,10.9c0,1.6,0.3,1.6-1.6,1.5c0,0,0,0,0,0C47.9,109.7,47.8,107.1,47.8,104.5z"/>
	<path class="st4" d="M24.7,103.8c0-1.3,0-2.7,0-4c0-1.2,0-0.9,1.2-1.2c0.8-0.1,0.7,0.6,0.7,1.1c0,2.8-0.1,5.6,0.1,8.4
		c0.2,2.5,2.5,3.5,4.6,2.3c1-0.5,1.3-1.6,1.3-2.7c0.1-2.6,0.1-5.3,0-7.9c0-0.8,0.1-1.2,1-1.3c0.6,0,0.9,0.1,0.9,0.8c0,2,0.2,4,0.1,6
		c0,1.4-0.1,2.8-0.4,4.1c-0.6,2.3-2.4,3.6-5.4,3.2c-2.7-0.3-3.9-2-4.1-4.5C24.6,106.7,24.7,105.3,24.7,103.8
		C24.7,103.8,24.7,103.8,24.7,103.8z"/>
	<path class="st4" d="M77.8,103.6c0-1.3,0-2.6,0-4c0-0.8,0.3-0.9,1-0.9c0.7,0,1,0.2,1,1c0,2.6-0.1,5.3,0.1,7.9
		c0.1,1.2,0.4,2.5,1.7,3.1c1.6,0.7,3.5-0.1,4-1.8c0.2-0.7,0.3-1.4,0.3-2.2c0-2.4,0.1-4.8,0-7.2c0-0.9,0.5-0.9,1.1-1
		c0.7-0.1,0.9,0.4,0.9,1c0,2.4,0.1,4.7,0,7.1c-0.1,1.3-0.4,2.6-0.8,3.7c-0.6,1.6-2.2,2.2-3.7,2.3c-1.6,0.1-3.2-0.2-4.3-1.7
		c-0.8-1.1-1.1-2.3-1.1-3.6C77.8,106.2,77.8,104.9,77.8,103.6C77.8,103.6,77.8,103.6,77.8,103.6z"/>
	<path class="st4" d="M13,105.6c0-2,0-4,0-6.1c0-0.6,0.2-0.8,0.8-0.8c1.7,0.1,3.5,0.1,5.2,0.2c1.5,0.1,3.1,1.6,3.2,3.3
		c0.2,3.4-2.1,4.7-4.4,4.8c-0.8,0-1.5,0-2.3,0.1c-0.2,0-0.6,0.4-0.6,0.6c0,1.2,0,2.4,0,3.6c0,0.6,0.1,1.1-0.7,1.1
		c-0.7,0-1.3,0.1-1.3-0.9C13,109.6,12.9,107.6,13,105.6C13,105.6,13,105.6,13,105.6z M16.5,100.2C16.5,100.2,16.5,100.2,16.5,100.2
		c-0.4,0.1-0.7,0.1-1.1,0.1c-0.4,0-0.6,0.2-0.6,0.6c0,1.4,0,2.8,0,4.2c0,0.2,0.3,0.6,0.5,0.6c1.2-0.1,2.3-0.1,3.5-0.4
		c1-0.2,1.5-1.2,1.5-2.4c0-1.3-0.5-2.1-1.5-2.4C18,100.3,17.2,100.3,16.5,100.2z"/>
	<path class="st4" d="M97.5,109.5c0,0,0-0.1-0.1-0.1c-0.3-0.5-0.7-1.1-1-1.6c0,0,0-0.1,0-0.1c-0.1-0.2-0.2-0.5-0.4-0.7c0,0,0,0,0,0
		c-0.2-0.4-0.5-0.8-0.7-1.2c0,0,0,0,0,0c-0.1-0.2-0.2-0.3-0.3-0.5c0,0,0,0,0,0c-0.1-0.2-0.2-0.4-0.3-0.6c0,0,0-0.1,0-0.1
		c-0.2-0.4-0.5-0.8-0.7-1.2c0,0,0,0,0,0c-0.3-0.6-0.6-1.3-0.9-1.9c-0.1,0-0.2,0.1-0.3,0.1c0,0.6,0.1,1.1,0.1,1.7c0,2.6,0,5.2,0,7.8
		c0,1.4,0,1.4-1.4,1.5c0,0,0,0,0,0c0-4.2,0-8.4,0-12.6c0-0.3,0.2-0.8,0.3-0.8c0.5,0,1.3,0,1.5,0.4c1.7,2.9,3.3,5.8,5,8.7
		c0.4,0.7,0.8,1.3,1.1,2c0.1,0,0.2,0,0.3-0.1c-0.1-1.3-0.2-2.7-0.3-4c0-2.3,0-4.6,0-6.9c0.5-0.1,1-0.1,1.6-0.2c0,0,0,0,0,0
		c0,4.1,0,8.3,0,12.4c0,1.1-0.6,1.5-1.6,1c-0.2-0.1-0.3-0.2-0.5-0.3c0,0,0,0,0,0C98.4,111.2,98,110.3,97.5,109.5z"/>
	<path class="st4" d="M55,109.8c0,0.7,0,1.3,0,2c0,0.9-0.7,0.6-1.1,0.6c-0.5,0.1-0.7,0-0.7-0.7c0.1-3.6,0-7.1,0-10.7
		c0-0.6-0.1-1.2,0-1.7c0-0.3,0.4-0.7,0.6-0.7c1.8,0,3.6,0.1,5.3,0.3c1.3,0.2,2.4,0.8,3,2.1c1,2-0.1,5-2.2,5.6
		c-1.3,0.4-2.7,0.4-4.1,0.5c-0.5,0-0.7,0.2-0.7,0.6C55,108.4,55,109.1,55,109.8C55,109.8,55,109.8,55,109.8z M54.9,102.9
		C54.9,102.9,54.9,102.9,54.9,102.9c0,0.7-0.1,1.4,0,2.1c0,0.2,0.3,0.5,0.5,0.6c0.9,0,1.9,0,2.8-0.1c1.3-0.1,2.1-1,2.1-2.4
		c0.1-1.6-0.4-2.4-1.9-2.7c-1-0.2-2.1-0.2-3.1-0.2c-0.2,0-0.5,0.3-0.5,0.5C54.9,101.5,54.9,102.2,54.9,102.9z"/>
	<path class="st4" d="M69.6,112.5c-0.7,0-1.3,0-1.9,0c0-0.3,0-0.6,0-0.9c0-4,0-7.9,0-11.9c0-0.9,0.3-1.1,1.1-1.1c2.1,0,4.1,0,6.2,0
		c0.6,0,0.9,0.3,0.9,0.8c0,0.5-0.1,1-0.8,1c-1.5,0-2.9,0-4.4,0c-0.8,0-1.1,0.3-1.1,1.1c0.1,1.1,0,2.2,0,3.5c1.5-0.1,2.9-0.3,4.2-0.3
		c0.3,0,0.9,0.4,1,0.7c0.2,0.5,0.1,1.2-0.7,1.2c-1.2,0-2.5,0-3.7,0c-0.6,0-0.8,0.2-0.8,0.8C69.6,109,69.6,110.7,69.6,112.5z"/>
	<path class="st4" d="M63.3,112.7c-0.8,0-1.3-0.5-1.3-1.3c0-0.8,0.7-1.5,1.3-1.5c0.6,0,1.3,0.8,1.3,1.5
		C64.6,112.2,64.1,112.7,63.3,112.7z"/>
	<path class="st4" d="M96.4,107.7c0.3,0.5,0.7,1.1,1,1.6C97.1,108.8,96.8,108.3,96.4,107.7z"/>
	<path class="st4" d="M93.9,103.2c0.2,0.4,0.5,0.8,0.7,1.2C94.4,104.1,94.1,103.6,93.9,103.2z"/>
	<path class="st4" d="M96,106.9c0.1,0.2,0.2,0.5,0.4,0.7C96.3,107.4,96.2,107.2,96,106.9z"/>
	<path class="st4" d="M95,105.2c0.1,0.2,0.2,0.3,0.3,0.5C95.2,105.5,95.1,105.3,95,105.2z"/>
	<path class="st4" d="M94.7,104.6c0.1,0.2,0.2,0.4,0.3,0.6C94.9,105,94.8,104.8,94.7,104.6z"/>
	<path class="st4" d="M41.5,106.7c0.1,0.3,0.2,0.6,0.3,0.9C41.8,107.3,41.7,107,41.5,106.7z"/>
	<path class="st4" d="M43.3,111c0.1,0,0.1,0.1,0.2,0.1C43.4,111.1,43.3,111,43.3,111z"/>
</g>
</svg>
