<?xml version="1.0" encoding="utf-8"?>
<!-- Generator: Adobe Illustrator 28.0.0, SVG Export Plug-In . SVG Version: 6.00 Build 0)  -->
<svg version="1.1" id="Layer_1" xmlns="http://www.w3.org/2000/svg" xmlns:xlink="http://www.w3.org/1999/xlink" x="0px" y="0px"
	 viewBox="0 0 162.6 153" style="enable-background:new 0 0 162.6 153;" xml:space="preserve">
<style type="text/css">
	.st0{fill:#EB2424;stroke:#FFFFFF;stroke-width:5;stroke-miterlimit:10;}
	.st1{fill:#FFFFFF;}
</style>
<g>
	<path class="st0" d="M136.6,146.8c-10.3,3.4-22.5,3.4-32.5,3.6c-19.2,0.4-38.4-1.2-57.6-2.1c-13.9-0.6-29.8-2.3-37.8-15.4
		c-3.8-6.3-5.7-13.8-5.9-21.2c-1-28.4,0.8-66.1,1.2-76c0.4-9.7,1.7-15.8,6.1-21.8c4.8-6.6,12.6-9.7,20.6-10.3
		c24.6-2,49.4-0.7,74.1-0.1c16.9,0.4,41.8-1.9,50.9,16.2c6.9,13.6,3.8,30.1,3.9,44.8c0.2,16.2,0.4,32.4-0.3,48.5
		c-0.4,9.2-2.6,18.8-8.9,25.5C146.6,142.5,141.8,145.1,136.6,146.8z"/>
	<g>
		<path class="st1" d="M131.5,72.3c0,19.8-5.1,33.7-14.8,46c-2.5,3.2-5.6,5.4-9.3,2.5c-3.7-3-1.9-6.3,0.6-9.5
			c16.2-21.4,16.6-47.1,1.1-68.8c-2.4-3.4-4.6-6.9-0.3-9.9c4.2-2.9,7.1,0.2,9.5,3.5C127,48.1,131.7,61.4,131.5,72.3z"/>
		<path class="st1" d="M110.7,77.5c0.1,8.6-2.9,17.9-9,26.2c-2.3,3.1-5.1,5.1-8.7,2.6c-3.6-2.5-2.7-5.7-0.4-9
			c9.3-13.3,9.7-27,1-40.7c-2.1-3.3-3.3-6.5,0.4-9.1c3.9-2.8,6.7-0.5,9,2.9C108,58.1,110.6,66.5,110.7,77.5z"/>
		<g>
			<path class="st1" d="M82.9,63.4c0-5.3,0-10.6,0-16c0-2.7,0-5.3,0-8c0-2.3,0.4-4.9-0.6-7.1c-0.4-0.8-1-1.6-1.8-2
				c-3.4-1.4-6.4,2.3-10.2,6.1c-5.3,5.4-8,8.6-14.5,14.9c-2.9,2.8-2.1,7.1-2.1,10.7c0,4.3,0,8.6,0,12.9c0,4.9,0,9.7,0,14.6
				c0,2.4-0.1,4.9,0,7.3c0.1,3.2,3.9,5.8,5.9,7.9c4.1,4.2,8.3,8.3,12.6,12.3c1.1,1.1,2.3,2.1,3.4,3.2c0.8,0.8,1.9,2.2,3.1,2.5
				c2.3,0.6,3.4-2.3,3.6-4.1c1-7.9,0.6-15.8,0.6-23.8C82.9,84.5,82.9,73.9,82.9,63.4z"/>
			<path class="st1" d="M60.5,55.2c-0.1-0.1-0.1-0.1-0.2-0.2c-0.8-0.8-1.9-1.1-3-1.3c-1.6-0.2-19.5,0.1-21.2,0
				c-1.1-0.1-2.2,0.1-3.1,0.7c-1.9,1.3-2.1,3.9-2,6c0.2,8,0,16.1,0.1,24.2c0,3.2-0.1,6.4,0,9.6c0,1.4,0,3.3,1.1,4.4
				c1.1,1.1,3.1,1.1,4.5,1.1c0.9,0,18.2,0.1,19.2,0c1.4-0.1,2.8-0.4,3.8-1.2c2.2-1.7,1.8-4.3,1.8-6.8c0-6.3,0-12.6,0-18.9
				c0-3.1,0-6.2,0-9.2C61.6,61.2,62.2,57.2,60.5,55.2z"/>
		</g>
		<path class="st1" d="M133.7,120c3,2.7,4.3,6.1,1.2,9.3c-3.4,3.6-6.8,2.1-9.9-1c-15.7-15.7-31.4-31.3-47-47
			C61.8,65.2,45.7,49.1,29.6,32.9c-4.5-4.5-5-9.6-0.9-11c2.5-0.8,6.7,0.2,8.7,2C43.9,29.7,131.2,117.8,133.7,120z"/>
	</g>
</g>
</svg>
