<svg width="1000" height="1000" xmlns="http://www.w3.org/2000/svg" xml:space="preserve" version="1.1">

 <g>
  <title>Layer 1</title>
  <g id="svg_1">
   <g id="svg_2">
    <path id="svg_3" stroke-miterlimit="10" stroke-width="3.3555" stroke="#000000" fill="#FBB429" d="m508.4,856.1c-18.4,-0.4 -36.7,-2.4 -53.8,-4.9c-75.8,-11.4 -147.8,-43.1 -204.8,-94.8c-58.2,-52.9 -96.9,-125.6 -101.9,-204.7c-0.9,-15 -0.7,-30.1 0.6,-45.1c1.9,-57.2 14,-110 35.8,-156.9c21.3,-45.7 51.2,-84.5 88.9,-115.4c78.6,-64.4 185.5,-89.2 301,-69.9l0.9,0.2c53.4,13.3 102.4,36.5 141.6,67.1c59.2,46.1 95.6,114.3 120.4,183.8c13.9,39 18.9,78.5 13.4,119.5c-4.5,33.5 -13.4,66.4 -26.6,97.6c-12.2,29 -22.7,59 -41.2,84.8c-22.9,32 -56.4,54.9 -89.4,75.3c-34.6,21.4 -72.5,41.6 -111.3,54.2c-23,7.4 -48.4,9.7 -73.6,9.2zm-9.3,-675.7c-81.1,0 -154.5,24.4 -211.6,71.2c-35.1,28.8 -63,64.9 -82.8,107.5c-16.7,35.7 -26.7,74.3 -31.2,113.4c-4.8,42.2 -6.1,85.6 4.8,127c9.8,37.2 27.4,72.3 51.3,102.5c10.7,13.5 22.6,26.2 35.3,37.8c39.4,35.8 88.5,62.9 141.9,78.5c54,15.7 110.2,18.9 162.7,9.2c29.2,-10.1 57.5,-22.9 84.6,-37.8c13.4,-7.3 26.3,-14.5 37.6,-24.7c11.8,-10.7 24.2,-21 35.5,-32.3c14.6,-13.3 29.2,-26.6 41.6,-41.8c14.8,-18.2 22.2,-38 31.1,-59.1c16,-38 27.7,-78.4 29.7,-119.8c2,-40.6 -8.2,-80.7 -23.9,-117.8c-15.4,-36.5 -35.5,-72.4 -60.7,-102.9c-12.6,-15.2 -26.2,-29.7 -41.9,-41.8c-36.7,-28.6 -82.7,-50.4 -132.9,-63c-24.2,-4.1 -48,-6.1 -71.1,-6.1z" class="st0"/>
   </g>
   <g id="svg_4">
    <path id="svg_5" stroke-miterlimit="10" stroke-width="3.3555" stroke="#000000" fill="#FBB429" d="m502.7,618.3c-5.9,-0.1 -11.7,-0.8 -17.2,-1.6c-24.2,-3.6 -47.1,-13.7 -65.3,-30.2c-18.6,-16.9 -30.9,-40 -32.5,-65.2c-0.3,-4.8 -0.2,-9.6 0.2,-14.4c0.6,-18.2 4.5,-35.1 11.4,-50c6.8,-14.6 16.3,-26.9 28.3,-36.8c25.1,-20.5 59.1,-28.4 95.9,-22.3l0.3,0.1c17,4.2 32.6,11.6 45.2,21.4c18.9,14.7 30.5,36.4 38.4,58.6c4.4,12.4 6,25 4.3,38.1c-1.4,10.7 -4.3,21.2 -8.5,31.1c-3.9,9.2 -7.2,18.8 -13.1,27c-7.3,10.2 -18,17.5 -28.5,24c-11,6.8 -23.1,13.3 -35.5,17.3c-7.3,2.4 -15.4,3.1 -23.4,2.9z" class="st0"/>
   </g>
   <path id="svg_6" stroke-miterlimit="10" stroke-width="3.3555" stroke="#000000" fill="#FBB429" d="m541.5,149.7c0.8,1.3 1.4,2.9 1.7,4.7c0.7,4.6 -1.7,5.4 -3.8,9.4c-4.1,7.7 -8.2,15.3 -12.3,23c-8,14.9 -16,29.9 -24,44.8c-14,-22.6 -28,-45.1 -42.1,-67.7c-5.6,-9 -7.2,-17.7 5.8,-18.6c13.3,-1 26.8,-0.6 40.1,-0.9c7.2,-0.2 14.5,-0.3 21.7,-0.5c5.1,-0.2 10.2,1.5 12.9,5.8z" class="st0"/>
   <g id="svg_7">
    <path id="svg_8" d="m406.8,531.7l8.5,-11.5c9.4,6 16.5,6.7 21.1,2c4.1,-4.4 2.1,-9.4 -6.1,-14.9c-7.5,-3.6 -13.4,-7.8 -17.9,-12.6c-4.7,-3.8 -5,-9.9 -1.1,-18.2c4.9,-6 12.7,-7.9 23.6,-5.5c8,1.6 14.2,5.1 18.4,10.3l-6.5,9.5c-10.3,-7 -17.5,-9.4 -21.6,-7.2c-1.8,3.7 3.8,9 16.7,15.7c13.3,8.1 14.5,19.8 3.5,35c-8.1,9.9 -20.9,9 -38.6,-2.6z"/>
    <path id="svg_9" d="m468.2,492.1l-8,1.3l-2.2,-18.9c23.9,-4.3 39,-4.6 45.6,-0.8c6.5,3.8 10.2,10.2 11,19.2c0.4,13.8 -8.7,23.3 -27.3,28.6l0.4,23l-11.3,0.8l-8.2,-53.2zm18.2,13.1c9.2,-3.1 13.7,-6.9 13.4,-11.4c-0.5,-2.7 -1.7,-4.4 -3.6,-5.2c-1.9,-0.8 -5.6,-0.7 -11.2,0.4l1.4,16.2z"/>
    <path id="svg_10" d="m535.1,476.4c1.8,1.2 2.8,2.7 3,4.5c0.2,1.9 -0.4,3.6 -2,5.1c-1.5,1.5 -3.5,2.4 -5.9,2.7c-2.4,0.3 -4.5,-0.2 -6.3,-1.3c-1.8,-1.1 -2.9,-2.6 -3.1,-4.5c-0.2,-1.9 0.5,-3.6 2,-5.1c1.5,-1.5 3.5,-2.4 5.9,-2.7c2.5,-0.3 4.6,0.1 6.4,1.3zm-12.7,17.3l14.5,1.1l1.3,42.5l-15.2,0.2l-0.6,-43.8z"/>
    <path id="svg_11" d="m546.4,534.7l1.3,-51.2l-3.9,-0.2l0,-8.5l16.9,0.7l12.3,33.4l2.6,-36.6l13.2,-1.5l-4.6,74.6l-13.9,-2.6l-11.5,-33l0,26.2l-12.4,-1.3z"/>
   </g>
  </g>
  <ellipse stroke-width="0" stroke="#000000" ry="96.5" rx="102" id="svg_12" cy="506.5" cx="503" fill="#FBB429"/>
 </g>
</svg>