<?xml version="1.0" encoding="utf-8"?>
<!-- Generator: Adobe Illustrator 28.0.0, SVG Export Plug-In . SVG Version: 6.00 Build 0)  -->
<svg version="1.1" id="Layer_1" xmlns="http://www.w3.org/2000/svg" xmlns:xlink="http://www.w3.org/1999/xlink" x="0px" y="0px"
	 viewBox="0 0 191.4 132.3" style="enable-background:new 0 0 191.4 132.3;" xml:space="preserve">
<style type="text/css">
	.st0{fill:#734d26;}
	.st1{fill:#1D4D9F;}
	.st2{fill:#64C5DC;}
	.st3{fill:#29A6E7;}
	.st4{fill:#FFFFFF;}
</style>
<g>
	<g>
		<path class="st0" d="M191.3,101.5c2.4,6.4-43.2,18.3-80.7,27.7C55.4,135.8,14,130.1,4,128c0-9.6,16.9-26,72-32.6
			S188.9,95.1,191.3,101.5z"/>
	</g>
	<g>
		<g id="XMLID_00000142175213471442518230000010943265064928627344_">
			<g>
				<path d="M130.3,110.4c0.1,0.7-0.2,1.3-0.7,1.8c-2.9,2.4-6,4.8-9.1,7.2c-3.1,2.3-6.2,4.8-9,7.1c0,0,0,0,0,0s0,0,0,0
					c-0.1,0.1-0.2,0.1-0.3,0.2c0,0,0,0-0.1,0c-0.1,0-0.2,0.1-0.3,0.1c0,0-0.1,0-0.1,0c-0.1,0-0.2,0-0.3,0.1c0,0,0,0,0,0
					c-18.6,2.3-37.8,3.4-56.8,3.4c-16.5,0-32.8-0.9-48.8-2.6c-1-0.1-1.7-0.9-1.8-1.8C-0.2,90.2-0.9,53.8,1.2,18c0,0,0-0.1,0-0.1
					c0-0.1,0-0.1,0-0.2c0-0.1,0-0.1,0.1-0.2c0-0.1,0-0.1,0.1-0.2c0-0.1,0.1-0.1,0.1-0.2c0-0.1,0-0.1,0.1-0.1c0-0.1,0.1-0.1,0.1-0.2
					c0-0.1,0.1-0.1,0.1-0.1c0,0,0.1-0.1,0.2-0.1c0,0,0.1-0.1,0.1-0.1c0.1,0,0.2-0.1,0.2-0.1c0,0,0.1,0,0.1,0c0,0,0,0,0,0
					c11.6-5,19.9-9.4,29.8-15.7c0.3-0.2,0.7-0.3,1.1-0.3c5.3,0,11.5,0,17.9-0.1C59.1,0,67.3,0,74.3,0L126,0.2c0,0,0,0,0.1,0
					c0.2,0,0.3,0,0.5,0.1c0,0,0.1,0,0.1,0c0.1,0.1,0.3,0.1,0.4,0.2c0,0,0.1,0.1,0.1,0.1c0.1,0.1,0.3,0.2,0.4,0.3c0,0,0,0,0.1,0.1
					c0.1,0.1,0.2,0.3,0.2,0.4c0,0,0,0,0,0.1c0,0,0,0,0,0C128,1.6,128,1.8,128,2c0,0,0,0,0,0.1c1,8.5,0.6,15.1,0.3,21.5
					c-0.2,4.2-0.4,8.2-0.3,12.6c0.3,8.8,0.3,17.7,0.3,26.3C128.3,78.1,128.3,94.4,130.3,110.4z M124.3,23.3
					c0.3-5.1,0.5-10.5,0.1-16.7c-1.7,1.6-3.3,3.2-4.9,4.7c-2.4,2.4-4.9,4.7-7.4,7.1c-1.5,30.5-2.6,66.2-0.2,102.5
					c2-1.6,4.1-3.2,6.1-4.7c2.8-2.1,5.6-4.3,8.2-6.4c-1.9-15.8-1.8-31.9-1.8-47.4c0-8.6,0-17.4-0.3-26.2
					C123.9,31.6,124.1,27.4,124.3,23.3z M121.1,4.2L74.2,4c-6.9,0-15.1,0-23,0.1c-6.1,0-12.1,0.1-17.3,0.1
					C26.6,8.8,20.2,12.4,12.7,16c14.6-0.2,29.5-0.2,44-0.2c17.4,0,35.3,0,52.7-0.3c2.5-2.4,5-4.8,7.4-7.1
					C118.2,7,119.6,5.6,121.1,4.2z M108,123.1c-2.5-36.7-1.5-72.8,0-103.6c-17,0.2-34.5,0.2-51.4,0.3c-17,0-34.6,0-51.6,0.3
					C3.2,54.6,3.8,89.5,6.8,123.9C39.8,127.3,74.7,127,108,123.1z"/>
				<path class="st1" d="M124.4,6.5c0.4,6.3,0.2,11.6-0.1,16.7c-0.2,4.1-0.4,8.4-0.3,13c0.3,8.7,0.3,17.6,0.3,26.2
					c0,15.5,0,31.6,1.8,47.4c-2.6,2.1-5.4,4.3-8.2,6.4c-2,1.6-4.1,3.2-6.1,4.7c-2.4-36.3-1.3-72.1,0.2-102.5c2.5-2.4,5-4.8,7.4-7.1
					C121.1,9.7,122.8,8.1,124.4,6.5z"/>
				<path class="st2" d="M74.2,4l46.9,0.2c-1.5,1.4-2.9,2.8-4.3,4.2c-2.4,2.4-4.9,4.7-7.4,7.1C92,15.7,74,15.8,56.7,15.8
					c-14.5,0-29.3,0-44,0.2c7.5-3.6,13.9-7.2,21.2-11.8c5.2,0,11.2-0.1,17.3-0.1C59.1,4,67.3,4,74.2,4z"/>
				<path class="st3" d="M108.1,19.5c-1.5,30.8-2.6,67,0,103.6c-33.3,3.9-68.2,4.2-101.2,0.8C3.8,89.5,3.2,54.6,5.1,20
					c17-0.2,34.6-0.2,51.6-0.3C73.6,19.8,91.1,19.7,108.1,19.5z"/>
			</g>
			<g>
			</g>
		</g>
		<path class="st4" d="M13.2,77.4c-1.4-2,82.6-36.4,81.3-33.2c-1.4,3.2-26.1,61.7-28.6,60.7c-2.5-1.1-17.5-7.9-19.2-9.3
			c-1.7-1.4,8.6-16.8,8.6-17.9c0-1.1-17.8,10.5-17.8,10.5C29.3,87.4,14.6,79.4,13.2,77.4z"/>
	</g>
</g>
</svg>
