<?xml version="1.0" encoding="utf-8"?>
<!-- Generator: Adobe Illustrator 28.0.0, SVG Export Plug-In . SVG Version: 6.00 Build 0)  -->
<svg version="1.1" id="Layer_1" xmlns="http://www.w3.org/2000/svg" xmlns:xlink="http://www.w3.org/1999/xlink" x="0px" y="0px"
	 viewBox="0 0 360.2 159" style="enable-background:new 0 0 360.2 159;" xml:space="preserve">
<style type="text/css">
	.st0{fill:#377f32;}
</style>
<g>
	<g>
		<rect x="12.9" y="12.8" width="334.8" height="133.5"/>
	</g>
	<g>
		<g>
			<path class="st0" d="M251.5,157.3c-0.5,0-1,0-1.4,0c-5.8-0.1-11.6-0.3-17.4-0.4c-11.3-0.3-23-0.6-34.4-0.6l-0.2,0
				c-13.9-0.3-27.9-0.2-41.5-0.1c-6.8,0-13.6,0.1-20.5,0.1c-5.9,0-11.9,0.2-17.7,0.5c-7.7,0.3-15.7,0.6-23.9,0.4l-46.9-1.2
				c-3.6-0.1-7.2,0.1-11,0.3c-3.8,0.2-7.7,0.4-11.8,0.3c-20-0.4-21.9-14.1-22-18.3C2.1,110,1.7,82.5,1.7,56.5
				C1.6,50.8,1.8,45.3,2,39.9c0.1-3.6,0.2-7.1,0.3-10.6l0-0.7c0-2.8,0-7.5,1.1-12C5.4,8.2,11.1,3,18.4,2.8c1.1,0,2.1,0,3.2,0
				c4.8,0,9.5-0.2,14.6-0.5c4.6-0.2,9.4-0.5,14.3-0.5l237.4-0.1c2.4,0,4.7,0,7.1,0c9.8-0.1,20-0.1,30.1,0.9c1.1,0.1,3,0,4.8-0.1
				c6.9-0.5,19.8-1.3,25.8,10.6c4,8.1,2.9,16.9,2.2,22.7c-2,16.4-1.3,32.7-0.5,50c0.4,7.8,0.8,15.9,0.9,23.9
				c0.1,6.6-0.2,13.2-0.5,19.5l0,0.5c0,0.6,0,1.3-0.1,1.9c-0.1,5.2-0.3,12.2-5.6,18.3l0,0c-1.2,1.4-2.7,2.7-4.3,3.7
				c-5.4,3.4-11.3,3-15.5,2.7c-0.9-0.1-1.8-0.1-2.4-0.1l-40.5,0c-5.9,0-11.9,0-17.8,0c-2.9,0-5.9,0.2-9.1,0.5
				C258.8,157,255.3,157.3,251.5,157.3z M198.3,136.3c11.7,0,23.4,0.3,34.8,0.6c5.8,0.1,11.5,0.3,17.3,0.4c3.4,0.1,6.8-0.2,10.4-0.5
				c3.4-0.3,6.9-0.5,10.6-0.5c6,0,11.9,0,17.9,0l40.4,0c1.3,0,2.5,0.1,3.7,0.2c1.1,0.1,2.7,0.2,3.7,0.1c0.4-1,0.5-3.6,0.6-5.5
				c0-0.8,0-1.6,0.1-2.3l0-0.5c0.3-6.3,0.6-12.3,0.5-18.3c-0.1-7.7-0.5-15.6-0.8-23.2c-0.8-17.3-1.7-35.3,0.6-53.4
				c0.5-3.7,1-8.2-0.1-10.9c-1.4-0.3-4.7-0.1-6.7,0c-2.7,0.2-5.5,0.4-8.2,0.1c-9-0.9-18.2-0.9-27.8-0.8c-2.4,0-4.8,0-7.2,0
				L50.5,21.8c-4.4,0-8.7,0.2-13.2,0.5c-4.7,0.3-9.6,0.5-14.7,0.5c-0.2,1.4-0.3,3.5-0.3,6l0,0.7c0,3.8-0.2,7.5-0.3,11.1
				C21.8,46,21.6,51,21.7,56.2l0,0.2c0,25.4,0.4,52.3,1.1,79.9c0.6,0.1,1.4,0.2,2.4,0.2c3.4,0.1,6.8-0.1,10.4-0.3
				c4-0.2,8.1-0.4,12.5-0.3l46.9,1.2c7.5,0.2,14.8-0.1,22.5-0.4c6-0.2,12.2-0.5,18.5-0.5c6.8,0,13.6,0,20.3-0.1
				C170.1,136.1,184.2,136,198.3,136.3z M336.9,136.8C336.9,136.8,336.9,136.8,336.9,136.8L336.9,136.8
				C336.9,136.8,336.9,136.8,336.9,136.8z M337.6,136.5L337.6,136.5L337.6,136.5z"/>
			<path d="M251.4,159c-0.5,0-0.9,0-1.4,0c-5.8-0.1-11.6-0.3-17.4-0.4c-11.3-0.3-23-0.6-34.4-0.6l-0.2,0
				c-13.8-0.3-27.8-0.2-41.3-0.1l-0.1,0c-6.8,0-13.6,0.1-20.5,0.1c-5.9,0-11.8,0.2-17.6,0.5c-7.8,0.3-15.7,0.6-24,0.4l-46.9-1.2
				c-3.5-0.1-7.1,0.1-10.8,0.3l-0.1,0c-3.8,0.2-7.7,0.4-11.8,0.3c-21.5-0.4-23.5-15.3-23.7-19.9C0.4,110,0,82.5,0,56.5
				c-0.1-5.7,0.1-11.3,0.3-16.6c0.1-3.6,0.2-7,0.3-10.5l0-0.6c0-2.9,0-7.7,1.2-12.4C4,7,10.2,1.3,18.4,1.1c1.1,0,2.2,0,3.3,0
				c4.9,0,9.8-0.2,14.5-0.5c4.6-0.2,9.4-0.5,14.4-0.5l237.4-0.1c2.4,0,4.7,0,7.1,0l0.1,0c9.8-0.1,20-0.1,30.1,0.9
				c0.9,0.1,2.8,0,4.5-0.1c6.8-0.5,20.9-1.4,27.4,11.5c4.3,8.5,3.1,17.6,2.4,23.7c-2,16.3-1.3,32.5-0.4,49.7
				c0.4,7.8,0.8,15.9,0.9,24c0.1,6.7-0.2,13.2-0.5,19.5l0,0.6c0,0.6,0,1.2-0.1,1.8l0,0.1c-0.2,5.4-0.4,12.8-6.1,19.4
				c-1.4,1.6-2.9,2.9-4.7,4c-5.8,3.7-12,3.3-16.5,3c-0.9-0.1-1.8-0.1-2.3-0.1l-40.5,0c-5.9,0-11.9,0-17.8,0c-2.9,0-5.8,0.2-8.9,0.5
				C259,158.7,255.3,159,251.4,159L251.4,159C251.4,159,251.4,159,251.4,159z M176.8,154.4c7.1,0,14.2,0,21.3,0.2l0.2,0
				c11.4,0,23.1,0.3,34.4,0.6c5.8,0.2,11.6,0.3,17.4,0.4c0.5,0,1,0,1.4,0h0c3.8,0,7.3-0.3,10.7-0.5c3.2-0.2,6.2-0.5,9.2-0.5
				c5.9,0,11.9,0,17.8,0l40.5,0c0.7,0,1.6,0.1,2.5,0.1c4.1,0.3,9.7,0.6,14.6-2.5c1.5-0.9,2.8-2.1,3.9-3.4c4.9-5.7,5.1-12.4,5.2-17.3
				l0-0.1c0-0.6,0-1.2,0.1-1.9l0-0.5c0.3-6.4,0.6-12.9,0.5-19.4c-0.1-8-0.5-16.1-0.8-23.8c-0.8-17.3-1.6-33.7,0.5-50.3
				c0.7-5.6,1.8-14.1-2.1-21.8C348.6,2.9,337,3.7,330,4.2c-2,0.1-3.9,0.3-5.1,0.1c-10-1-20-1-29.8-0.9l-0.1,0c-2.4,0-4.7,0-7.1,0
				L50.5,3.5c-4.9,0-9.6,0.3-14.2,0.5c-4.8,0.3-9.7,0.5-14.7,0.5c-1,0-2.1,0-3.1,0C11.9,4.6,6.9,9.4,5,17.1C4,21.4,3.9,26,3.9,28.7
				l0,0.7c0,3.5-0.2,7-0.3,10.6c-0.2,5.3-0.4,10.9-0.3,16.5c0,26,0.4,53.4,1.2,81.7c0.1,4.9,2.4,16.3,20.4,16.6
				c4,0.1,7.8-0.1,11.6-0.3l0.1,0c3.6-0.2,7.4-0.4,11.1-0.3l46.9,1.2c8.1,0.2,16-0.1,23.7-0.4c5.8-0.2,11.8-0.5,17.8-0.5
				c6.8,0,13.6,0,20.4-0.1l0.1,0C163.3,154.5,170,154.4,176.8,154.4z M251.4,139c-0.4,0-0.7,0-1.1,0c-5.8-0.1-11.5-0.3-17.3-0.4
				c-11.4-0.3-23.2-0.6-34.8-0.6l0,0c-14.1-0.3-28.2-0.2-41.8-0.1c-6.8,0-13.5,0.1-20.3,0.1c-6.3,0-12.4,0.2-18.4,0.5
				c-7.8,0.3-15.1,0.6-22.7,0.4l-46.9-1.2c-4.2-0.1-8.3,0.1-12.3,0.3c-3.5,0.2-7,0.3-10.6,0.3c-1,0-1.9-0.1-2.7-0.2l-1.4-0.2l0-1.4
				c-0.7-27.7-1.1-54.6-1.1-80l0-0.2c-0.1-5.2,0.1-10.3,0.2-15.6c0.1-3.6,0.3-7.3,0.3-11l0-0.7c0-2.6,0.1-4.7,0.3-6.2l0.2-1.5l1.5,0
				c4.9,0,9.6-0.2,14.2-0.5l0.4,0c4.6-0.2,8.9-0.5,13.3-0.5l237.4-0.1c2.4,0,4.8,0,7.2,0c9.7-0.1,18.9-0.1,28,0.8
				c2.6,0.3,5.3,0.1,7.9-0.1c2.9-0.2,5.7-0.3,7.2,0l0.9,0.2l0.3,0.8c1.3,3.1,0.7,7.9,0.2,11.7c-2.2,18-1.4,35.9-0.6,53.1
				c0.4,7.6,0.7,15.5,0.8,23.2c0.1,6.1-0.2,12.1-0.5,18.4l0,0.5c0,0.8-0.1,1.5-0.1,2.3c-0.1,2.7-0.2,4.9-0.7,6.1l-0.4,0.9l-1,0.1
				c-1,0.1-2.5,0-3.9-0.1c-1.2-0.1-2.4-0.1-3.6-0.1l-40.4,0c-6,0-11.9,0-17.9,0c-3.6,0-7.1,0.3-10.5,0.5
				C257.6,138.7,254.5,139,251.4,139z M337.4,137.4l0.6,0.6L337.4,137.4z M198.3,134.6c11.7,0,23.4,0.3,34.8,0.6
				c5.8,0.1,11.5,0.3,17.3,0.4c3.3,0.1,6.7-0.2,10.2-0.5c3.4-0.3,7-0.5,10.7-0.6c6,0,11.9,0,17.9,0l40.4,0c1.3,0,2.6,0.1,3.8,0.2
				c0.6,0,1.5,0.1,2.3,0.1c0.1-1.1,0.2-2.8,0.2-3.9c0-0.8,0-1.6,0.1-2.4l0-0.5c0.3-6.3,0.6-12.2,0.5-18.2
				c-0.1-7.7-0.5-15.5-0.8-23.1c-0.8-17.4-1.7-35.4,0.6-53.7c0.4-2.9,0.8-6.7,0.3-9.1c-1.5-0.1-4,0.1-5.3,0.2
				c-2.8,0.2-5.6,0.4-8.5,0.1c-8.9-0.9-18-0.9-27.6-0.8c-2.4,0-4.8,0-7.2,0L50.5,23.5c-4.3,0-8.6,0.2-13.1,0.5l-0.4,0
				c-4.1,0.2-8.4,0.4-12.9,0.5c-0.1,1.2-0.1,2.7-0.1,4.4l0,0.7c0,3.8-0.2,7.5-0.3,11.1C23.5,46,23.3,51,23.4,56.1l0,0.2
				c0,24.9,0.4,51.3,1.1,78.4c0.3,0,0.5,0,0.8,0c3.4,0.1,6.9-0.1,10.3-0.3c4-0.2,8.2-0.4,12.6-0.3l46.9,1.2
				c7.5,0.2,14.7-0.1,22.4-0.4c6-0.2,12.2-0.5,18.5-0.5c6.8,0,13.6,0,20.3-0.1C170,134.4,184.2,134.3,198.3,134.6z"/>
		</g>
	</g>
</g>
</svg>
