<?xml version="1.0" encoding="utf-8"?>
<!-- Generator: Adobe Illustrator 28.0.0, SVG Export Plug-In . SVG Version: 6.00 Build 0)  -->
<svg version="1.1" id="Layer_1" xmlns="http://www.w3.org/2000/svg" xmlns:xlink="http://www.w3.org/1999/xlink" x="0px" y="0px"
	 viewBox="0 0 914.1 582.9" style="enable-background:new 0 0 914.1 582.9;" xml:space="preserve">
<style type="text/css">
	.st0{fill:#FFFFFF;}
	.st1{fill:#00BA34;}
	.st2{fill:#BFBFBF;}
	.st3{fill:#FBB429;}
	.st4{fill:#808080;}
</style>
<g>
	<g>
		<g>
			<path d="M232.7,577.8c-15.2-0.1-30.5-0.1-45.7-0.1c-54.7-2.3-123.1-0.8-158.9-49.4c-20.6-28-24.1-65.1-22.8-99.8
				c1.5-43.2,0.4-85.5,0.5-128.6c0.1-58.6-8.9-132,9-188.7c0.1-0.2,0.1-0.3,0.2-0.5c16.9-38.5,60.3-62.7,95.3-72.5
				c35.2-9.9,70.6-9,104.8-8.2c16.4,0.4,32,0.7,47.5,0c41.3-2,83.2-1.8,123.8-1.7c16.4,0.1,33.4,0.1,50,0
				c84.3-0.4,170-0.4,252.9-0.4l14.9,0c66.7,0,142.3,0,186.1,72.3c10,16.5,7.8,46.6,9.2,65c3,39.9,4.6,79.9,6,119.8
				c2.6,76.2,20.1,179.6-33.4,241.3c-63.8,73.6-191,48.7-277.2,50.7C474.2,580,353.5,578.2,232.7,577.8z"/>
			<path d="M708.2,582.9c-18.4,0-36.8-0.7-54.7-1.4c-20.8-0.8-40.4-1.5-58.3-1.1c-94,2.2-189.4,1.7-281.7,1.1
				c-26.5-0.2-53.8-0.3-80.7-0.4c-16.4-0.1-31.4-0.1-45.7-0.1l-0.1,0c-4.2-0.2-8.5-0.3-12.8-0.5c-25.6-0.9-54.7-2-80.9-8.4
				c-30.4-7.5-52.5-21.2-67.7-41.9C2.3,498.8,0.9,457,2,428.3c1.1-29.6,0.9-59.3,0.7-88c-0.1-13.3-0.2-27-0.2-40.5
				c0-14.4-0.5-29.5-1-45.5C-0.2,207-2,153.3,11.7,110.1l0.1-0.2c0.1-0.2,0.2-0.4,0.3-0.6c17.3-39.5,61.7-64.3,97.4-74.4
				c35.7-10,71.3-9.2,105.8-8.4c16.4,0.4,31.9,0.7,47.3,0c41.5-2,83.4-1.8,124-1.7c16.4,0.1,33.4,0.1,50,0
				c84.2-0.4,169.7-0.4,252.4-0.4l15.4,0c67.6,0,144.1,0,189,73.9c8.1,13.4,8.7,34.8,9.1,52.1c0.1,5.2,0.3,10.2,0.6,14.4
				c3.1,40.8,4.7,81.8,6,120c0.4,12.3,1.2,25.1,2.1,38.7c4.4,71.3,9.4,152.2-36.3,204.9C834.8,574.6,771.6,582.9,708.2,582.9z
				 M606.2,573.7c14.9,0,30.8,0.6,47.5,1.2c78.1,3,166.6,6.3,216-50.7c44-50.7,39-130.1,34.7-200.1c-0.8-13.6-1.6-26.5-2.1-38.9
				c-1.3-38.1-2.9-79-6-119.7c-0.3-4.4-0.5-9.4-0.6-14.8c-0.4-16.4-1-36.9-8.2-48.8c-42.9-70.7-117.5-70.7-183.3-70.7l-15.4,0
				c-82.7,0-168.2-0.1-252.4,0.4c-16.6,0.1-33.6,0-50,0c-40.5-0.1-82.3-0.3-123.7,1.7c-15.6,0.7-31.2,0.4-47.7,0
				c-34.1-0.8-69.2-1.6-103.9,8.1C77,50.9,34.5,74.5,18.1,112c0,0.1-0.1,0.2-0.1,0.2C4.7,154.3,6.5,205,8.1,254.1
				c0.5,16.1,1.1,31.2,1,45.8c0,13.5,0.1,27.2,0.2,40.5c0.2,28.8,0.4,58.6-0.7,88.3c-1,27.7,0.2,67.9,22.2,97.7
				c32,43.6,91.2,45.7,143.5,47.6c4.3,0.2,8.6,0.3,12.8,0.5c14.3,0,29.2,0,45.6,0.1c26.9,0.1,54.3,0.3,80.8,0.4
				c92.2,0.6,187.6,1.1,281.5-1.1C598.6,573.7,602.4,573.7,606.2,573.7z"/>
		</g>
	</g>
	<g>
		<g>
			<path class="st0" d="M232.8,550.1c-29-0.5-58.1-1.4-87-3c-45.2-2.6-95.6-6.1-122.2-48.6C-2.5,457,6.8,393.3,6.2,346.7
				c-0.9-73.1-8.2-152,5-224.3C21.4,67,55.5,28.7,110.3,13.6C147.9,3,187.5,5.7,226.2,5.3c154.4-1.9,308.8-2,463.2-1.9
				c0,0,14.9,0,14.9,0c48.4,0,99.9,3.7,142.6,28.9c52.2,30.8,51.2,80.3,54.5,134.4c1.9,31.7,3.2,63.5,4.3,95.3
				c2.1,63.2,13.7,130-7.4,191.4c-26.4,77.1-101.4,95.8-174.1,98.7c-131,5.3-263.5-0.2-394.7-1.1
				C297.4,550.8,265.1,550.7,232.8,550.1z"/>
			<path d="M599,557.7c-50.8,0-101.6-0.9-151.5-1.7c-38.7-0.7-78.7-1.3-117.9-1.6c-6.4,0-12.8-0.1-19.3-0.1
				c-25.4-0.2-51.8-0.3-77.7-0.8c-33.3-0.6-61-1.5-87.1-3c-43.2-2.5-96.9-5.6-124.8-50.1C-0.4,466.7,1,419.7,2.3,378.2
				c0.3-11.1,0.7-21.7,0.5-31.5c-0.2-17.1-0.8-34.9-1.3-52.1C-0.4,237-2.3,177.5,7.9,121.8c5.2-28.3,16.5-52.3,33.6-71.2
				C58.8,31.6,81.7,18,109.4,10.4c30.8-8.6,63.1-8.5,94.3-8.4c7.3,0,14.9,0.1,22.3,0C379.1,0.1,532.5,0,689.4,0l14.9,0
				c20.5,0,47.4,0.6,74,5.1c27.4,4.6,50.4,12.6,70.3,24.3c50.1,29.6,52.7,76.4,55.5,126c0.2,3.7,0.4,7.3,0.6,11.1
				c1.7,27.8,3.1,58.1,4.3,95.4c0.5,13.9,1.4,28.4,2.3,42.3c3.3,50.1,6.7,101.9-9.9,150.3c-12.3,36-36.4,62.6-71.4,79.1
				c-27.5,12.9-62,20.1-105.6,21.9C682.9,557.1,640.9,557.7,599,557.7z M232.8,546.8c25.9,0.4,52.1,0.6,77.6,0.8
				c6.4,0,12.8,0.1,19.3,0.1c39.2,0.3,79.3,0.9,118,1.6c90.9,1.5,184.8,3.2,276.5-0.5c42.7-1.7,76.4-8.7,103.1-21.2
				c33.8-16,56.1-40.6,68-75.2c16.2-47.2,12.8-98.3,9.6-147.7c-0.9-14-1.9-28.5-2.3-42.5c-1.3-37.3-2.6-67.5-4.3-95.2
				c-0.2-3.7-0.4-7.4-0.6-11.1c-2.8-49.8-5.2-92.8-52.2-120.6C803,10.2,752.5,6.7,704.3,6.7l-14.9,0c-156.8-0.1-310.3,0-463.2,1.9
				c-7.5,0.1-15.1,0.1-22.5,0c-30.8-0.1-62.6-0.2-92.5,8.2C58,31.5,24.6,68.2,14.5,123C4.4,178,6.3,237.2,8.2,294.4
				c0.6,17.2,1.1,35.1,1.3,52.2c0.1,10-0.2,20.6-0.5,31.8c-1.2,40.5-2.6,86.5,17.4,118.3C37.9,515,55,527.4,78.7,534.5
				c21.8,6.6,47,8,67.3,9.2C172,545.2,199.6,546.2,232.8,546.8z"/>
		</g>
		<g>
			<path class="st1" d="M599.1,524.3c-50.2,0-101.5-0.9-151-1.7c-38.8-0.7-78.9-1.3-118.2-1.6c-6.4,0-12.8-0.1-19.2-0.1
				c-25.4-0.2-51.6-0.3-77.4-0.8c-32.9-0.6-60.1-1.5-85.8-3c-46.7-2.7-81-6.7-98.5-34.6c-15.7-25-14.4-66.6-13.3-103.3
				c0.3-11.5,0.7-22.4,0.5-32.9c-0.2-17.4-0.8-35.4-1.4-52.8C33,237.7,31.1,180,40.7,127.8c8.2-44.7,34.3-73.4,77.6-85.3l0.1,0
				c23.7-6.6,49.9-7.2,74.6-7.2c3.5,0,7.1,0,10.6,0c3.6,0,7.2,0,10.8,0c4.6,0,8.4,0,12.1-0.1c138.2-1.7,277.3-1.9,407-1.9
				c18.6,0,37.2,0,55.8,0l15,0c44.4,0,90.6,3,127.4,24.7c33.2,19.6,36.3,47.5,39.2,99.1c0.2,3.7,0.4,7.5,0.6,11.2
				c1.7,27.5,3,57.5,4.3,94.5c0.5,14.5,1.5,29.2,2.4,43.4c3.2,49,6.3,95.2-8.2,137.3c-9.4,27.5-27.1,47.1-54.1,59.8
				c-23.3,11-53.7,17.1-92.8,18.7C685.6,523.6,645.1,524.3,599.1,524.3z"/>
			<path d="M599.1,527.7c-50.2,0-101.5-0.9-151-1.7c-38.9-0.7-78.9-1.3-118.3-1.6c-6.4,0-12.8-0.1-19.2-0.1
				c-25.4-0.2-51.7-0.3-77.4-0.8c-32.9-0.6-60.2-1.5-85.9-3c-47.7-2.7-82.8-6.9-101.2-36.1c-16.2-25.9-15-68-13.8-105.2
				c0.3-11.5,0.7-22.3,0.5-32.8C32.6,329,32,311,31.5,293.7c-1.8-56.1-3.7-114,6-166.5c8.5-46,35.4-75.6,80-87.9l0.1,0
				c24.1-6.8,50.5-7.3,75.5-7.3c3.5,0,7.1,0,10.6,0c3.6,0,7.2,0,10.8,0c4.6,0,8.4,0,12.1-0.1C364.7,30.2,503.8,30,633.6,30
				c18.6,0,37.2,0,55.8,0l15,0c44.9,0,91.6,3.1,129.1,25.2c34.7,20.5,37.9,49,40.8,101.8c0.2,3.7,0.4,7.4,0.6,11.2
				c1.7,27.5,3,57.6,4.3,94.6c0.5,14.4,1.4,29.1,2.4,43.2c3.2,49.3,6.3,95.9-8.3,138.6c-9.7,28.4-28,48.6-55.8,61.7
				c-23.8,11.2-54.5,17.4-94.1,19C685.7,526.9,645.1,527.7,599.1,527.7z M193.1,38.6c-24.5,0-50.4,0.5-73.7,7.1l-0.1,0
				C77.3,57.3,52,85.1,44,128.4c-9.5,51.8-7.7,109.3-5.9,165c0.6,17.4,1.1,35.4,1.4,52.8c0.1,10.6-0.2,21.5-0.5,33.1
				c-1.1,36.2-2.3,77.3,12.8,101.5c16.6,26.5,50.2,30.4,95.9,33c25.6,1.5,52.9,2.4,85.7,3c25.7,0.4,51.9,0.6,77.3,0.8
				c6.5,0,12.9,0.1,19.3,0.1c39.4,0.3,79.5,0.9,118.3,1.6c49.6,0.8,100.8,1.7,151,1.7c45.9,0,86.4-0.7,123.9-2.2
				c38.6-1.6,68.5-7.6,91.5-18.4c26.1-12.3,43.2-31.2,52.4-57.8c14.2-41.5,11.2-87.4,8-136c-0.9-14.3-1.9-29-2.4-43.5
				c-1.2-37-2.6-66.9-4.3-94.4c-0.2-3.8-0.4-7.5-0.6-11.2c-2.8-50.5-5.8-77.7-37.5-96.4c-36.1-21.3-81.7-24.2-125.7-24.3l-15,0
				c-18.6,0-37.2,0-55.8,0c-129.7,0-268.8,0.2-407,1.9c-3.7,0-7.5,0.1-12.1,0.1c-3.6,0-7.2,0-10.8,0
				C200.1,38.6,196.6,38.6,193.1,38.6z"/>
		</g>
	</g>
</g>
<g>
	<path class="st2" d="M803.4,460.6c-13.5,2.6-692.3,4.6-704.9-4.3c-11.2-7.8-9-25-9.3-36.9c-0.5-22-0.7-44.1,0.1-66.1
		c0.3-10.7,2.8-24.3,13.6-29.2c16.1-7.3,705.5-6.4,715.9,5.3c8.4,9.5,5.4,27.7,5.8,39.4c0.8,24.3,2,49.1-1.1,73.3
		c-0.4,3.4-1.2,7-3.3,9.8C816.6,456.7,810.5,459.3,803.4,460.6z"/>
	<path d="M504.6,465.9c-17.9,0-36,0-54,0c-67.1-0.1-163-0.5-238.6-1.7c-110.1-1.7-113.5-4.1-115.3-5.3c-10.8-7.6-10.7-22-10.6-33.6
		c0-2,0-3.9,0-5.7c-0.6-25.9-0.6-46.9,0.1-66.3c0.5-16.8,5.7-27.5,15.3-31.9c10.2-4.6,221.7-5.4,361.4-4.8
		c93.9,0.4,179.8,1.5,241.9,3c111.7,2.7,114.5,5.9,116.2,7.8c7.4,8.3,7,22,6.6,32.9c-0.1,3-0.2,5.9-0.1,8.4c0.1,2.4,0.2,4.9,0.2,7.3
		c0.7,21.9,1.5,44.5-1.4,66.4c-0.4,3.3-1.3,7.6-3.8,11.2c-3.6,4.9-9.7,8.2-18.6,9.9l-0.6-3l0.6,3
		C797.5,464.9,656.7,465.9,504.6,465.9z M100.1,453.8c9.4,3.4,141.3,5.6,353.3,6c179.9,0.3,342.5-0.9,349.4-2.1
		c7.2-1.4,12.2-3.9,14.8-7.5c1.8-2.4,2.4-5.7,2.7-8.3c2.8-21.5,2.1-43.8,1.4-65.4c-0.1-2.5-0.2-4.9-0.2-7.3c-0.1-2.7,0-5.7,0.1-8.8
		c0.3-10.3,0.6-21.9-4.9-28.4c-10.8-4.6-153.7-8.2-356.8-9c-187.3-0.8-347,1.1-355.8,4.3c-7.3,3.3-11.2,12.2-11.7,26.5
		c-0.7,19.2-0.7,40.2-0.1,65.9c0,1.9,0,3.8,0,5.9C92.2,436,92.1,448,100.1,453.8z M816.9,331.9C816.9,331.9,816.9,331.9,816.9,331.9
		L816.9,331.9z"/>
</g>
<g>
	<path d="M248.8,372.5l-7.1,1.3l-1.9-18.3c21.1-4.2,34.5-4.5,40.2-0.7c5.7,3.7,9,9.9,9.7,18.6c0.4,13.4-7.7,22.6-24.1,27.8l0.4,22.3
		l-10,0.8L248.8,372.5z M264.9,385.2c8.1-3,12.1-6.7,11.8-11c-0.4-2.6-1.5-4.3-3.2-5s-5-0.6-9.9,0.4L264.9,385.2z"/>
	<path d="M316.5,396.8c-1.6,0.5-3.4,1-5.2,1.3l-1.3,19.6l-8.8-0.2l-2.6-45.9l-6.3,0.5L292,356c18.7-1.8,30.4-0.9,35.2,2.9
		c4.7,3.7,7.1,9.4,7.2,17.1c-0.4,7.3-3.6,13-9.5,17l11.7,18.8l-13.6,5.7L316.5,396.8z M311.7,384.1c7.3-1.9,11-4.7,11.1-8.6
		c-0.2-2.3-1-3.9-2.4-4.7c-1.4-0.8-4.3-1-8.7-0.5L311.7,384.1z"/>
	<path d="M352.4,357.2c1.6,1.1,2.5,2.6,2.7,4.4c0.2,1.8-0.4,3.5-1.7,4.9c-1.3,1.5-3.1,2.3-5.2,2.6c-2.1,0.3-3.9-0.2-5.6-1.3
		c-1.6-1.1-2.5-2.6-2.7-4.4c-0.2-1.8,0.4-3.5,1.8-4.9c1.4-1.5,3.1-2.3,5.2-2.6C349,355.7,350.8,356.1,352.4,357.2z M341.2,374
		l12.8,1.1l1.2,41.2l-13.4,0.2L341.2,374z"/>
	<path d="M395.7,357.1l-12.6,57.5l-11.5,1.2L355.4,358l13.8-3.2l6.1,35.6l11.9-34.8L395.7,357.1z"/>
	<path d="M408.3,408.5l-2.2,6.4l-8.6-1.5l1.2-5.5l-5.6-0.4l-1.1-5.8l8.6-2.4l9.5-43.4l11.5-1.2l16.3,57.6l-13.8,3.2l-1-6.2
		L408.3,408.5z M420.4,393.8l-2.4-13.8l-5.4,15.9L420.4,393.8z"/>
	<path d="M437.9,370v-15l49-3.8l-0.4,16.2l-18.9,1.7l3.4,45.5l-17.3,2.5l1-47.8L437.9,370z"/>
	<path d="M529.8,385.6l8.6,9.9c-5.5,8.7-13.3,13.1-23.3,13.1c-16,0-24.1-8-24.3-24c0.1-17.5,7.3-26.3,21.6-26.3
		c11.4,0.2,18.1,5.6,20.1,16.2l-20.6,18.3C520.2,393.7,526.2,391.4,529.8,385.6z M505,387.4l14.9-12.7c-4.5-4.3-9.1-4.8-13.7-1.3
		C502,377.6,501.6,382.3,505,387.4z"/>
	<path d="M594.5,389.3l-3.9,25.5l-11.4,1.8L560.1,360l13.6-4l7.8,35.2l6-35.7l9.1-0.6l10.4,35.7l4.8-41.8l14,2.4l-11.1,64.5
		l-11.5-0.5L594.5,389.3z"/>
	<path d="M668.1,385.6l8.6,9.9c-5.5,8.7-13.3,13.1-23.3,13.1c-16,0-24.1-8-24.3-24c0.1-17.5,7.3-26.3,21.6-26.3
		c11.4,0.2,18.1,5.6,20.1,16.2l-20.6,18.3C658.5,393.7,664.5,391.4,668.1,385.6z M643.3,387.4l14.9-12.7c-4.5-4.3-9.1-4.8-13.7-1.3
		C640.3,377.6,639.9,382.3,643.3,387.4z"/>
	<path d="M717.8,385.6l8.6,9.9c-5.5,8.7-13.3,13.1-23.3,13.1c-16,0-24.1-8-24.3-24c0.1-17.5,7.3-26.3,21.6-26.3
		c11.4,0.2,18.1,5.6,20.1,16.2l-20.6,18.3C708.2,393.7,714.2,391.4,717.8,385.6z M693,387.4l14.9-12.7c-4.5-4.3-9.1-4.8-13.7-1.3
		C690,377.6,689.6,382.3,693,387.4z"/>
	<path d="M729.4,352.3l14.2,1.9l-2.8,45.5l24.5-2.7l1.1,19.2l-39.2,1.7L729.4,352.3z"/>
</g>
<g>
	<g>
		<path class="st3" d="M241.7,235.2c-13.5,2.6-130.6,4.6-143.2-4.3c-11.2-7.8-9-25-9.3-36.9c-0.5-22-0.7-44.1,0.1-66.1
			c0.3-10.7,2.8-24.3,13.6-29.2c16.1-7.3,143.8-6.4,154.2,5.3c8.4,9.5,5.4,27.7,5.8,39.4c0.8,24.3,2,49.1-1.1,73.3
			c-0.4,3.4-1.2,7-3.3,9.8C254.9,231.2,248.8,233.8,241.7,235.2z"/>
		<path d="M179.8,240.5c-3.4,0-6.7,0-10,0c-42.4-0.4-67-2.7-73-7c-10.8-7.6-10.7-22-10.6-33.6c0-2,0-3.9,0-5.7
			c-0.6-25.9-0.6-46.9,0.1-66.3c0.5-16.8,5.7-27.5,15.3-31.9c9.4-4.3,48.4-5.5,80.6-4.8c25.7,0.6,70,2.7,77.2,10.8
			c7.4,8.3,7,22,6.6,32.9c-0.1,3-0.2,5.9-0.1,8.4c0.1,2.4,0.2,4.9,0.2,7.3c0.7,21.9,1.5,44.5-1.4,66.4c-0.4,3.3-1.3,7.6-3.8,11.2
			c-3.6,4.9-9.7,8.2-18.6,9.9h0C235.5,239.5,207.8,240.5,179.8,240.5z M164.8,97.2c-29.7,0-54.9,1.7-60.7,4.4
			c-7.3,3.3-11.3,12.3-11.8,26.5c-0.7,19.2-0.7,40.2-0.1,65.9c0,1.9,0,3.8,0,5.9c-0.1,10.7-0.2,22.9,8,28.6
			c3.7,2.6,23.9,5.5,69.5,5.9c33.1,0.3,64.9-0.9,71.3-2.1l0,0c7.2-1.4,12.2-3.9,14.8-7.5c1.8-2.4,2.4-5.7,2.7-8.3
			c2.8-21.5,2.1-43.8,1.4-65.4c-0.1-2.5-0.2-4.9-0.2-7.3c-0.1-2.7,0-5.7,0.1-8.8c0.3-10.4,0.6-22.2-5.1-28.7
			c-3.1-3.5-27.2-7.7-72.7-8.7C176.2,97.2,170.4,97.2,164.8,97.2z"/>
	</g>
	<g>
		<path d="M165.1,181.9l-0.5-8.7l17.3-5.7l-0.6,54.5l-9.5-3.8l-0.2-38L165.1,181.9z"/>
		<path d="M124.6,148.5l-2.8,18.1l-8.1,1.3l-13.6-40.2l9.7-2.9l5.6,25l4.2-25.3l6.5-0.4l7.4,25.4l3.4-29.7l9.9,1.7l-7.9,45.8
			l-8.2-0.3L124.6,148.5z"/>
		<path d="M176.9,145.9l6.1,7c-3.9,6.2-9.4,9.3-16.6,9.3c-11.4,0-17.1-5.7-17.3-17.1c0.1-12.4,5.2-18.7,15.4-18.7
			c8.1,0.2,12.8,4,14.3,11.5l-14.7,13C170.1,151.7,174.4,150,176.9,145.9z M159.3,147.1l10.6-9c-3.2-3.1-6.5-3.4-9.7-1
			C157.2,140.2,156.9,143.5,159.3,147.1z"/>
		<path d="M212.2,145.9l6.1,7c-3.9,6.2-9.4,9.3-16.6,9.3c-11.4,0-17.1-5.7-17.3-17.1c0.1-12.4,5.2-18.7,15.4-18.7
			c8.1,0.2,12.8,4,14.3,11.5l-14.7,13C205.4,151.7,209.7,150,212.2,145.9z M194.6,147.1l10.6-9c-3.2-3.1-6.5-3.4-9.7-1
			C192.5,140.2,192.2,143.5,194.6,147.1z"/>
		<path d="M220.5,122.2l10.1,1.3l-2,32.3l17.4-1.9l0.8,13.6l-27.9,1.2L220.5,122.2z"/>
	</g>
</g>
<g>
	<g>
		<path class="st2" d="M428.9,235.2c-13.5,2.6-130.6,4.6-143.2-4.3c-11.2-7.8-9-25-9.3-36.9c-0.5-22-0.7-44.1,0.1-66.1
			c0.3-10.7,2.8-24.3,13.6-29.2c16.1-7.3,143.8-6.4,154.2,5.3c8.4,9.5,5.4,27.7,5.8,39.4c0.8,24.3,2,49.1-1.1,73.3
			c-0.4,3.4-1.2,7-3.3,9.8C442.2,231.2,436,233.8,428.9,235.2z"/>
		<path d="M367,240.5c-3.4,0-6.7,0-10,0c-42.4-0.4-67-2.7-73-7c-10.8-7.6-10.7-22-10.6-33.6c0-2,0-3.9,0-5.7
			c-0.6-25.9-0.6-46.9,0.1-66.3c0.5-16.8,5.7-27.5,15.3-31.9c9.4-4.3,48.4-5.5,80.6-4.8c25.7,0.6,70,2.7,77.2,10.8
			c7.4,8.3,7,22,6.6,32.9c-0.1,3-0.2,5.9-0.1,8.4c0.1,2.4,0.2,4.9,0.2,7.3c0.7,21.9,1.5,44.5-1.4,66.4c-0.4,3.3-1.3,7.6-3.8,11.2
			c-3.6,4.9-9.7,8.2-18.6,9.9h0C422.8,239.5,395,240.5,367,240.5z M352.1,97.2c-29.7,0-54.9,1.7-60.7,4.4
			c-7.3,3.3-11.3,12.3-11.8,26.5c-0.7,19.2-0.7,40.2-0.1,65.9c0,1.9,0,3.8,0,5.9c-0.1,10.7-0.2,22.9,8,28.6
			c3.7,2.6,23.8,5.5,69.5,5.9c33.1,0.3,64.9-0.9,71.3-2.1c7.2-1.4,12.2-3.9,14.8-7.5c1.8-2.4,2.4-5.7,2.7-8.3
			c2.8-21.5,2.1-43.8,1.4-65.4c-0.1-2.5-0.2-4.9-0.2-7.3c-0.1-2.7,0-5.7,0.1-8.8c0.3-10.4,0.6-22.2-5.1-28.7
			c-3.1-3.5-27.2-7.7-72.7-8.7C363.4,97.2,357.7,97.2,352.1,97.2z"/>
	</g>
	<path d="M373.2,176.6c7.9,12.1,7.6,20.9-1,26.4c-9.3,5.3-13.6,9.6-12.8,12.8l18.4-3l-2,13.4l-27.3,0.2l-1.3-8.5
		c-0.8-4.4,0.5-8.2,3.9-11.2c3.2-3.8,7.5-7.1,12.9-10c4.9-3.4,5.7-7.6,2.6-12.5c-3.4-3.7-8.5-3.2-15.2,1.6l-6-7.1
		C359.2,168.5,368.4,167.9,373.2,176.6z"/>
	<path d="M311.9,148.5l-2.8,18.1l-8.1,1.3l-13.6-40.2l9.7-2.9l5.6,25l4.2-25.3l6.5-0.4l7.4,25.4l3.4-29.7l9.9,1.7l-7.9,45.8
		l-8.2-0.3L311.9,148.5z"/>
	<path d="M364.1,145.9l6.1,7c-3.9,6.2-9.4,9.3-16.6,9.3c-11.4,0-17.1-5.7-17.3-17.1c0.1-12.4,5.2-18.7,15.4-18.7
		c8.1,0.2,12.8,4,14.3,11.5l-14.7,13C357.3,151.7,361.6,150,364.1,145.9z M346.5,147.1l10.6-9c-3.2-3.1-6.5-3.4-9.7-1
		C344.4,140.2,344.1,143.5,346.5,147.1z"/>
	<path d="M399.5,145.9l6.1,7c-3.9,6.2-9.4,9.3-16.6,9.3c-11.4,0-17.1-5.7-17.3-17.1c0.1-12.4,5.2-18.7,15.4-18.7
		c8.1,0.2,12.8,4,14.3,11.5l-14.7,13C392.7,151.7,396.9,150,399.5,145.9z M381.8,147.1l10.6-9c-3.2-3.1-6.5-3.4-9.7-1
		C379.7,140.2,379.5,143.5,381.8,147.1z"/>
	<path d="M407.7,122.2l10.1,1.3l-2,32.3l17.4-1.9l0.8,13.6l-27.9,1.2L407.7,122.2z"/>
</g>
<g>
	<g>
		<path class="st2" d="M616.2,235.2c-13.5,2.6-130.6,4.6-143.2-4.3c-11.2-7.8-9-25-9.3-36.9c-0.5-22-0.7-44.1,0.1-66.1
			c0.3-10.7,2.8-24.3,13.6-29.2c16.1-7.3,143.8-6.4,154.2,5.3c8.4,9.5,5.4,27.7,5.8,39.4c0.8,24.3,2,49.1-1.1,73.3
			c-0.4,3.4-1.2,7-3.3,9.8C629.4,231.2,623.3,233.8,616.2,235.2z"/>
		<path d="M554.2,240.5c-3.4,0-6.7,0-10,0c-42.4-0.4-67-2.7-73-7c-10.8-7.6-10.7-22-10.6-33.6c0-2,0-3.9,0-5.7
			c-0.6-25.9-0.6-46.9,0.1-66.3c0.5-16.8,5.7-27.5,15.3-31.9c9.4-4.3,48.4-5.5,80.6-4.8c25.7,0.6,70,2.7,77.2,10.8
			c7.4,8.3,7,22,6.6,32.9c-0.1,3-0.2,5.9-0.1,8.4c0.1,2.4,0.2,4.9,0.2,7.3c0.7,21.9,1.5,44.5-1.4,66.4c-0.4,3.3-1.3,7.6-3.8,11.2
			c-3.6,4.9-9.7,8.2-18.6,9.9h0C610,239.5,582.3,240.5,554.2,240.5z M539.3,97.2c-29.7,0-54.9,1.7-60.7,4.4
			c-7.3,3.3-11.3,12.3-11.8,26.5c-0.7,19.2-0.7,40.2-0.1,65.9c0,1.9,0,3.8,0,5.9c-0.1,10.7-0.2,22.9,8,28.6
			c3.7,2.6,23.8,5.5,69.5,5.9c33.1,0.3,64.9-0.9,71.3-2.1l0,0c7.2-1.4,12.2-3.9,14.8-7.5c1.8-2.4,2.4-5.7,2.7-8.3
			c2.8-21.5,2.1-43.8,1.4-65.4c-0.1-2.5-0.2-4.9-0.2-7.3c-0.1-2.7,0-5.7,0.1-8.8c0.3-10.4,0.6-22.2-5.1-28.7
			c-3.1-3.5-27.2-7.7-72.7-8.7C550.6,97.2,544.9,97.2,539.3,97.2z"/>
	</g>
	<path d="M537,204.1c-0.2,0-0.4,0.1-0.7,0.1l0.1-13.2l10.7,0.2c5.9,0.4,8.8-1,8.6-4.1c-0.3-1.8-1.1-3-2.3-3.6
		c-1.2-0.6-7.2-0.1-18,1.3l-1.7-11.8c12.1-2.5,20.3-2.5,24.4,0.2c4.1,2.7,6.5,7.1,7,13.3c0.2,5.3-2.7,9.5-8.6,12.5
		c5.6,1.6,8.7,4.9,9.1,10c0.9,9.2-3.3,14.2-12.4,14.8l-16.1,1.3l-0.1-11l14.8,0.6c3.5-0.6,5.3-2.4,5.3-5.4c-0.2-3.3-7-4.9-20.4-4.6
		L537,204.1z"/>
	<path d="M499.1,148.5l-2.8,18.1l-8.1,1.3l-13.6-40.2l9.7-2.9l5.6,25l4.2-25.3l6.5-0.4l7.4,25.4l3.4-29.7l9.9,1.7l-7.9,45.8
		l-8.2-0.3L499.1,148.5z"/>
	<path d="M551.4,145.9l6.1,7c-3.9,6.2-9.4,9.3-16.6,9.3c-11.4,0-17.1-5.7-17.3-17.1c0.1-12.4,5.2-18.7,15.4-18.7
		c8.1,0.2,12.8,4,14.3,11.5l-14.7,13C544.6,151.7,548.8,150,551.4,145.9z M533.8,147.1l10.6-9c-3.2-3.1-6.5-3.4-9.7-1
		C531.6,140.2,531.4,143.5,533.8,147.1z"/>
	<path d="M586.7,145.9l6.1,7c-3.9,6.2-9.4,9.3-16.6,9.3c-11.4,0-17.1-5.7-17.3-17.1c0.1-12.4,5.2-18.7,15.4-18.7
		c8.1,0.2,12.8,4,14.3,11.5l-14.7,13C579.9,151.7,584.2,150,586.7,145.9z M569.1,147.1l10.6-9c-3.2-3.1-6.5-3.4-9.7-1
		C567,140.2,566.7,143.5,569.1,147.1z"/>
</g>
<path d="M594.9,122.2l10.1,1.3l-2,32.3l17.4-1.9l0.8,13.6l-27.9,1.2L594.9,122.2z"/>
<g>
	<g>
		<path class="st2" d="M803.4,235.2c-13.5,2.6-130.6,4.6-143.2-4.3c-11.2-7.8-9-25-9.3-36.9c-0.5-22-0.7-44.1,0.1-66.1
			c0.3-10.7,2.8-24.3,13.6-29.2c16.1-7.3,143.8-6.4,154.2,5.3c8.4,9.5,5.4,27.7,5.8,39.4c0.8,24.3,2,49.1-1.1,73.3
			c-0.4,3.4-1.2,7-3.3,9.8C816.6,231.2,810.5,233.8,803.4,235.2z"/>
		<path d="M741.5,240.5c-3.4,0-6.7,0-10,0c-42.4-0.4-67-2.7-73-7c-10.8-7.6-10.7-22-10.6-33.6c0-2,0-3.9,0-5.7
			c-0.6-25.9-0.6-46.9,0.1-66.3c0.5-16.8,5.7-27.5,15.3-31.9c9.4-4.3,48.4-5.5,80.6-4.8c25.7,0.6,70,2.7,77.2,10.8
			c7.4,8.3,7,22,6.6,32.9c-0.1,3-0.2,5.9-0.1,8.4c0.1,2.4,0.2,4.9,0.2,7.3c0.7,21.9,1.5,44.5-1.4,66.4c-0.4,3.3-1.3,7.6-3.8,11.2
			c-3.6,4.9-9.7,8.2-18.6,9.9h0C797.3,239.5,769.5,240.5,741.5,240.5z M726.5,97.2c-29.7,0-54.9,1.7-60.7,4.4
			c-7.3,3.3-11.3,12.3-11.8,26.5c-0.7,19.2-0.7,40.2-0.1,65.9c0,1.9,0,3.8,0,5.9c-0.1,10.7-0.2,22.9,8,28.6
			c3.7,2.6,23.9,5.5,69.5,5.9c33.1,0.3,64.9-0.9,71.3-2.1l0,0c7.2-1.4,12.2-3.9,14.8-7.5c1.8-2.4,2.4-5.7,2.7-8.3
			c2.8-21.5,2.1-43.8,1.4-65.4c-0.1-2.5-0.2-4.9-0.2-7.3c-0.1-2.7,0-5.7,0.1-8.8c0.3-10.4,0.6-22.2-5.1-28.7
			c-3.1-3.5-27.2-7.7-72.7-8.7C737.9,97.2,732.1,97.2,726.5,97.2z"/>
	</g>
	<path d="M750.9,209.1l-0.8,16.7l-11.1-0.8l1-17.2l-19.4-2.7l-0.5-35.6l10.5,0.7l0.8,26.4l9.1,3l1.1-19.2l10.5,1.4l-1,21.4l5.6,1.8
		l-0.5,4.8L750.9,209.1z"/>
	<path d="M686.3,148.5l-2.8,18.1l-8.1,1.3l-13.6-40.2l9.7-2.9l5.6,25l4.2-25.3l6.5-0.4l7.4,25.4l3.4-29.7l9.9,1.7l-7.9,45.8
		l-8.2-0.3L686.3,148.5z"/>
	<path d="M738.6,145.9l6.1,7c-3.9,6.2-9.4,9.3-16.6,9.3c-11.4,0-17.1-5.7-17.3-17.1c0.1-12.4,5.2-18.7,15.4-18.7
		c8.1,0.2,12.8,4,14.3,11.5l-14.7,13C731.8,151.7,736.1,150,738.6,145.9z M721,147.1l10.6-9c-3.2-3.1-6.5-3.4-9.7-1
		C718.9,140.2,718.6,143.5,721,147.1z"/>
	<path d="M773.9,145.9l6.1,7c-3.9,6.2-9.4,9.3-16.6,9.3c-11.4,0-17.1-5.7-17.3-17.1c0.1-12.4,5.2-18.7,15.4-18.7
		c8.1,0.2,12.8,4,14.3,11.5l-14.7,13C767.1,151.7,771.4,150,773.9,145.9z M756.3,147.1l10.6-9c-3.2-3.1-6.5-3.4-9.7-1
		C754.2,140.2,753.9,143.5,756.3,147.1z"/>
	<path d="M782.2,122.2l10.1,1.3l-2,32.3l17.4-1.9l0.8,13.6l-27.9,1.2L782.2,122.2z"/>
</g>
<g>
	<g>
		<path class="st4" d="M214.4,387.1c-0.3,23.2-17.2,45.5-40.5,50c-24.9,4.9-52.1-9.4-60.1-33.9c-10.7-32.5,16.9-68.1,50.9-67.2
			c23.1,0.6,44.6,18.9,48.9,41.7C214.2,380.8,214.4,384,214.4,387.1z"/>
		<path d="M163.8,441.1c-23.6,0-45.6-14.8-52.9-37c-5.2-15.9-1.9-34,8.8-48.4c11-14.7,27.8-23.3,45.1-22.8
			c24.5,0.7,47.3,20.1,51.8,44.2c0.6,3.3,0.9,6.6,0.9,10l0,0c-0.3,25.5-18.8,48.2-42.9,52.9C170.9,440.8,167.3,441.1,163.8,441.1z
			 M163.4,339c-14.8,0-29.3,7.5-38.8,20.3c-9.5,12.8-12.5,28.8-7.9,42.9c7.3,22.2,32.7,36.5,56.7,31.8c21-4.1,37.7-24.8,38-47.1l0,0
			c0-3-0.2-5.9-0.8-8.8c-4-21.4-24.2-38.6-46-39.2C164.2,339,163.8,339,163.4,339z"/>
	</g>
	<g>
		<g>
			<path class="st0" d="M172.9,414.2c-2.4,0-4.8,0-7.1-0.1c-4.2-0.1-8.5-0.2-12.6,0c-2.5,0.1-5.3,0.1-8.1-0.8
				c-9.9-3.3-9.2-15.3-8.8-23.3c0.1-1.6,0.2-3.1,0.2-4.3c0-3.6,1.2-6.5,3.4-8.7c4.5-4.3,11.9-4.6,17.1-4.5l14.1,0.4
				c0.7,0,1.5,0,2.3,0c3.5-0.1,7.9-0.2,11.2,2.5c5.1,4.1,5,11.2,4.9,16.4l0,0.5c0,0.8,0,1.5,0,2.3c0,7.3,0.1,18.4-12.4,19.5l0,0
				c-0.3,0-0.7,0-1,0.1C175,414.2,173.9,414.2,172.9,414.2z M158.9,408c2.4,0,4.8,0,7.1,0.1c3.3,0.1,6.7,0.1,10,0.1
				c0.2,0,0.4,0,0.6,0h0c6.3-0.6,6.9-4.5,6.9-13.4c0-0.8,0-1.6,0-2.4l0-0.5c0.1-4.1,0.1-9.3-2.7-11.5c-1.6-1.3-4.6-1.2-7.2-1.1
				c-0.9,0-1.8,0-2.6,0l-14.1-0.4c-6.3-0.2-10.6,0.8-12.7,2.8c-1.1,1-1.6,2.5-1.6,4.4c0,1.4-0.1,3-0.2,4.6
				c-0.5,8.4-0.5,15.5,4.6,17.1c1.8,0.6,3.9,0.6,5.9,0.5C154.9,408,156.9,408,158.9,408z"/>
		</g>
		<g>
			<path class="st0" d="M176.9,376h-6.1c0-1.4,0.1-3,0.2-4.8c0.3-4.8,0.8-12-1.6-14.5c-1.3-1.3-4.5-2.1-7.7-1.7
				c-2.6,0.3-4.7,1.2-5.5,2.4c-1.9,2.9-1.5,8.8-1.2,13.5c0.1,1.8,0.2,3.5,0.2,5h-6.1c0-1.3-0.1-2.9-0.2-4.6
				c-0.4-5.9-0.9-12.6,2.1-17.2c1.8-2.8,5.5-4.7,9.9-5.2c4-0.4,9.4,0.3,12.6,3.5c4.4,4.4,3.8,12.6,3.4,19.1
				C177,373.3,176.9,374.8,176.9,376z"/>
		</g>
		<g>
			<path class="st0" d="M168.6,391.2c0-2.5-1.7-4.7-4.2-5.3c-2.9-0.7-6,1.2-6.7,4.1c-0.5,2.1,0.8,3.7,1.5,5.6c0.8,2,2.2,9.1,6,4.9
				c1.1-1.3,1-3.1,1.6-4.6C167.4,394.2,168.6,393,168.6,391.2z"/>
		</g>
	</g>
</g>
</svg>
