<?xml version="1.0" encoding="utf-8"?>
<!-- Generator: Adobe Illustrator 28.0.0, SVG Export Plug-In . SVG Version: 6.00 Build 0)  -->
<svg version="1.1" id="Layer_1" xmlns="http://www.w3.org/2000/svg" xmlns:xlink="http://www.w3.org/1999/xlink" x="0px" y="0px"
	 viewBox="0 0 930.5 703.6" style="enable-background:new 0 0 930.5 703.6;" xml:space="preserve">
<style type="text/css">
	.st0{fill:#FFFFFF;}
	.st1{fill:#00BA34;}
	.st2{fill:#BFBFBF;}
	.st3{fill:#FBB429;}
</style>
<g>
	<g>
		<g>
			<path d="M240.9,692.9c-15.2-0.1-30.5-0.1-45.7-0.1c-54.7-2.3-123.1-0.8-158.9-49.4c-20.6-28-24.1-65.1-22.8-99.8
				C15,500.3,13.9,458,14,414.9c0.1-58.6-8.9-242,9-298.7c0.1-0.2,0.1-0.3,0.2-0.5C40.1,77.2,83.5,53,118.5,43.2
				c35.2-9.9,70.6-9,104.8-8.2c16.4,0.4,32,0.7,47.5,0c41.3-2,83.2-1.8,123.8-1.7c16.4,0.1,33.4,0.1,50,0
				c84.3-0.4,170-0.4,252.9-0.4h14.9c66.7,0,142.3,0,186.1,72.3c10,16.5,7.8,46.6,9.2,65c3,39.9,4.6,79.9,6,119.8
				c2.6,76.2,20.1,289.6-33.4,351.3c-63.8,73.6-191,48.7-277.2,50.7C482.4,695.1,361.7,693.3,240.9,692.9z"/>
			<path d="M716.3,698c-18.4,0-36.8-0.7-54.7-1.4c-20.8-0.8-40.4-1.5-58.3-1.1c-94,2.2-189.4,1.7-281.7,1.1
				c-26.5-0.2-53.8-0.3-80.7-0.4c-16.4-0.1-31.4-0.1-45.7-0.1h-0.1c-4.2-0.2-8.5-0.3-12.8-0.5c-25.6-0.9-54.7-2-80.9-8.4
				C71,679.7,48.8,666,33.6,645.4c-23.2-31.5-24.5-73.3-23.5-101.9c1.1-29.6,0.9-59.3,0.7-88c-0.1-13.3-0.2-27-0.2-40.5
				c0-14.4-0.5-139.5-1-155.5C8,212,6.2,158.4,19.9,115.1l0.1-0.2c0.1-0.2,0.2-0.4,0.3-0.6C37.5,74.8,81.9,50,117.6,40
				s71.3-9.2,105.8-8.4c16.4,0.4,31.9,0.7,47.3,0c41.5-2,83.4-1.8,124-1.7c16.4,0.1,33.4,0.1,50,0c84.2-0.4,169.7-0.4,252.4-0.4
				h15.4c67.6,0,144.1,0,189,73.9c8.1,13.4,8.7,34.8,9.1,52.1c0.1,5.2,0.3,10.2,0.6,14.4c3.1,40.8,4.7,81.8,6,120
				c0.4,12.3,1.2,135.1,2.1,148.7c4.4,71.3,9.4,152.2-36.3,204.9C843,689.7,779.8,698,716.3,698z M614.4,688.7
				c14.9,0,30.8,0.6,47.5,1.2c78.1,3,166.6,6.3,216-50.7c44-50.7,39-130.1,34.7-200.1c-0.8-13.6-1.6-136.5-2.1-148.9
				c-1.3-38.1-2.9-79-6-119.7c-0.3-4.4-0.5-9.4-0.6-14.8c-0.4-16.4-1-36.9-8.2-48.8c-42.9-70.7-117.5-70.7-183.3-70.7H697
				c-82.7,0-168.2-0.1-252.4,0.4c-16.6,0.1-33.6,0-50,0c-40.5-0.1-82.3-0.3-123.7,1.7c-15.6,0.7-31.2,0.4-47.7,0
				c-34.1-0.8-69.2-1.6-103.9,8.1C85.1,56,42.7,79.6,26.3,117c0,0.1-0.1,0.2-0.1,0.2c-13.3,42.1-11.6,92.8-9.9,141.9
				c0.5,16.1,1.1,141.2,1,155.8c0,13.5,0.1,27.2,0.2,40.5c0.2,28.8,0.4,58.6-0.7,88.3c-1,27.7,0.2,67.9,22.2,97.7
				c32,43.6,91.2,45.7,143.5,47.6c4.3,0.2,8.6,0.3,12.8,0.5c14.3,0,29.2,0,45.6,0.1c26.9,0.1,54.3,0.3,80.8,0.4
				c92.2,0.6,187.6,1.1,281.5-1.1C606.8,688.8,610.6,688.7,614.4,688.7z"/>
		</g>
	</g>
	<g>
		<g>
			<path class="st0" d="M241,665.2c-29-0.5-58.1-1.4-87-3c-45.2-2.6-95.6-6.1-122.2-48.6C5.6,572.1,14.9,508.4,14.4,461.7
				c-0.9-73.1-8.2-262,5-334.3C29.6,72,63.7,33.8,118.5,18.7c37.6-10.5,77.2-7.9,115.8-8.3c154.4-1.9,308.8-2,463.2-1.9h14.9
				c48.4,0,99.9,3.7,142.6,28.9c52.2,30.8,51.2,80.3,54.5,134.4c1.9,31.7,3.2,63.5,4.3,95.3c2.1,63.2,13.7,240-7.4,301.4
				C880,645.6,805,664.3,732.3,667.2c-131,5.3-263.5-0.2-394.7-1.1C305.6,665.9,273.3,665.8,241,665.2z"/>
			<path d="M607.2,672.7c-50.8,0-101.6-0.9-151.5-1.7c-38.7-0.7-78.7-1.3-117.9-1.6c-6.4,0-12.8-0.1-19.3-0.1
				c-25.4-0.2-51.8-0.3-77.7-0.8c-33.3-0.6-61-1.5-87.1-3c-43.2-2.5-96.9-5.6-124.8-50.1C7.8,581.8,9.2,534.8,10.5,493.3
				c0.3-11.1,0.7-21.7,0.5-31.5c-0.2-17.1-0.8-34.9-1.3-52.1c-1.9-57.6-3.8-227.1,6.4-282.8c5.2-28.3,16.5-52.3,33.6-71.2
				c17.3-19,40.2-32.6,67.9-40.3C148.4,6.8,180.7,6.9,212,7c7.3,0,14.9,0.1,22.3,0c152.9-1.9,306.4-2,463.3-1.9h14.9
				c20.5,0,47.4,0.6,74,5.1c27.4,4.6,50.4,12.6,70.3,24.3c50.1,29.6,52.7,76.4,55.5,126c0.2,3.7,0.4,7.3,0.6,11.1
				c1.7,27.8,3.1,58.1,4.3,95.4c0.5,13.9,1.4,138.4,2.3,152.3c3.3,50.1,6.7,101.9-9.9,150.3c-12.3,36-36.4,62.6-71.4,79.1
				c-27.5,12.9-62,20.1-105.6,21.9C691.1,672.2,649.1,672.7,607.2,672.7z M241,661.9c25.9,0.4,52.1,0.6,77.6,0.8
				c6.4,0,12.8,0.1,19.3,0.1c39.2,0.3,79.3,0.9,118,1.6c90.9,1.5,184.8,3.2,276.5-0.5c42.7-1.7,76.4-8.7,103.1-21.2
				c33.8-16,56.1-40.6,68-75.2c16.2-47.2,12.8-98.3,9.6-147.7c-0.9-14-1.9-138.5-2.3-152.5c-1.3-37.3-2.6-67.5-4.3-95.2
				c-0.2-3.7-0.4-7.4-0.6-11.1c-2.8-49.8-5.2-92.8-52.2-120.6C811.4,15.4,761,12,712.8,12h-14.9c-156.8-0.1-310.3,0-463.2,1.9
				c-7.5,0.1-15.1,0.1-22.5,0c-30.8-0.1-62.6-0.2-92.5,8.2c-53.5,14.5-86.9,51.2-97,106c-10.1,55-8.2,224.1-6.3,281.4
				c0.6,17.2,1.1,35.1,1.3,52.2c0.1,10-0.2,20.6-0.5,31.8C16,534,14.6,580,34.6,611.8c11.5,18.3,28.6,30.6,52.3,37.8
				c21.8,6.6,47,8,67.3,9.2C180.2,660.3,207.8,661.3,241,661.9z"/>
		</g>
		<g>
			<path class="st1" d="M607.3,640c-150.4,2.8-301.8,0.8-451.6-7.8c-46.7-2.7-81-6.7-98.5-34.6C38,567.2,41.1,531.3,40.8,496.8
				c-0.7-78.4,1.4-156.9,1.6-235.3c0-23.7-0.8-47.5,0.1-71.2c0.7-19,6.5-38.6,6.5-57.4c7-37.6,31.7-65.9,67.5-79.3
				c31.9-11.9,65.1-10.8,98.4-12.1c35.7-1.4,71.4-2.5,107.2-2.9c74-1,148-1,222-0.8c52.2,0.2,104.3,0.8,156.4,2.1
				c47.9,1.2,96.6-2.1,139.4,23.2c49.5,29.2,39.7,104.5,41.3,153.2c2.8,50.4,3.4,101.1,5.1,151.6c1.7,49.5,7.5,100.9,0.9,150.2
				c-5.6,41.7-23.6,81.7-63,100.3c-45.2,21.3-98.2,18.6-147,19.9C653.9,639,630.6,639.6,607.3,640z"/>
			<path d="M607.3,642.8c-50.2,0-101.5-0.9-151-1.7c-38.9-0.7-78.9-1.3-118.3-1.6c-6.4,0-12.8-0.1-19.2-0.1
				c-25.4-0.2-51.7-0.3-77.4-0.8c-32.9-0.6-60.2-1.5-85.9-3c-47.7-2.7-82.8-6.9-101.2-36.1c-16.2-25.9-15-68-13.8-105.2
				c0.3-11.5,0.7-22.3,0.5-32.8c-0.2-17.4-0.8-35.3-1.4-52.6c-1.8-56.1-3.7-224,6-276.5c8.5-46,35.4-75.6,80-87.9h0.1
				c24.1-6.8,50.5-7.3,75.5-7.3c3.5,0,7.1,0,10.6,0c3.6,0,7.2,0,10.8,0c4.6,0,8.4,0,12.1-0.1c138.2-1.7,277.3-1.9,407.1-1.9
				c18.6,0,37.2,0,55.8,0h15c44.9,0,91.6,3.1,129.1,25.2c34.7,20.5,37.9,49,40.8,101.8c0.2,3.7,0.4,7.4,0.6,11.2
				c1.7,27.5,3,57.6,4.3,94.6c0.5,14.4,1.4,139.1,2.4,153.2c3.2,49.3,6.3,95.9-8.3,138.6c-9.7,28.4-28,48.6-55.8,61.7
				c-23.8,11.2-54.5,17.4-94.1,19C693.9,642,653.3,642.8,607.3,642.8z M201.2,43.7c-24.5,0-50.4,0.5-73.7,7.1h-0.1
				c-41.9,11.6-67.2,39.4-75.2,82.7c-9.5,51.8-7.7,219.3-5.9,275c0.6,17.4,1.1,35.4,1.4,52.8c0.1,10.6-0.2,21.5-0.5,33.1
				c-1.1,36.2-2.3,77.3,12.8,101.5c16.6,26.5,50.2,30.4,95.9,33c25.6,1.5,52.9,2.4,85.7,3c25.7,0.4,51.9,0.6,77.3,0.8
				c6.5,0,12.9,0.1,19.3,0.1c39.4,0.3,79.5,0.9,118.3,1.6c49.6,0.8,100.8,1.7,151,1.7c45.9,0,86.4-0.7,123.9-2.2
				c38.6-1.6,68.5-7.6,91.5-18.4c26.1-12.3,43.2-31.2,52.4-57.8c14.2-41.5,11.2-87.4,8-136c-0.9-14.3-1.9-139-2.4-153.5
				c-1.2-37-2.6-66.9-4.3-94.4c-0.2-3.8-0.4-7.5-0.6-11.2c-2.8-50.5-5.8-77.7-37.5-96.4C802.4,44.9,756.8,42,712.8,41.9h-15
				c-18.6,0-37.2,0-55.8,0c-129.7,0-268.8,0.2-407,1.9c-3.7,0-7.5,0.1-12.1,0.1c-3.6,0-7.2,0-10.8,0
				C208.3,43.7,204.8,43.7,201.2,43.7z"/>
		</g>
	</g>
</g>
<g>
	<g>
		<path class="st2" d="M811.6,582.8c-13.5,2.6-692.3,4.6-704.9-4.3c-11.2-7.8-9-25-9.3-36.9c-0.5-22-0.7-44.1,0.1-66.1
			c0.3-10.7,2.8-24.3,13.6-29.2c16.1-7.3,705.5-6.4,715.9,5.3c8.4,9.5,5.4,27.7,5.8,39.4c0.8,24.3,2,49.1-1.1,73.3
			c-0.4,3.4-1.2,7-3.3,9.8C824.8,578.8,818.7,581.4,811.6,582.8z"/>
		<path d="M512.8,588c-17.9,0-36,0-54,0c-67.1-0.1-163-0.5-238.6-1.7c-110.1-1.7-113.5-4.1-115.3-5.3c-10.8-7.6-10.7-22-10.6-33.6
			c0-2,0-3.9,0-5.7c-0.6-25.9-0.6-46.9,0.1-66.3c0.5-16.8,5.7-27.5,15.3-31.9c10.2-4.6,221.7-5.4,361.4-4.8
			c93.9,0.4,179.8,1.5,241.9,3c111.7,2.7,114.5,5.9,116.2,7.8c7.4,8.3,7,22,6.6,32.9c-0.1,3-0.2,5.9-0.1,8.4
			c0.1,2.4,0.2,4.9,0.2,7.3c0.7,21.9,1.5,44.5-1.4,66.4c-0.4,3.3-1.3,7.6-3.8,11.2c-3.6,4.9-9.7,8.2-18.6,9.9l-0.6-3l0.6,3
			C805.7,587,664.9,588,512.8,588z M108.3,575.9c9.4,3.4,141.3,5.6,353.3,6c179.9,0.3,342.5-0.9,349.4-2.1
			c7.2-1.4,12.2-3.9,14.8-7.5c1.8-2.4,2.4-5.7,2.7-8.3c2.8-21.5,2.1-43.8,1.4-65.4c-0.1-2.5-0.2-4.9-0.2-7.3c-0.1-2.7,0-5.7,0.1-8.8
			c0.3-10.3,0.6-21.9-4.9-28.4c-10.8-4.6-153.7-8.2-356.8-9c-187.3-0.8-347,1.1-355.8,4.3c-7.3,3.3-11.2,12.2-11.7,26.5
			c-0.7,19.2-0.7,40.2-0.1,65.9c0,1.9,0,3.8,0,5.9C100.4,558.1,100.3,570.1,108.3,575.9z M825.1,454.1L825.1,454.1L825.1,454.1z"/>
	</g>
	<g>
		<path d="M171.9,497l-8.1,1.5l-2.2-21.1c24.3-4.9,39.7-5.2,46.4-0.9c6.6,4.3,10.4,11.5,11.2,21.5c0.4,15.4-8.8,26.1-27.8,32.1
			l0.5,25.8l-11.5,0.9L171.9,497z M190.4,511.7c9.4-3.5,13.9-7.7,13.6-12.7c-0.5-3-1.7-4.9-3.6-5.8c-1.9-0.9-5.7-0.7-11.4,0.4
			L190.4,511.7z"/>
		<path d="M249.9,525.1c-1.9,0.6-3.9,1.1-6,1.5l-1.5,22.6l-10.1-0.2l-3-52.9l-7.2,0.6l-0.4-18.6c21.6-2.1,35.1-1,40.6,3.3
			s8.2,10.9,8.3,19.7c-0.5,8.5-4.1,15-11,19.6l13.5,21.7l-15.7,6.5L249.9,525.1z M244.4,510.4c8.4-2.2,12.7-5.5,12.8-9.9
			c-0.2-2.7-1.1-4.5-2.7-5.4c-1.6-0.9-5-1.1-10-0.6L244.4,510.4z"/>
		<path d="M291.4,479.4c1.9,1.3,2.9,3,3.1,5.1s-0.4,4-2,5.7s-3.6,2.7-6,3s-4.5-0.2-6.4-1.5s-2.9-3-3.1-5.1s0.5-4,2-5.7
			c1.6-1.7,3.6-2.7,6-3S289.6,478.1,291.4,479.4z M278.5,498.8l14.8,1.2l1.4,47.5l-15.5,0.3L278.5,498.8z"/>
		<path d="M341.4,479.2l-14.6,66.3l-13.2,1.3l-18.8-66.5l15.9-3.7l7,41.1l13.7-40.2L341.4,479.2z"/>
		<path d="M355.9,538.6l-2.5,7.4l-9.9-1.7l1.4-6.4l-6.5-0.4l-1.3-6.7l10-2.8l11-50l13.2-1.3l18.8,66.5l-15.9,3.7l-1.2-7.2
			L355.9,538.6z M369.9,521.6l-2.7-15.9l-6.3,18.4L369.9,521.6z"/>
		<path d="M390.1,494.1v-17.3l56.5-4.4l-0.5,18.7l-21.8,1.9l4,52.5l-19.9,2.9l1.1-55.1L390.1,494.1z"/>
		<path d="M496.1,512.1l10,11.4c-6.3,10-15.3,15.1-26.9,15.1c-18.5,0-27.8-9.2-28-27.7c0.1-20.2,8.4-30.3,24.9-30.4
			c13.1,0.3,20.8,6.5,23.2,18.7l-23.8,21.1C485,521.5,491.9,518.8,496.1,512.1z M467.5,514.2l17.1-14.7c-5.2-5-10.5-5.5-15.8-1.5
			C464,503,463.6,508.4,467.5,514.2z"/>
		<path d="M570.7,516.4l-4.5,29.4l-13.1,2.1L531,482.7l15.7-4.6l9,40.6l6.9-41.1l10.5-0.7l12,41.2l5.5-48.2l16.1,2.8L594.1,547
			l-13.3-0.6L570.7,516.4z"/>
		<path d="M655.6,512.1l10,11.4c-6.3,10-15.3,15.1-26.9,15.1c-18.5,0-27.8-9.2-28-27.7c0.1-20.2,8.4-30.3,24.9-30.4
			c13.1,0.3,20.8,6.5,23.2,18.7L635,520.3C644.6,521.5,651.5,518.8,655.6,512.1z M627,514.2l17.1-14.7c-5.2-5-10.5-5.5-15.8-1.5
			C623.6,503,623.1,508.4,627,514.2z"/>
		<path d="M713,512.1l10,11.4c-6.3,10-15.3,15.1-26.9,15.1c-18.5,0-27.8-9.2-28-27.7c0.1-20.2,8.4-30.3,24.9-30.4
			c13.1,0.3,20.8,6.5,23.2,18.7l-23.8,21.1C701.9,521.5,708.9,518.8,713,512.1z M684.4,514.2l17.1-14.7c-5.2-5-10.5-5.5-15.8-1.5
			C680.9,503,680.5,508.4,684.4,514.2z"/>
		<path d="M726.4,473.8l16.3,2.2l-3.3,52.5l28.2-3.2l1.3,22.1l-45.2,1.9L726.4,473.8z"/>
	</g>
</g>
<g>
	<g>
		<path class="st3" d="M249.9,240.3c-13.5,2.6-130.6,4.6-143.2-4.3c-11.2-7.8-9-25-9.3-36.9c-0.5-22-0.7-44.1,0.1-66.1
			c0.3-10.7,2.8-24.3,13.6-29.2c16.1-7.3,143.8-6.4,154.2,5.3c8.4,9.5,5.4,27.7,5.8,39.4c0.8,24.3,2,49.1-1.1,73.3
			c-0.4,3.4-1.2,7-3.3,9.8C263.1,236.3,257,238.9,249.9,240.3z"/>
		<path d="M187.9,245.6c-3.4,0-6.7,0-10,0c-42.4-0.4-67-2.7-73-7c-10.8-7.6-10.7-22-10.6-33.6c0-2,0-3.9,0-5.7
			c-0.6-25.9-0.6-46.9,0.1-66.3c0.5-16.8,5.7-27.5,15.3-31.9c9.4-4.3,48.4-5.5,80.6-4.8c25.7,0.6,70,2.7,77.2,10.8
			c7.4,8.3,7,22,6.6,32.9c-0.1,3-0.2,5.9-0.1,8.4c0.1,2.4,0.2,4.9,0.2,7.3c0.7,21.9,1.5,44.5-1.4,66.4c-0.4,3.3-1.3,7.6-3.8,11.2
			c-3.6,4.9-9.7,8.2-18.6,9.9l0,0C243.7,244.6,216,245.6,187.9,245.6z M173,102.3c-29.7,0-54.9,1.7-60.7,4.4
			C105,110,101,119,100.5,133.2c-0.7,19.2-0.7,40.2-0.1,65.9c0,1.9,0,3.8,0,5.9c-0.1,10.7-0.2,22.9,8,28.6
			c3.7,2.6,23.9,5.5,69.5,5.9c33.1,0.3,64.9-0.9,71.3-2.1l0,0c7.2-1.4,12.2-3.9,14.8-7.5c1.8-2.4,2.4-5.7,2.7-8.3
			c2.8-21.5,2.1-43.8,1.4-65.4c-0.1-2.5-0.2-4.9-0.2-7.3c-0.1-2.7,0-5.7,0.1-8.8c0.3-10.4,0.6-22.2-5.1-28.7
			c-3.1-3.5-27.2-7.7-72.7-8.7C184.4,102.3,178.6,102.3,173,102.3z"/>
	</g>
	<g>
		<path d="M173.3,187l-0.5-8.7l17.3-5.7l-0.6,54.5l-9.5-3.8l-0.2-38L173.3,187z"/>
		<path d="M132.8,153.6l-2.8,18.1l-8,1.3l-13.6-40.2l9.7-2.9l5.6,25l4.2-25.3l6.5-0.4l7.4,25.4l3.4-29.7l9.9,1.7l-7.9,45.8l-8.2-0.3
			L132.8,153.6z"/>
		<path d="M185.1,150.9l6.1,7c-3.9,6.2-9.4,9.3-16.6,9.3c-11.4,0-17.1-5.7-17.3-17.1c0.1-12.4,5.2-18.7,15.4-18.7
			c8.1,0.2,12.8,4,14.3,11.5l-14.7,13C178.3,156.7,182.5,155.1,185.1,150.9z M167.5,152.2l10.6-9c-3.2-3.1-6.5-3.4-9.7-1
			C165.4,145.3,165.1,148.6,167.5,152.2z"/>
		<path d="M220.4,150.9l6.1,7c-3.9,6.2-9.4,9.3-16.6,9.3c-11.4,0-17.1-5.7-17.3-17.1c0.1-12.4,5.2-18.7,15.4-18.7
			c8.1,0.2,12.8,4,14.3,11.5l-14.7,13C213.6,156.7,217.9,155.1,220.4,150.9z M202.8,152.2l10.6-9c-3.2-3.1-6.5-3.4-9.7-1
			C200.7,145.3,200.4,148.6,202.8,152.2z"/>
		<path d="M228.7,127.3l10.1,1.3l-2,32.3l17.4-1.9l0.8,13.6l-27.9,1.2L228.7,127.3z"/>
	</g>
</g>
<g>
	<g>
		<path class="st2" d="M437.1,240.3c-13.5,2.6-130.6,4.6-143.2-4.3c-11.2-7.8-9-25-9.3-36.9c-0.5-22-0.7-44.1,0.1-66.1
			c0.3-10.7,2.8-24.3,13.6-29.2c16.1-7.3,143.8-6.4,154.2,5.3c8.4,9.5,5.4,27.7,5.8,39.4c0.8,24.3,2,49.1-1.1,73.3
			c-0.4,3.4-1.2,7-3.3,9.8C450.4,236.3,444.2,238.9,437.1,240.3z"/>
		<path d="M375.2,245.6c-3.4,0-6.7,0-10,0c-42.4-0.4-67-2.7-73-7c-10.8-7.6-10.7-22-10.6-33.6c0-2,0-3.9,0-5.7
			c-0.6-25.9-0.6-46.9,0.1-66.3c0.5-16.8,5.7-27.5,15.3-31.9c9.4-4.3,48.4-5.5,80.6-4.8c25.7,0.6,70,2.7,77.2,10.8
			c7.4,8.3,7,22,6.6,32.9c-0.1,3-0.2,5.9-0.1,8.4c0.1,2.4,0.2,4.9,0.2,7.3c0.7,21.9,1.5,44.5-1.4,66.4c-0.4,3.3-1.3,7.6-3.8,11.2
			c-3.6,4.9-9.7,8.2-18.6,9.9l0,0C431,244.6,403.2,245.6,375.2,245.6z M360.2,102.3c-29.7,0-54.9,1.7-60.7,4.4
			c-7.3,3.3-11.3,12.3-11.8,26.5c-0.7,19.2-0.7,40.2-0.1,65.9c0,1.9,0,3.8,0,5.9c-0.1,10.7-0.2,22.9,8,28.6
			c3.7,2.6,23.8,5.5,69.5,5.9c33.1,0.3,64.9-0.9,71.3-2.1c7.2-1.4,12.2-3.9,14.8-7.5c1.8-2.4,2.4-5.7,2.7-8.3
			c2.8-21.5,2.1-43.8,1.4-65.4c-0.1-2.5-0.2-4.9-0.2-7.3c-0.1-2.7,0-5.7,0.1-8.8c0.3-10.4,0.6-22.2-5.1-28.7
			c-3.1-3.5-27.2-7.7-72.7-8.7C371.6,102.3,365.8,102.3,360.2,102.3z"/>
	</g>
	<path d="M381.4,181.7c7.9,12.1,7.6,20.9-1,26.4c-9.3,5.3-13.6,9.6-12.8,12.8l18.4-3l-2,13.4l-27.3,0.2l-1.3-8.5
		c-0.8-4.4,0.5-8.2,3.9-11.2c3.2-3.8,7.5-7.1,12.9-10c4.9-3.4,5.7-7.6,2.6-12.5c-3.4-3.7-8.5-3.2-15.2,1.6l-6-7.1
		C367.4,173.6,376.6,172.9,381.4,181.7z"/>
	<path d="M320.1,153.6l-2.8,18.1l-8.1,1.3l-13.6-40.2l9.7-2.9l5.6,25l4.2-25.3l6.5-0.4l7.4,25.4l3.4-29.7l9.9,1.7l-7.9,45.8
		l-8.2-0.3L320.1,153.6z"/>
	<path d="M372.3,150.9l6.1,7c-3.9,6.2-9.4,9.3-16.6,9.3c-11.4,0-17.1-5.7-17.3-17.1c0.1-12.4,5.2-18.7,15.4-18.7
		c8.1,0.2,12.8,4,14.3,11.5l-14.7,13C365.5,156.7,369.8,155.1,372.3,150.9z M354.7,152.2l10.6-9c-3.2-3.1-6.5-3.4-9.7-1
		C352.6,145.3,352.3,148.6,354.7,152.2z"/>
	<path d="M407.6,150.9l6.1,7c-3.9,6.2-9.4,9.3-16.6,9.3c-11.4,0-17.1-5.7-17.3-17.1c0.1-12.4,5.2-18.7,15.4-18.7
		c8.1,0.2,12.8,4,14.3,11.5l-14.7,13C400.9,156.7,405.1,155.1,407.6,150.9z M390,152.2l10.6-9c-3.2-3.1-6.5-3.4-9.7-1
		C387.9,145.3,387.6,148.6,390,152.2z"/>
	<path d="M415.9,127.3l10.1,1.3l-2,32.3l17.4-1.9l0.8,13.6l-27.9,1.2L415.9,127.3z"/>
</g>
<g>
	<g>
		<path class="st2" d="M624.3,240.3c-13.5,2.6-130.6,4.6-143.2-4.3c-11.2-7.8-9-25-9.3-36.9c-0.5-22-0.7-44.1,0.1-66.1
			c0.3-10.7,2.8-24.3,13.6-29.2c16.1-7.3,143.8-6.4,154.2,5.3c8.4,9.5,5.4,27.7,5.8,39.4c0.8,24.3,2,49.1-1.1,73.3
			c-0.4,3.4-1.2,7-3.3,9.8C637.6,236.3,631.5,238.9,624.3,240.3z"/>
		<path d="M562.4,245.6c-3.4,0-6.7,0-10,0c-42.4-0.4-67-2.7-73-7c-10.8-7.6-10.7-22-10.6-33.6c0-2,0-3.9,0-5.7
			c-0.6-25.9-0.6-46.9,0.1-66.3c0.5-16.8,5.7-27.5,15.3-31.9c9.4-4.3,48.4-5.5,80.6-4.8c25.7,0.6,70,2.7,77.2,10.8
			c7.4,8.3,7,22,6.6,32.9c-0.1,3-0.2,5.9-0.1,8.4c0.1,2.4,0.2,4.9,0.2,7.3c0.7,21.9,1.5,44.5-1.4,66.4c-0.4,3.3-1.3,7.6-3.8,11.2
			c-3.6,4.9-9.7,8.2-18.6,9.9l0,0C618.2,244.6,590.4,245.6,562.4,245.6z M547.5,102.3c-29.7,0-54.9,1.7-60.7,4.4
			c-7.3,3.3-11.3,12.3-11.8,26.5c-0.7,19.2-0.7,40.2-0.1,65.9c0,1.9,0,3.8,0,5.9c-0.1,10.7-0.2,22.9,8,28.6
			c3.7,2.6,23.8,5.5,69.5,5.9c33.1,0.3,64.9-0.9,71.3-2.1l0,0c7.2-1.4,12.2-3.9,14.8-7.5c1.8-2.4,2.4-5.7,2.7-8.3
			c2.8-21.5,2.1-43.8,1.4-65.4c-0.1-2.5-0.2-4.9-0.2-7.3c-0.1-2.7,0-5.7,0.1-8.8c0.3-10.4,0.6-22.2-5.1-28.7
			c-3.1-3.5-27.2-7.7-72.7-8.7C558.8,102.3,553.1,102.3,547.5,102.3z"/>
	</g>
	<path d="M545.2,209.1c-0.2,0-0.4,0.1-0.7,0.1l0.1-13.2l10.7,0.2c5.9,0.4,8.8-1,8.6-4.1c-0.3-1.8-1.1-3-2.3-3.6s-7.2-0.1-18,1.3
		L542,178c12.1-2.5,20.3-2.5,24.4,0.2c4.1,2.7,6.5,7.1,7,13.3c0.2,5.3-2.7,9.5-8.6,12.5c5.6,1.6,8.7,4.9,9.1,10
		c0.9,9.2-3.3,14.2-12.4,14.8l-16.1,1.3l-0.1-11l14.8,0.6c3.5-0.6,5.3-2.4,5.3-5.4c-0.2-3.3-7-4.9-20.4-4.6L545.2,209.1z"/>
	<path d="M507.3,153.6l-2.8,18.1l-8.1,1.3l-13.6-40.2l9.7-2.9l5.6,25l4.2-25.3l6.5-0.4l7.4,25.4l3.4-29.7l9.9,1.7l-7.9,45.8
		l-8.2-0.3L507.3,153.6z"/>
	<path d="M559.6,150.9l6.1,7c-3.9,6.2-9.4,9.3-16.6,9.3c-11.4,0-17.1-5.7-17.3-17.1c0.1-12.4,5.2-18.7,15.4-18.7
		c8.1,0.2,12.8,4,14.3,11.5l-14.7,13C552.8,156.7,557,155.1,559.6,150.9z M541.9,152.2l10.6-9c-3.2-3.1-6.5-3.4-9.7-1
		C539.8,145.3,539.6,148.6,541.9,152.2z"/>
	<path d="M594.9,150.9l6.1,7c-3.9,6.2-9.4,9.3-16.6,9.3c-11.4,0-17.1-5.7-17.3-17.1c0.1-12.4,5.2-18.7,15.4-18.7
		c8.1,0.2,12.8,4,14.3,11.5l-14.7,13C588.1,156.7,592.3,155.1,594.9,150.9z M577.3,152.2l10.6-9c-3.2-3.1-6.5-3.4-9.7-1
		C575.2,145.3,574.9,148.6,577.3,152.2z"/>
</g>
<path d="M603.1,127.3l10.1,1.3l-2,32.3l17.4-1.9l0.8,13.6l-27.9,1.2L603.1,127.3z"/>
<g>
	<g>
		<path class="st2" d="M811.6,240.3c-13.5,2.6-130.6,4.6-143.2-4.3c-11.2-7.8-9-25-9.3-36.9c-0.5-22-0.7-44.1,0.1-66.1
			c0.3-10.7,2.8-24.3,13.6-29.2c16.1-7.3,143.8-6.4,154.2,5.3c8.4,9.5,5.4,27.7,5.8,39.4c0.8,24.3,2,49.1-1.1,73.3
			c-0.4,3.4-1.2,7-3.3,9.8C824.8,236.3,818.7,238.9,811.6,240.3z"/>
		<path d="M749.7,245.6c-3.4,0-6.7,0-10,0c-42.4-0.4-67-2.7-73-7c-10.8-7.6-10.7-22-10.6-33.6c0-2,0-3.9,0-5.7
			c-0.6-25.9-0.6-46.9,0.1-66.3c0.5-16.8,5.7-27.5,15.3-31.9c9.4-4.3,48.4-5.5,80.6-4.8c25.7,0.6,70,2.7,77.2,10.8
			c7.4,8.3,7,22,6.6,32.9c-0.1,3-0.2,5.9-0.1,8.4c0.1,2.4,0.2,4.9,0.2,7.3c0.7,21.9,1.5,44.5-1.4,66.4c-0.4,3.3-1.3,7.6-3.8,11.2
			c-3.6,4.9-9.7,8.2-18.6,9.9l0,0C805.4,244.6,777.7,245.6,749.7,245.6z M734.7,102.3c-29.7,0-54.9,1.7-60.7,4.4
			c-7.3,3.3-11.3,12.3-11.8,26.5c-0.7,19.2-0.7,40.2-0.1,65.9c0,1.9,0,3.8,0,5.9c-0.1,10.7-0.2,22.9,8,28.6
			c3.7,2.6,23.9,5.5,69.5,5.9c33.1,0.3,64.9-0.9,71.3-2.1l0,0c7.2-1.4,12.2-3.9,14.8-7.5c1.8-2.4,2.4-5.7,2.7-8.3
			c2.8-21.5,2.1-43.8,1.4-65.4c-0.1-2.5-0.2-4.9-0.2-7.3c-0.1-2.7,0-5.7,0.1-8.8c0.3-10.4,0.6-22.2-5.1-28.7
			c-3.1-3.5-27.2-7.7-72.7-8.7C746.1,102.3,740.3,102.3,734.7,102.3z"/>
	</g>
	<path d="M759.1,214.2l-0.8,16.7l-11.1-0.8l1-17.2l-19.4-2.7l-0.5-35.6l10.5,0.7l0.8,26.4l9.1,3l1.1-19.2l10.5,1.4l-1,21.4l5.6,1.8
		l-0.5,4.8L759.1,214.2z"/>
	<path d="M694.5,153.6l-2.8,18.1l-8.1,1.3L670,132.8l9.7-2.9l5.6,25l4.2-25.3l6.5-0.4l7.4,25.4l3.4-29.7l9.9,1.7l-7.9,45.8l-8.2-0.3
		L694.5,153.6z"/>
	<path d="M746.8,150.9l6.1,7c-3.9,6.2-9.4,9.3-16.6,9.3c-11.4,0-17.1-5.7-17.3-17.1c0.1-12.4,5.2-18.7,15.4-18.7
		c8.1,0.2,12.8,4,14.3,11.5L734,156C740,156.7,744.3,155.1,746.8,150.9z M729.2,152.2l10.6-9c-3.2-3.1-6.5-3.4-9.7-1
		C727.1,145.3,726.8,148.6,729.2,152.2z"/>
	<path d="M782.1,150.9l6.1,7c-3.9,6.2-9.4,9.3-16.6,9.3c-11.4,0-17.1-5.7-17.3-17.1c0.1-12.4,5.2-18.7,15.4-18.7
		c8.1,0.2,12.8,4,14.3,11.5l-14.7,13C775.3,156.7,779.6,155.1,782.1,150.9z M764.5,152.2l10.6-9c-3.2-3.1-6.5-3.4-9.7-1
		C762.4,145.3,762.1,148.6,764.5,152.2z"/>
	<path d="M790.4,127.3l10.1,1.3l-2,32.3l17.4-1.9l0.8,13.6l-27.9,1.2L790.4,127.3z"/>
</g>
<g>
	<g>
		<path class="st2" d="M811.6,411.5c-13.5,2.6-692.3,4.6-704.9-4.3c-11.2-7.8-9-25-9.3-36.9c-0.5-22-0.7-44.1,0.1-66.1
			c1.5-42.1,54.1-31.8,84.4-32.4c35.4-0.7,70.8-1,106.2-1.2c89.9-0.5,179.7-0.3,269.6,0.5c62.1,0.6,124.3,1.3,186.4,3.3
			c14,0.4,72.2-5.9,82.8,5.9c8.4,9.5,5.4,27.7,5.8,39.4c0.8,24.3,2,49.1-1.1,73.3c-0.4,3.4-1.2,7-3.3,9.8
			C824.8,407.5,818.7,410.1,811.6,411.5z"/>
		<path d="M512.8,416.8c-17.9,0-36,0-54,0c-67.1-0.1-163-0.5-238.6-1.7c-110.1-1.7-113.5-4.1-115.3-5.3c-10.8-7.6-10.7-22-10.6-33.6
			c0-2,0-3.9,0-5.7c-0.6-25.9-0.6-46.9,0.1-66.3c0.5-16.8,5.7-27.5,15.3-31.9c10.2-4.6,221.7-5.4,361.4-4.8
			c93.9,0.4,179.8,1.5,241.9,3c111.7,2.7,114.5,5.9,116.2,7.8c7.4,8.3,7,22,6.6,32.9c-0.1,3-0.2,5.9-0.1,8.4
			c0.1,2.4,0.2,4.9,0.2,7.3c0.7,21.9,1.5,44.5-1.4,66.4c-0.4,3.3-1.3,7.6-3.8,11.2c-3.6,4.9-9.7,8.2-18.6,9.9l-0.6-3l0.6,3
			C805.7,415.8,664.9,416.8,512.8,416.8z M108.3,404.6c9.4,3.4,141.3,5.6,353.3,6c179.9,0.3,342.5-0.9,349.4-2.1
			c7.2-1.4,12.2-3.9,14.8-7.5c1.8-2.4,2.4-5.7,2.7-8.3c2.8-21.5,2.1-43.8,1.4-65.4c-0.1-2.5-0.2-4.9-0.2-7.3c-0.1-2.7,0-5.7,0.1-8.8
			c0.3-10.3,0.6-21.9-4.9-28.4c-10.8-4.6-153.7-8.2-356.8-9c-187.3-0.8-347,1.1-355.8,4.3c-7.3,3.3-11.2,12.2-11.7,26.5
			c-0.7,19.2-0.7,40.2-0.1,65.9c0,1.9,0,3.8,0,5.9C100.4,386.8,100.3,398.9,108.3,404.6z M825.1,282.8L825.1,282.8L825.1,282.8z"/>
	</g>
	<g>
		<path d="M131.7,369.1L140,358c9.1,5.8,15.9,6.5,20.4,1.9c4-4.3,2.1-9.1-5.9-14.4c-7.2-3.5-13-7.5-17.3-12.2
			c-4.5-3.7-4.9-9.6-1.1-17.6c4.7-5.8,12.3-7.6,22.8-5.4c7.8,1.6,13.7,4.9,17.8,10l-6.3,9.2c-10-6.8-16.9-9.1-20.9-6.9
			c-1.8,3.6,3.6,8.7,16.1,15.2c12.9,7.9,14,19.2,3.4,33.9C161.3,381.1,148.8,380.3,131.7,369.1z"/>
		<path d="M184.3,330.8l-7.7,1.3l-2.1-18.3c23.1-4.2,37.8-4.5,44.1-0.7c6.3,3.7,9.8,9.9,10.7,18.6c0.4,13.3-8.4,22.6-26.4,27.7
			l0.4,22.3l-10.9,0.8L184.3,330.8z M201.9,343.4c8.9-3,13.2-6.7,12.9-11c-0.5-2.6-1.6-4.3-3.5-5c-1.8-0.8-5.5-0.6-10.9,0.4
			L201.9,343.4z"/>
		<path d="M273.2,325.8c5.2,5,7.8,11.1,7.8,18.2s-2.6,13.2-7.8,18.3c-5.2,5-11.5,7.6-18.9,7.6s-13.7-2.5-18.9-7.6
			c-5.2-5-7.8-11.1-7.8-18.3c0-7.1,2.6-13.2,7.8-18.2s11.5-7.6,18.9-7.6C261.6,318.2,267.9,320.7,273.2,325.8z M269.2,342
			c-1.6,1.5-3.6,2.3-5.8,2.3c-2.3,0-4.2-0.8-5.8-2.3c-1.6-1.5-2.4-3.3-2.4-5.5c0-2.1,0.8-3.9,2.4-5.4s3.5-2.2,5.8-2.2
			c0.4,0,0.9,0,1.2,0.1c-1.8-0.9-3.7-1.3-5.8-1.3c-3.5,0-6.6,1.2-9.1,3.7c-2.5,2.4-3.8,5.4-3.8,8.8s1.2,6.4,3.8,8.8
			c2.5,2.4,5.5,3.6,9.1,3.6s6.6-1.2,9.1-3.6s3.8-5.4,3.8-8.8c0-0.7,0-1.4-0.1-2C271.1,339.6,270.4,340.9,269.2,342z"/>
		<path d="M280,371.9l1.2-49.5l-3.8-0.2V314l16.4,0.7l11.9,32.3l2.5-35.5L321,310l-4.4,72.2l-13.4-2.5l-11.1-31.9v25.4L280,371.9z"
			/>
		<path d="M319,369.1l8.3-11.1c9.1,5.8,15.9,6.5,20.4,1.9c4-4.3,2.1-9.1-5.9-14.4c-7.2-3.5-13-7.5-17.3-12.2
			c-4.5-3.7-4.9-9.6-1.1-17.6c4.7-5.8,12.3-7.6,22.8-5.4c7.8,1.6,13.7,4.9,17.8,10l-6.3,9.2c-10-6.8-16.9-9.1-20.9-6.9
			c-1.8,3.6,3.6,8.7,16.1,15.2c12.9,7.9,14,19.2,3.4,33.9C348.5,381.1,336.1,380.3,319,369.1z"/>
		<path d="M408.6,325.8c5.2,5,7.8,11.1,7.8,18.2s-2.6,13.2-7.8,18.3c-5.2,5-11.5,7.6-18.9,7.6s-13.7-2.5-18.9-7.6
			c-5.2-5-7.8-11.1-7.8-18.3c0-7.1,2.6-13.2,7.8-18.2c5.2-5,11.5-7.6,18.9-7.6C397.1,318.2,403.4,320.7,408.6,325.8z M404.7,342
			c-1.6,1.5-3.6,2.3-5.8,2.3c-2.3,0-4.2-0.8-5.8-2.3c-1.6-1.5-2.4-3.3-2.4-5.5c0-2.1,0.8-3.9,2.4-5.4s3.5-2.2,5.8-2.2
			c0.4,0,0.9,0,1.2,0.1c-1.8-0.9-3.7-1.3-5.8-1.3c-3.5,0-6.6,1.2-9.1,3.7c-2.5,2.4-3.8,5.4-3.8,8.8s1.2,6.4,3.8,8.8
			c2.5,2.4,5.5,3.6,9.1,3.6s6.6-1.2,9.1-3.6s3.8-5.4,3.8-8.8c0-0.7,0-1.4-0.1-2C406.6,339.6,405.9,340.9,404.7,342z"/>
		<path d="M441.8,355c-1.8,0.5-3.7,1-5.7,1.3l-1.4,19.5l-9.6-0.2l-2.9-45.7l-6.9,0.5l-0.4-16.1c20.5-1.8,33.4-0.9,38.6,2.9
			c5.2,3.7,7.8,9.4,7.9,17.1c-0.4,7.3-3.9,13-10.5,16.9l12.8,18.7l-14.9,5.6L441.8,355z M436.6,342.3c8-1.9,12.1-4.7,12.2-8.6
			c-0.2-2.3-1.1-3.8-2.6-4.7c-1.5-0.8-4.7-1-9.5-0.5L436.6,342.3z"/>
		<path d="M506.3,343.8l9.5,9.8c-6,8.7-14.6,13-25.6,13c-17.6,0-26.5-8-26.7-23.9c0.1-17.5,8-26.2,23.7-26.2
			c12.5,0.2,19.8,5.6,22.1,16.1l-22.6,18.3C495.8,351.9,502.4,349.6,506.3,343.8z M479.1,345.6l16.3-12.7c-5-4.3-10-4.7-15-1.3
			C475.9,335.9,475.4,340.5,479.1,345.6z"/>
		<path d="M515.8,380.7l-1.5-65.5c26.6-3.9,41.4,5.6,44.3,28.5C560.7,366.9,546.4,379.2,515.8,380.7z M528.5,363.1
			c12.7-1.1,17.9-7.7,15.5-19.5c-1.9-11.3-7.5-16.5-16.6-15.3L528.5,363.1z"/>
		<path d="M611.9,347.5l-4.3,25.4l-12.5,1.8l-21-56.4l15-4l8.6,35.1l6.5-35.5l10-0.6l11.4,35.6l5.3-41.7l15.3,2.4l-12.1,64.3
			l-12.6-0.5L611.9,347.5z"/>
		<path d="M688.2,343.8l9.5,9.8c-6,8.7-14.6,13-25.6,13c-17.6,0-26.5-8-26.7-23.9c0.1-17.5,8-26.2,23.7-26.2
			c12.5,0.2,19.8,5.6,22.1,16.1l-22.6,18.3C677.7,351.9,684.3,349.6,688.2,343.8z M661,345.6l16.3-12.7c-5-4.3-10-4.7-15-1.3
			C657.7,335.9,657.3,340.5,661,345.6z"/>
		<path d="M738.3,343.8l9.5,9.8c-6,8.7-14.6,13-25.6,13c-17.6,0-26.5-8-26.7-23.9c0.1-17.5,8-26.2,23.7-26.2
			c12.5,0.2,19.8,5.6,22.1,16.1l-22.6,18.3C727.8,351.9,734.4,349.6,738.3,343.8z M711.1,345.6l16.3-12.7c-5-4.3-10-4.7-15-1.3
			C707.8,335.9,707.4,340.5,711.1,345.6z"/>
		<path d="M746.6,310.6l15.5,1.9l-3.1,45.3l26.9-2.7l1.2,19.1l-43,1.7L746.6,310.6z"/>
	</g>
</g>
</svg>
