<?xml version="1.0" encoding="utf-8"?>
<!-- Generator: Adobe Illustrator 28.0.0, SVG Export Plug-In . SVG Version: 6.00 Build 0)  -->
<svg version="1.1" id="Layer_1" xmlns="http://www.w3.org/2000/svg" xmlns:xlink="http://www.w3.org/1999/xlink" x="0px" y="0px"
	 viewBox="0 0 1000 1000" style="enable-background:new 0 0 1000 1000;" xml:space="preserve">
<style type="text/css">
	.st0{fill:#FFFFFF;stroke:#000000;stroke-width:4;stroke-miterlimit:10;}
	.st1{fill:#3BB9FF;stroke:#000000;stroke-width:4;stroke-miterlimit:10;}
	.st2{fill:#FF7826;stroke:#000000;stroke-width:4;stroke-miterlimit:10;}
	.st3{fill:#80EA5C;stroke:#000000;stroke-width:4;stroke-miterlimit:10;}
	.st4{fill:#FF4747;stroke:#000000;stroke-width:4;stroke-miterlimit:10;}
	.st5{fill:#FF75C0;stroke:#000000;stroke-width:4;stroke-miterlimit:10;}
	.st6{fill:#AA79DA;stroke:#000000;stroke-width:4;stroke-miterlimit:10;}
	.st7{fill:#73FBFB;stroke:#000000;stroke-width:4;stroke-miterlimit:10;}
	.st8{fill:#446CD0;stroke:#000000;stroke-width:4;stroke-miterlimit:10;}
	.st9{fill:#FFF100;stroke:#000000;stroke-width:4;stroke-miterlimit:10;}
	.st10{fill:#C85AC1;stroke:#000000;stroke-width:4;stroke-miterlimit:10;}
</style>
<g>
	<g>
		<polygon class="st0" points="500,505.9 500,505.9 500,505.9 		"/>
		<path class="st1" d="M500,505.9L500,505.9h342.4c0-75.2-24.3-144.8-65.4-201.3L500,505.9L500,505.9z"/>
		<rect x="500" y="505.9" class="st0" width="0" height="0"/>
		<polygon class="st0" points="500,505.9 500,505.9 500,505.9 		"/>
		<polygon class="st0" points="500,505.9 500,505.9 500,505.9 		"/>
		<path class="st2" d="M777,304.6c-42.1-57.8-101.7-101.9-171.2-124.4L500,505.9L777,304.6z"/>
		<polygon class="st0" points="500,505.9 500,505.9 500,505.9 		"/>
		<path class="st3" d="M500,505.9l105.8,325.7C675.3,809,734.9,764.9,777,707.1L500,505.9L500,505.9z"/>
		<path class="st4" d="M394.2,831.6c33.3,10.8,68.9,16.7,105.8,16.7s72.5-5.9,105.8-16.7L500,505.9L394.2,831.6z"/>
		<path class="st5" d="M500,505.9l277,201.3c41.1-56.5,65.4-126,65.4-201.3H500z"/>
		<path class="st6" d="M500,505.9L500,505.9l105.8-325.7c-33.3-10.8-68.9-16.7-105.8-16.7s-72.5,5.9-105.8,16.7L500,505.9L500,505.9
			z"/>
		<path class="st7" d="M500,505.9L223,707.1c42.1,57.8,101.7,101.9,171.2,124.4L500,505.9L500,505.9z"/>
		<path class="st8" d="M157.6,505.9c0,75.2,24.3,144.8,65.4,201.3l277-201.3H157.6z"/>
		<path class="st9" d="M394.2,180.2c-69.4,22.5-129.1,66.7-171.2,124.4l277,201.3L394.2,180.2z"/>
		<path class="st10" d="M500,505.9L500,505.9L223,304.6c-41.1,56.5-65.4,126-65.4,201.3H500L500,505.9z"/>
	</g>
</g>
</svg>
