<?xml version="1.0" encoding="UTF-8" standalone="no" ?>
<!DOCTYPE svg PUBLIC "-//W3C//DTD SVG 1.1//EN" "http://www.w3.org/Graphics/SVG/1.1/DTD/svg11.dtd">
<svg xmlns="http://www.w3.org/2000/svg" xmlns:xlink="http://www.w3.org/1999/xlink" version="1.1" width="1000" height="1000" viewBox="0 0 1000 1000" xml:space="preserve">
<desc>Created with Fabric.js 5.2.4</desc>
<defs>
</defs>
<rect x="0" y="0" width="100%" height="100%" fill="transparent"></rect>
<g transform="matrix(1 0 0 1 500 500)" id="a3c516b0-bf06-46b4-a3db-6af54adb0708"  >
<rect style="stroke: none; stroke-width: 1; stroke-dasharray: none; stroke-linecap: butt; stroke-dashoffset: 0; stroke-linejoin: miter; stroke-miterlimit: 4; fill: rgb(255,255,255); fill-rule: nonzero; opacity: 1; visibility: hidden;" vector-effect="non-scaling-stroke"  x="-500" y="-500" rx="0" ry="0" width="1000" height="1000" />
</g>
<g transform="matrix(Infinity NaN NaN Infinity 0 0)" id="da4116ff-7277-4652-bc04-c8681503141d"  >
</g>
<g transform="matrix(0.93 0 0 0.93 500 500)"  >
<g style="" vector-effect="non-scaling-stroke"   >
		<g transform="matrix(1 0 0 1 0 7.07)"  >
<path style="stroke: rgb(0,0,0); stroke-width: 3.3555; stroke-dasharray: none; stroke-linecap: butt; stroke-dashoffset: 0; stroke-linejoin: miter; stroke-miterlimit: 10; fill: rgb(251,180,41); fill-rule: nonzero; opacity: 1;" vector-effect="non-scaling-stroke"  transform=" translate(-500.02, -507.09)" d="M 508.4 856.1 C 490 855.7 471.7 853.7 454.59999999999997 851.2 C 378.79999999999995 839.8000000000001 306.79999999999995 808.1 249.79999999999995 756.4000000000001 C 191.59999999999997 703.5000000000001 152.89999999999995 630.8000000000001 147.89999999999995 551.7 C 146.99999999999994 536.7 147.19999999999996 521.6 148.49999999999994 506.6 C 150.39999999999995 449.40000000000003 162.49999999999994 396.6 184.29999999999995 349.70000000000005 C 205.59999999999997 304.00000000000006 235.49999999999994 265.20000000000005 273.19999999999993 234.30000000000004 C 351.79999999999995 169.90000000000003 458.69999999999993 145.10000000000002 574.1999999999999 164.40000000000003 L 575.0999999999999 164.60000000000002 C 628.4999999999999 177.90000000000003 677.4999999999999 201.10000000000002 716.6999999999999 231.70000000000002 C 775.9 277.8 812.3 346 837.0999999999999 415.5 C 851 454.5 856 494 850.5 535 C 846 568.5 837.1 601.4 823.9 632.6 C 811.6999999999999 661.6 801.1999999999999 691.6 782.6999999999999 717.4 C 759.8 749.4 726.3 772.3 693.3 792.6999999999999 C 658.6999999999999 814.0999999999999 620.8 834.3 582 846.9 C 559 854.3 533.6 856.6 508.4 856.1 z M 499.1 180.4 C 418 180.4 344.6 204.8 287.5 251.60000000000002 C 252.4 280.40000000000003 224.5 316.5 204.7 359.1 C 188 394.8 178 433.40000000000003 173.5 472.5 C 168.7 514.7 167.4 558.1 178.3 599.5 C 188.10000000000002 636.7 205.70000000000002 671.8 229.60000000000002 702 C 240.3 715.5 252.20000000000002 728.2 264.90000000000003 739.8 C 304.3 775.5999999999999 353.40000000000003 802.6999999999999 406.80000000000007 818.3 C 460.80000000000007 834 517.0000000000001 837.1999999999999 569.5 827.5 C 598.7 817.4 627 804.6 654.1 789.7 C 667.5 782.4000000000001 680.4 775.2 691.7 765 C 703.5 754.3 715.9000000000001 744 727.2 732.7 C 741.8000000000001 719.4000000000001 756.4000000000001 706.1 768.8000000000001 690.9000000000001 C 783.6 672.7 791.0000000000001 652.9000000000001 799.9000000000001 631.8000000000001 C 815.9000000000001 593.8000000000001 827.6000000000001 553.4000000000001 829.6000000000001 512.0000000000001 C 831.6000000000001 471.4000000000001 821.4000000000001 431.3000000000001 805.7000000000002 394.2000000000001 C 790.3000000000002 357.7000000000001 770.2000000000002 321.80000000000007 745.0000000000001 291.30000000000007 C 732.4000000000001 276.1000000000001 718.8000000000001 261.6000000000001 703.1000000000001 249.50000000000006 C 666.4000000000001 220.90000000000006 620.4000000000001 199.10000000000005 570.2000000000002 186.50000000000006 C 546 182.4 522.2 180.4 499.1 180.4 z" stroke-linecap="round" />
</g>
		<g transform="matrix(1 0 0 1 -0.07 7.04)"  >
<path style="stroke: rgb(0,0,0); stroke-width: 3.3555; stroke-dasharray: none; stroke-linecap: butt; stroke-dashoffset: 0; stroke-linejoin: miter; stroke-miterlimit: 10; fill: rgb(251,180,41); fill-rule: nonzero; opacity: 1;" vector-effect="non-scaling-stroke"  transform=" translate(-499.95, -507.06)" d="M 502.7 618.3 C 496.8 618.1999999999999 491 617.5 485.5 616.6999999999999 C 461.3 613.0999999999999 438.4 602.9999999999999 420.2 586.4999999999999 C 401.59999999999997 569.5999999999999 389.3 546.4999999999999 387.7 521.2999999999998 C 387.4 516.4999999999999 387.5 511.6999999999998 387.9 506.89999999999986 C 388.5 488.6999999999999 392.4 471.79999999999984 399.29999999999995 456.89999999999986 C 406.09999999999997 442.29999999999984 415.59999999999997 429.9999999999999 427.59999999999997 420.09999999999985 C 452.7 399.59999999999985 486.7 391.6999999999999 523.5 397.79999999999984 L 523.8 397.89999999999986 C 540.8 402.09999999999985 556.4 409.4999999999999 569 419.29999999999984 C 587.9 433.99999999999983 599.5 455.6999999999998 607.4 477.89999999999986 C 611.8 490.29999999999984 613.4 502.89999999999986 611.6999999999999 515.9999999999999 C 610.3 526.6999999999999 607.4 537.1999999999999 603.1999999999999 547.0999999999999 C 599.3 556.3 595.9999999999999 565.8999999999999 590.0999999999999 574.0999999999999 C 582.8 584.3 572.0999999999999 591.5999999999999 561.5999999999999 598.0999999999999 C 550.5999999999999 604.8999999999999 538.4999999999999 611.3999999999999 526.0999999999999 615.3999999999999 C 518.8 617.8 510.7 618.5 502.7 618.3 z" stroke-linecap="round" />
</g>
		<g transform="matrix(1 0 0 1 0.06 -312.28)"  >
<path style="stroke: rgb(0,0,0); stroke-width: 3.3555; stroke-dasharray: none; stroke-linecap: butt; stroke-dashoffset: 0; stroke-linejoin: miter; stroke-miterlimit: 10; fill: rgb(251,180,41); fill-rule: nonzero; opacity: 1;" vector-effect="non-scaling-stroke"  transform=" translate(-500.08, -187.74)" d="M 541.5 149.7 C 542.3 151 542.9 152.6 543.2 154.39999999999998 C 543.9000000000001 158.99999999999997 541.5 159.79999999999998 539.4000000000001 163.79999999999998 C 535.3000000000001 171.49999999999997 531.2 179.1 527.1000000000001 186.79999999999998 C 519.1000000000001 201.7 511.10000000000014 216.7 503.10000000000014 231.59999999999997 C 489.10000000000014 208.99999999999997 475.10000000000014 186.49999999999997 461.0000000000001 163.89999999999998 C 455.4000000000001 154.89999999999998 453.8000000000001 146.2 466.8000000000001 145.29999999999998 C 480.10000000000014 144.29999999999998 493.60000000000014 144.7 506.90000000000015 144.39999999999998 C 514.1000000000001 144.2 521.4000000000001 144.09999999999997 528.6000000000001 143.89999999999998 C 533.7 143.7 538.8 145.4 541.5 149.7 z" stroke-linecap="round" />
</g>
		<g transform="matrix(1 0 0 1 -69.97 5.53)"  >
<path style="stroke: none; stroke-width: 1; stroke-dasharray: none; stroke-linecap: butt; stroke-dashoffset: 0; stroke-linejoin: miter; stroke-miterlimit: 4; fill: rgb(0,0,0); fill-rule: nonzero; opacity: 1;" vector-effect="non-scaling-stroke"  transform=" translate(-430.05, -505.55)" d="M 406.8 531.7 L 415.3 520.2 C 424.7 526.2 431.8 526.9000000000001 436.40000000000003 522.2 C 440.50000000000006 517.8000000000001 438.50000000000006 512.8000000000001 430.3 507.30000000000007 C 422.8 503.70000000000005 416.90000000000003 499.50000000000006 412.40000000000003 494.70000000000005 C 407.70000000000005 490.90000000000003 407.40000000000003 484.80000000000007 411.3 476.50000000000006 C 416.2 470.50000000000006 424 468.6000000000001 434.90000000000003 471.00000000000006 C 442.90000000000003 472.6000000000001 449.1 476.1000000000001 453.3 481.30000000000007 L 446.8 490.80000000000007 C 436.5 483.80000000000007 429.3 481.4000000000001 425.2 483.6000000000001 C 423.4 487.30000000000007 429 492.6000000000001 441.9 499.30000000000007 C 455.2 507.4000000000001 456.4 519.1 445.4 534.3000000000001 C 437.3 544.2 424.5 543.3 406.8 531.7 z" stroke-linecap="round" />
</g>
		<g transform="matrix(1 0 0 1 -13.71 8.15)"  >
<path style="stroke: none; stroke-width: 1; stroke-dasharray: none; stroke-linecap: butt; stroke-dashoffset: 0; stroke-linejoin: miter; stroke-miterlimit: 4; fill: rgb(0,0,0); fill-rule: nonzero; opacity: 1;" vector-effect="non-scaling-stroke"  transform=" translate(-486.31, -508.17)" d="M 468.2 492.1 L 460.2 493.40000000000003 L 458 474.50000000000006 C 481.9 470.20000000000005 497 469.90000000000003 503.6 473.70000000000005 C 510.1 477.50000000000006 513.8000000000001 483.90000000000003 514.6 492.90000000000003 C 515 506.70000000000005 505.90000000000003 516.2 487.3 521.5 L 487.7 544.5 L 476.4 545.3 L 468.2 492.1 z M 486.4 505.2 C 495.59999999999997 502.09999999999997 500.09999999999997 498.3 499.79999999999995 493.8 C 499.29999999999995 491.1 498.09999999999997 489.40000000000003 496.19999999999993 488.6 C 494.29999999999995 487.8 490.5999999999999 487.90000000000003 484.99999999999994 489 L 486.4 505.2 z" stroke-linecap="round" />
</g>
		<g transform="matrix(1 0 0 1 29.46 6.23)"  >
<path style="stroke: none; stroke-width: 1; stroke-dasharray: none; stroke-linecap: butt; stroke-dashoffset: 0; stroke-linejoin: miter; stroke-miterlimit: 4; fill: rgb(0,0,0); fill-rule: nonzero; opacity: 1;" vector-effect="non-scaling-stroke"  transform=" translate(-529.48, -506.25)" d="M 535.1 476.4 C 536.9 477.59999999999997 537.9 479.09999999999997 538.1 480.9 C 538.3000000000001 482.79999999999995 537.7 484.5 536.1 486 C 534.6 487.5 532.6 488.4 530.2 488.7 C 527.8000000000001 489 525.7 488.5 523.9000000000001 487.4 C 522.1000000000001 486.29999999999995 521.0000000000001 484.79999999999995 520.8000000000001 482.9 C 520.6 481 521.3000000000001 479.29999999999995 522.8000000000001 477.79999999999995 C 524.3000000000001 476.29999999999995 526.3000000000001 475.4 528.7 475.09999999999997 C 531.2 474.8 533.3 475.2 535.1 476.4 z M 522.4 493.7 L 536.9 494.8 L 538.1999999999999 537.3 L 522.9999999999999 537.5 L 522.4 493.7 z" stroke-linecap="round" />
</g>
		<g transform="matrix(1 0 0 1 66.28 8.08)"  >
<path style="stroke: none; stroke-width: 1; stroke-dasharray: none; stroke-linecap: butt; stroke-dashoffset: 0; stroke-linejoin: miter; stroke-miterlimit: 4; fill: rgb(0,0,0); fill-rule: nonzero; opacity: 1;" vector-effect="non-scaling-stroke"  transform=" translate(-566.3, -508.1)" d="M 546.4 534.7 L 547.6999999999999 483.50000000000006 L 543.8 483.30000000000007 L 543.8 474.80000000000007 L 560.6999999999999 475.50000000000006 L 572.9999999999999 508.90000000000003 L 575.5999999999999 472.3 L 588.8 470.8 L 584.1999999999999 545.4 L 570.3 542.8 L 558.8 509.79999999999995 L 558.8 536 L 546.4 534.7 z" stroke-linecap="round" />
</g>
</g>
</g>
<g transform="matrix(2.61 0 0 2.61 500 500)" id="4fde0466-852f-4884-8f9b-2215b1608cb6"  >
<circle style="stroke: rgb(0,0,0); stroke-width: 0; stroke-dasharray: none; stroke-linecap: butt; stroke-dashoffset: 0; stroke-linejoin: miter; stroke-miterlimit: 4; fill: rgb(251,180,41); fill-rule: nonzero; opacity: 1;" vector-effect="non-scaling-stroke"  cx="0" cy="0" r="35" />
</g>
</svg>