<?xml version="1.0" encoding="utf-8"?>
<!-- Generator: Adobe Illustrator 28.0.0, SVG Export Plug-In . SVG Version: 6.00 Build 0)  -->
<svg version="1.1" id="Layer_1" xmlns="http://www.w3.org/2000/svg" xmlns:xlink="http://www.w3.org/1999/xlink" x="0px" y="0px"
	 viewBox="0 0 1000 1000" style="enable-background:new 0 0 1000 1000;" xml:space="preserve">
<style type="text/css">
	.st0{fill:#FFFFFF;stroke:#000000;stroke-width:4;stroke-miterlimit:10;}
	.st1{fill:#3BB9FF;stroke:#000000;stroke-width:4;stroke-miterlimit:10;}
	.st2{fill:#FF7826;stroke:#000000;stroke-width:4;stroke-miterlimit:10;}
	.st3{fill:#80EA5C;stroke:#000000;stroke-width:4;stroke-miterlimit:10;}
	.st4{fill:#FF4747;stroke:#000000;stroke-width:4;stroke-miterlimit:10;}
	.st5{fill:#FF75C0;stroke:#000000;stroke-width:4;stroke-miterlimit:10;}
	.st6{fill:#AA79DA;stroke:#000000;stroke-width:4;stroke-miterlimit:10;}
	.st7{fill:#73FBFB;stroke:#000000;stroke-width:4;stroke-miterlimit:10;}
	.st8{fill:#446CD0;stroke:#000000;stroke-width:4;stroke-miterlimit:10;}
	.st9{fill:#FFF100;stroke:#000000;stroke-width:4;stroke-miterlimit:10;}
	.st10{fill:#C85AC1;stroke:#000000;stroke-width:4;stroke-miterlimit:10;}
	.st11{fill:#FBB429;stroke:#000000;stroke-width:3.3555;stroke-miterlimit:10;}
	.st12{font-family:'PocketMonk';}
	.st13{font-size:101.124px;}
	.st14{letter-spacing:7;}
</style>
<g>
	<g>
		<polygon class="st0" points="500,505.9 500,505.9 500,505.9 		"/>
		<path class="st1" d="M500,505.9L500,505.9h342.4c0-75.2-24.3-144.8-65.4-201.3L500,505.9L500,505.9z"/>
		<rect x="500" y="505.9" class="st0" width="0" height="0"/>
		<polygon class="st0" points="500,505.9 500,505.9 500,505.9 		"/>
		<polygon class="st0" points="500,505.9 500,505.9 500,505.9 		"/>
		<path class="st2" d="M777,304.6c-42.1-57.8-101.7-101.9-171.2-124.4L500,505.9L777,304.6z"/>
		<polygon class="st0" points="500,505.9 500,505.9 500,505.9 		"/>
		<path class="st3" d="M500,505.9l105.8,325.7C675.3,809,734.9,764.9,777,707.1L500,505.9L500,505.9z"/>
		<path class="st4" d="M394.2,831.6c33.3,10.8,68.9,16.7,105.8,16.7s72.5-5.9,105.8-16.7L500,505.9L394.2,831.6z"/>
		<path class="st5" d="M500,505.9l277,201.3c41.1-56.5,65.4-126,65.4-201.3H500z"/>
		<path class="st6" d="M500,505.9L500,505.9l105.8-325.7c-33.3-10.8-68.9-16.7-105.8-16.7s-72.5,5.9-105.8,16.7L500,505.9L500,505.9
			z"/>
		<path class="st7" d="M500,505.9L223,707.1c42.1,57.8,101.7,101.9,171.2,124.4L500,505.9L500,505.9z"/>
		<path class="st8" d="M157.6,505.9c0,75.2,24.3,144.8,65.4,201.3l277-201.3H157.6z"/>
		<path class="st9" d="M394.2,180.2c-69.4,22.5-129.1,66.7-171.2,124.4l277,201.3L394.2,180.2z"/>
		<path class="st10" d="M500,505.9L500,505.9L223,304.6c-41.1,56.5-65.4,126-65.4,201.3H500L500,505.9z"/>
	</g>
	<g>
		<path class="st11" d="M508.4,856.1c-18.4-0.4-36.7-2.4-53.8-4.9c-75.8-11.4-147.8-43.1-204.8-94.8
			c-58.2-52.9-96.9-125.6-101.9-204.7c-0.9-15-0.7-30.1,0.6-45.1c1.9-57.2,14-110,35.8-156.9c21.3-45.7,51.2-84.5,88.9-115.4
			c78.6-64.4,185.5-89.2,301-69.9l0.9,0.2c53.4,13.3,102.4,36.5,141.6,67.1c59.2,46.1,95.6,114.3,120.4,183.8
			C851,454.5,856,494,850.5,535c-4.5,33.5-13.4,66.4-26.6,97.6c-12.2,29-22.7,59-41.2,84.8c-22.9,32-56.4,54.9-89.4,75.3
			c-34.6,21.4-72.5,41.6-111.3,54.2C559,854.3,533.6,856.6,508.4,856.1z M499.1,180.4c-81.1,0-154.5,24.4-211.6,71.2
			c-35.1,28.8-63,64.9-82.8,107.5c-16.7,35.7-26.7,74.3-31.2,113.4c-4.8,42.2-6.1,85.6,4.8,127c9.8,37.2,27.4,72.3,51.3,102.5
			c10.7,13.5,22.6,26.2,35.3,37.8c39.4,35.8,88.5,62.9,141.9,78.5c54,15.7,110.2,18.9,162.7,9.2c29.2-10.1,57.5-22.9,84.6-37.8
			c13.4-7.3,26.3-14.5,37.6-24.7c11.8-10.7,24.2-21,35.5-32.3c14.6-13.3,29.2-26.6,41.6-41.8c14.8-18.2,22.2-38,31.1-59.1
			c16-38,27.7-78.4,29.7-119.8c2-40.6-8.2-80.7-23.9-117.8c-15.4-36.5-35.5-72.4-60.7-102.9c-12.6-15.2-26.2-29.7-41.9-41.8
			c-36.7-28.6-82.7-50.4-132.9-63C546,182.4,522.2,180.4,499.1,180.4z"/>
	</g>
	<g>
		<path class="st11" d="M502.7,618.3c-5.9-0.1-11.7-0.8-17.2-1.6c-24.2-3.6-47.1-13.7-65.3-30.2c-18.6-16.9-30.9-40-32.5-65.2
			c-0.3-4.8-0.2-9.6,0.2-14.4c0.6-18.2,4.5-35.1,11.4-50c6.8-14.6,16.3-26.9,28.3-36.8c25.1-20.5,59.1-28.4,95.9-22.3l0.3,0.1
			c17,4.2,32.6,11.6,45.2,21.4c18.9,14.7,30.5,36.4,38.4,58.6c4.4,12.4,6,25,4.3,38.1c-1.4,10.7-4.3,21.2-8.5,31.1
			c-3.9,9.2-7.2,18.8-13.1,27c-7.3,10.2-18,17.5-28.5,24c-11,6.8-23.1,13.3-35.5,17.3C518.8,617.8,510.7,618.5,502.7,618.3z"/>
	</g>
	<path class="st11" d="M541.5,149.7c0.8,1.3,1.4,2.9,1.7,4.7c0.7,4.6-1.7,5.4-3.8,9.4c-4.1,7.7-8.2,15.3-12.3,23
		c-8,14.9-16,29.9-24,44.8c-14-22.6-28-45.1-42.1-67.7c-5.6-9-7.2-17.7,5.8-18.6c13.3-1,26.8-0.6,40.1-0.9
		c7.2-0.2,14.5-0.3,21.7-0.5C533.7,143.7,538.8,145.4,541.5,149.7z"/>
	<text transform="matrix(1 0 0 1 409.0649 540.3355)" class="st12 st13 st14">SPIN</text>
</g>
</svg>
