<?xml version="1.0" encoding="utf-8"?>
<!-- Generator: Adobe Illustrator 28.0.0, SVG Export Plug-In . SVG Version: 6.00 Build 0)  -->
<svg version="1.1" id="Layer_1" xmlns="http://www.w3.org/2000/svg" xmlns:xlink="http://www.w3.org/1999/xlink" x="0px" y="0px"
	 viewBox="0 0 190.3 131.6" style="enable-background:new 0 0 190.3 131.6;" xml:space="preserve">
<style type="text/css">
	.st0{fill:#734d26;}
	.st1{fill:#18001F;}
	.st2{fill:#4E4A54;}
	.st3{fill:#2E2A30;}
	.st4{fill:#FFFFFF;}
</style>
<g>
	<g>
		<path class="st0" d="M190.3,100.8c2.4,6.4-43.2,18.3-80.7,27.7C54.4,135.1,13,129.4,3,127.4c0-9.6,16.9-26,72-32.6
			S187.9,94.5,190.3,100.8z"/>
	</g>
	<g>
		<g id="XMLID_00000021829565531697381880000010107917539515439795_">
			<g>
				<path d="M124.8,1.8c0.7,6,0.2,21.9-0.2,40.3c-0.7,24.3-1.5,54.5,0.2,68.7c0.1,0.7-0.2,1.4-0.7,1.8c-2.7,2.2-4.6,4.4-6.5,6.6
					c-1,1.1-2,2.3-3.1,3.5c-1.1,1.2-2.4,2.4-3.9,3.6c0,0,0,0,0,0c-0.1,0.1-0.2,0.1-0.3,0.2c0,0,0,0-0.1,0c-0.1,0-0.2,0.1-0.3,0.1
					c0,0-0.1,0-0.1,0c-0.1,0-0.2,0.1-0.3,0.1c0,0,0,0,0,0c-18.6,2.3-37.8,3.4-56.9,3.4c-16.5,0-32.8-0.8-48.8-2.5
					c-1-0.1-1.7-0.9-1.8-1.9C0.2,86.3-0.4,51,0.3,17.8c0-0.1,0-0.1,0-0.1c0-0.1,0-0.1,0-0.2c0-0.1,0-0.1,0.1-0.2
					c0-0.1,0-0.1,0.1-0.2c0-0.1,0.1-0.1,0.1-0.2c0,0,0.1-0.1,0.1-0.2c0,0,0.1-0.1,0.1-0.1c0,0,0.1-0.1,0.1-0.1
					c0.1,0,0.1-0.1,0.2-0.1c0,0,0.1-0.1,0.1-0.1c0.1-0.1,0.2-0.1,0.3-0.2c0,0,0,0,0,0s0,0,0,0c0,0,0,0,0,0C5,14.5,8.6,13.2,12,11.9
					c7.8-3,15.1-5.8,22-10.2c0.3-0.2,0.6-0.3,1-0.3C42.9,1,50.2,1.6,57.4,2.1c5.5,0.4,10.7,0.8,16,0.8c8.6,0,16.7-0.7,24.5-1.4
					c8-0.7,16.2-1.4,24.9-1.4c0,0,0,0,0.1,0c0.2,0,0.3,0,0.5,0.1c0,0,0.1,0,0.1,0c0.1,0,0.3,0.1,0.4,0.2c0,0,0.1,0,0.1,0.1
					c0.1,0.1,0.3,0.2,0.4,0.3c0,0,0,0,0,0.1c0.1,0.1,0.2,0.3,0.2,0.4c0,0,0,0,0,0.1c0,0,0,0,0,0C124.7,1.5,124.8,1.6,124.8,1.8z
					 M120.6,42c0.4-14.7,0.8-27.8,0.5-35.3c-1.2,1.4-2.3,2.8-3.5,4.2c-1.9,2.3-3.8,4.8-6.4,7.3c-1.5,30.4-2.6,66-0.2,102.2
					c1.3-1.3,2.4-2.6,3.5-3.9c1.8-2.1,3.6-4.2,6.2-6.3C119.1,95.4,119.9,67.1,120.6,42z M114.5,8.4c1.1-1.4,2.3-2.9,3.6-4.3
					c-6.8,0.2-13.4,0.8-19.8,1.3c-8,0.7-16.2,1.4-24.9,1.4c-5.5,0-11-0.4-16.3-0.8c-6.9-0.5-14-1-21.4-0.7
					c-7.1,4.5-14.8,7.4-22.2,10.3c-0.2,0.1-0.3,0.1-0.5,0.2c14.2-0.1,28.7-0.2,42.8-0.2c17.4,0,35.3,0,52.7-0.3
					C110.8,13,112.6,10.8,114.5,8.4z M107.2,122.9c-2.5-36.6-1.4-72.8,0-103.6c-17,0.2-34.5,0.2-51.4,0.3c-17,0-34.5,0-51.5,0.3
					c-0.7,32-0.1,66,1.8,103.9C39,127.1,73.9,126.9,107.2,122.9z"/>
				<path class="st1" d="M121.1,6.7c0.2,7.5-0.1,20.6-0.5,35.3c-0.7,25.1-1.5,53.4,0.2,68.2c-2.5,2.2-4.4,4.3-6.2,6.3
					c-1.2,1.3-2.3,2.6-3.5,3.9c-2.4-36.2-1.2-71.9,0.2-102.2c2.5-2.5,4.5-4.9,6.4-7.3C118.8,9.5,119.9,8.1,121.1,6.7z"/>
				<path class="st2" d="M118.1,4.1c-1.3,1.5-2.5,2.9-3.6,4.3c-1.9,2.3-3.7,4.6-6,6.9c-17.4,0.2-35.3,0.3-52.7,0.3
					c-14.1,0-28.6,0-42.8,0.2c0.1-0.1,0.3-0.1,0.5-0.2c7.4-2.9,15.1-5.8,22.2-10.3C43.1,5.1,50.2,5.6,57.1,6
					c5.3,0.4,10.8,0.8,16.3,0.8c8.7,0,16.9-0.7,24.9-1.4C104.7,4.8,111.3,4.2,118.1,4.1z"/>
				<path class="st3" d="M107.2,19.3c-1.5,30.8-2.6,67,0,103.6C73.9,126.9,39,127.1,6,123.8C4.2,85.9,3.6,51.9,4.3,19.9
					c17-0.2,34.6-0.2,51.5-0.3C72.7,19.6,90.2,19.6,107.2,19.3z"/>
			</g>
			<g>
			</g>
		</g>
		<path class="st4" d="M95.2,98.3c-7-4.6-12.4-11-17.7-17.4c-4.6-5.6-9.4-10.8-14.6-15.8c7.4-7.6,14.2-15.6,20.6-24
			c2.3-3.1-2.9-6.1-5.2-3c-6.1,8-12.7,15.6-19.8,22.9c0,0-0.1,0.1-0.1,0.1c-6.9-6-13.7-12.3-20.9-17.9c-2.7-2.1-5.6-4.1-9.1-4.5
			c-3.5-0.4-6.5,1.5-9.8,1.7c-2.7-1.2-5.8,2.4-3.4,4.9c9.7,9.6,19.6,19,29.5,28.4c-9.2,8.1-18.6,15.9-25.9,25.8
			c-2.3,3.1,2.9,6.1,5.2,3c7-9.5,16.3-17,25.1-24.8c9.7,9,19.4,17.8,29.3,26.5c0.2,0.2,0.4,0.4,0.7,0.6c1.1,0.8,2.4,0.7,3.3,0.1
			c3.7-0.3,7.3-0.7,11-1C96.7,103.7,97.8,100,95.2,98.3z M81.8,99C62.1,81.6,42.8,63.7,23.9,45.2c1.5-0.4,3-0.7,4.6-0.4
			c4.2,0.8,7.9,5.2,11.1,7.9c6.9,6,14,11.8,20.6,18c9.2,8.7,16.2,19.6,25.7,27.9C84.5,98.8,83.2,98.9,81.8,99z"/>
	</g>
</g>
</svg>
