<?xml version="1.0" encoding="utf-8"?>
<!-- Generator: Adobe Illustrator 28.0.0, SVG Export Plug-In . SVG Version: 6.00 Build 0)  -->
<svg version="1.1" id="Layer_1" xmlns="http://www.w3.org/2000/svg" xmlns:xlink="http://www.w3.org/1999/xlink" x="0px" y="0px"
	 viewBox="0 0 1778.1 898.2" style="enable-background:new 0 0 1778.1 898.2;" xml:space="preserve">
<style type="text/css">
	.st0{stroke:#000000;stroke-width:9.1891;stroke-miterlimit:10;}
	.st1{fill:#3B1E63;}
	.st2{fill:#AB79ED;stroke:#000000;stroke-width:9.1891;stroke-miterlimit:10;}
	.st3{fill:#7F3FD4;stroke:#000000;stroke-width:9.1891;stroke-miterlimit:10;}
	.st4{fill:#FFBA26;}
	.st5{fill:#894E04;}
	.st6{fill:#FFFFFF;}
	.st7{clip-path:url(#SVGID_00000116958301910251382930000015880166854841721532_);}
	.st8{fill:#30A7F0;}
	.st9{fill:none;stroke:#000000;stroke-width:1.3331;stroke-miterlimit:10;}
	.st10{clip-path:url(#SVGID_00000003087098687389600830000005597485992099202177_);}
	.st11{fill:none;stroke:#000000;stroke-width:2.027;stroke-miterlimit:10;}
	.st12{clip-path:url(#SVGID_00000160906812917029803630000012353119653825832623_);}
	.st13{fill:none;stroke:#000000;stroke-width:1.4829;stroke-miterlimit:10;}
	.st14{clip-path:url(#SVGID_00000054961820626838293580000001962230221267757454_);}
	.st15{fill:none;stroke:#000000;stroke-width:1.2488;stroke-miterlimit:10;}
	.st16{clip-path:url(#SVGID_00000019653124064060420130000013194302657739616134_);}
	.st17{fill:none;stroke:#000000;stroke-width:1.5322;stroke-miterlimit:10;}
	.st18{clip-path:url(#SVGID_00000171703149411527309040000015782802300204050354_);}
	.st19{fill:none;stroke:#000000;stroke-width:1.5499;stroke-miterlimit:10;}
	.st20{clip-path:url(#SVGID_00000060740585618852434870000002459294574392763827_);}
	.st21{fill:none;stroke:#000000;stroke-width:1.7467;stroke-miterlimit:10;}
	.st22{clip-path:url(#SVGID_00000068657776482142475570000005283001172013578642_);}
	.st23{fill:none;stroke:#000000;stroke-width:1.3828;stroke-miterlimit:10;}
	.st24{clip-path:url(#SVGID_00000112623915371418666470000011949352176720317844_);}
	.st25{fill:none;stroke:#000000;stroke-width:1.2819;stroke-miterlimit:10;}
	.st26{fill:#F00000;}
</style>
<g>
	<g>
		<g>
			<path class="st0" d="M518.3,735.6c-17.8,0-35.5,0-53.2-0.1c-41.2-0.2-117.9-0.5-182.4-18.6c-106.3-30-128.6-93.7-128.6-141.8
				c0-16.7-1.5-35.4-3.2-55.2c-4.2-50.4-8.9-107.5,11.5-153.9C190,303,261,263.5,318.3,247.4c57.6-16.1,115.5-14.8,171.5-13.5
				c26.9,0.6,52.3,1.2,77.7,0c67.5-3.2,136.1-3,202.5-2.7c26.8,0.1,54.6,0.2,81.8,0.1c137.9-0.7,278-0.6,413.6-0.6h24.4
				c109.1,0,232.7,0.1,304.4,118.3c21.3,35,31.2,80.2,28.6,130.7c-2.1,42.1-12.9,87.3-30.3,127.2c-25.6,58.7-68.3,95.4-130.4,112.4
				l0,0c-51.1,14-107.2,12.4-161.5,10.9c-16.7-0.5-32.4-0.9-47.9-0.9c-122.1,0-246,1.6-365.9,3.2C766.2,734,642,735.6,518.3,735.6z
				 M442.5,290.1c-37.5,0-73.7,2.2-108.9,12.1c-68.2,19.1-106.7,58.6-119,86.6c-14.5,33.2-10.6,80.6-6.9,126.4
				c1.7,21,3.4,40.8,3.4,59.8c0,90.8,135.9,103,254.2,103.5c140.6,0.6,283-1.3,420.6-3.1c120.1-1.6,244.2-3.2,366.7-3.2
				c16.3,0,33.2,0.5,49.5,0.9c50.1,1.4,102,2.8,144.9-8.9c45-12.3,74.6-37.8,93.1-80.2c27.1-62,39.2-149.5,5.2-205.5
				c-55.1-90.8-148.1-90.8-255.7-90.8h-24.4c-135.5,0-275.6-0.1-413.3,0.6c-27.4,0.1-55.3,0-82.2-0.1c-65.7-0.2-133.6-0.5-199.6,2.7
				c-27.4,1.3-55,0.7-81.7,0C472.9,290.5,457.6,290.1,442.5,290.1z"/>
		</g>
		<g>
			<path d="M442.5,250c-37.5,0-73.7,2.2-108.9,12.1c-68.2,19.1-106.7,58.6-119,86.6c-14.5,33.2-10.6,80.6-6.9,126.4
				c1.7,21,3.4,40.8,3.4,59.8c0,90.8,135.9,103,254.2,103.5c140.6,0.6,283-1.3,420.6-3.1c120.1-1.6,244.2-3.2,366.7-3.2
				c16.3,0,33.2,0.5,49.5,0.9c50.1,1.4,102,2.8,144.9-8.9c45-12.3,74.6-37.8,93.1-80.2c27.1-62,39.2-149.5,5.2-205.5
				c-55.1-90.8-148.1-90.8-255.7-90.8h-24.4c-135.5,0-275.6-0.1-413.3,0.6c-27.4,0.1-55.3,0-82.2-0.1c-65.7-0.2-133.6-0.5-199.6,2.7
				c-27.4,1.3-55,0.7-81.7,0C472.9,250.4,457.6,250,442.5,250z"/>
		</g>
		<g>
			<path class="st1" d="M442.5,275.7c-37.5,0-73.7,2.2-108.9,12.1c-68.2,19.1-106.7,58.6-119,86.6c-14.5,33.2-10.6,80.6-6.9,126.4
				c1.7,21,3.4,40.8,3.4,59.8c0,90.8,135.9,103,254.2,103.5c140.6,0.6,283-1.3,420.6-3.1c120.1-1.6,244.2-3.2,366.7-3.2
				c16.3,0,33.2,0.5,49.5,0.9c50.1,1.4,102,2.8,144.9-8.9c45-12.3,74.6-37.8,93.1-80.2c27.1-62,39.2-149.5,5.2-205.5
				c-55.1-90.8-148.1-90.8-255.7-90.8h-24.4c-135.5,0-275.6-0.1-413.3,0.6c-27.4,0.1-55.3,0-82.2-0.1c-65.7-0.2-133.6-0.5-199.6,2.7
				c-27.4,1.3-55,0.7-81.7,0C472.9,276.1,457.6,275.7,442.5,275.7z"/>
		</g>
		<g>
			<path class="st0" d="M357.5,556.3l-30.8-23.8l36.1-63.6l-54.5-74.8l39.2-27.4l37.3,63.6l36.4-64.1l43.3,27.3L357.5,556.3z"/>
			<path class="st0" d="M600.3,404.8c14.8,14.3,22.2,31.5,22.2,51.6c0,20.2-7.4,37.4-22.2,51.7s-32.6,21.4-53.5,21.4
				s-38.8-7.1-53.5-21.4c-14.8-14.3-22.2-31.5-22.2-51.7c0-20.1,7.4-37.3,22.2-51.6c14.8-14.3,32.6-21.4,53.5-21.4
				S585.5,390.5,600.3,404.8z M559.6,410.1c-10,0-18.5,3.4-25.6,10.3s-10.6,15.2-10.6,24.9c0,9.7,3.5,18,10.6,24.9
				s15.6,10.3,25.6,10.3s19.1-2.9,25.6-10.3c8-9.1,13.2-26.4,4.1-43.3C580.2,410.1,562.3,410.1,559.6,410.1z"/>
			<path class="st0" d="M1148.9,404.8c14.8,14.3,22.2,31.5,22.2,51.6c0,20.2-7.4,37.4-22.2,51.7c-14.8,14.3-32.6,21.4-53.5,21.4
				s-38.8-7.1-53.5-21.4c-14.8-14.3-22.2-31.5-22.2-51.7c0-20.1,7.4-37.3,22.2-51.6c14.8-14.3,32.6-21.4,53.5-21.4
				S1134.1,390.5,1148.9,404.8z M1108.2,410.1c-10,0-18.5,3.4-25.6,10.3s-10.6,15.2-10.6,24.9c0,9.7,3.5,18,10.6,24.9
				s15.6,10.3,25.6,10.3s19.1-2.9,25.6-10.3c8-9.1,13.2-26.4,4.1-43.3C1128.8,410.1,1110.8,410.1,1108.2,410.1z"/>
			<path class="st0" d="M640.7,385.8l43.4-4.9v93.3c-0.5,12.4,7.4,18.7,23.7,19.1c16.7,0.8,25.2-10.1,25.6-32.7l-1.1-87.9l43.3,10.7
				l-1.2,84.4c0,47.5-23.2,69.7-69.5,66.5c-40.7,0-61.9-19.6-63.6-58.8L640.7,385.8z"/>
			<path class="st0" d="M900.4,362l43.9,5.3l-8.8,128.3l76-7.7l3.5,54.1l-121.7,4.7L900.4,362z"/>
			<path class="st0" d="M1167.9,527.4l23.4-31.5c25.8,16.5,45.1,18.3,57.9,5.4c11.4-12.1,5.8-25.6-16.6-40.7
				c-20.5-9.8-36.8-21.3-49.1-34.5c-12.8-10.5-13.8-27.1-3-49.9c13.3-16.5,34.8-21.5,64.5-15.1c22,4.4,38.8,13.8,50.3,28.3l-17.8,26
				c-28.2-19.2-48-25.7-59.2-19.6c-5,10.2,10.3,24.5,45.7,43c36.4,22.3,39.6,54.2,9.6,95.9C1251.5,561.5,1216.3,559.1,1167.9,527.4z
				"/>
			<path class="st0" d="M1306.1,411.8v-42.2l152-10.7l-1.2,45.8l-58.7,4.7l10.7,128.3l-53.5,7l3-134.8L1306.1,411.8z"/>
		</g>
		<g>
			<path class="st2" d="M357.5,537.9l-30.8-23.8l36.1-63.6l-54.5-74.8l39.2-27.4l37.3,63.6l36.4-64.1l43.3,27.3L357.5,537.9z"/>
			<path class="st2" d="M600.3,386.4c14.8,14.3,22.2,31.5,22.2,51.6c0,20.2-7.4,37.4-22.2,51.7c-14.8,14.3-32.6,21.4-53.5,21.4
				s-38.8-7.1-53.5-21.4c-14.8-14.3-22.2-31.5-22.2-51.7c0-20.1,7.4-37.3,22.2-51.6c14.8-14.3,32.6-21.4,53.5-21.4
				S585.5,372.1,600.3,386.4z M559.6,391.8c-10,0-18.5,3.4-25.6,10.3s-10.6,15.2-10.6,24.9c0,9.7,3.5,18,10.6,24.9
				s15.6,10.3,25.6,10.3s19.1-2.9,25.6-10.3c8-9.1,13.2-26.4,4.1-43.3C580.2,391.8,562.3,391.8,559.6,391.8z"/>
			<path class="st2" d="M1148.9,386.4c14.8,14.3,22.2,31.5,22.2,51.6c0,20.2-7.4,37.4-22.2,51.7c-14.8,14.3-32.6,21.4-53.5,21.4
				s-38.8-7.1-53.5-21.4c-14.8-14.3-22.2-31.5-22.2-51.7c0-20.1,7.4-37.3,22.2-51.6c14.8-14.3,32.6-21.4,53.5-21.4
				S1134.1,372.1,1148.9,386.4z M1108.2,391.8c-10,0-18.5,3.4-25.6,10.3S1072,417.3,1072,427c0,9.7,3.5,18,10.6,24.9
				s15.6,10.3,25.6,10.3s19.1-2.9,25.6-10.3c8-9.1,13.2-26.4,4.1-43.3C1128.8,391.8,1110.8,391.8,1108.2,391.8z"/>
			<path class="st2" d="M640.7,367.4l43.4-4.9v93.3c-0.5,12.4,7.4,18.7,23.7,19.1c16.7,0.8,25.2-10.1,25.6-32.7l-1.1-87.9l43.3,10.7
				l-1.2,84.4c0,47.5-23.2,69.7-69.5,66.5c-40.7,0-61.9-19.6-63.6-58.8L640.7,367.4z"/>
			<path class="st2" d="M900.4,343.6l43.9,5.3l-8.8,128.3l76-7.7l3.5,54.1l-121.7,4.7L900.4,343.6z"/>
			<path class="st2" d="M1167.9,509l23.4-31.5c25.8,16.5,45.1,18.3,57.9,5.4c11.4-12.1,5.8-25.6-16.6-40.7
				c-20.5-9.8-36.8-21.3-49.1-34.5c-12.8-10.5-13.8-27.1-3-49.9c13.3-16.5,34.8-21.5,64.5-15.1c22,4.4,38.8,13.8,50.3,28.3l-17.8,26
				c-28.2-19.2-48-25.7-59.2-19.6c-5,10.2,10.3,24.5,45.7,43c36.4,22.3,39.6,54.2,9.6,95.9C1251.5,543.1,1216.3,540.7,1167.9,509z"
				/>
			<path class="st2" d="M1306.1,393.4v-42.2l152-10.7l-1.2,45.8l-58.7,4.7l10.7,128.3l-53.5,7l3-134.8L1306.1,393.4z"/>
		</g>
		<g>
			<path class="st3" d="M518.3,695.5c-17.8,0-35.5,0-53.2-0.1c-41.2-0.2-117.9-0.5-182.4-18.6c-106.3-30-128.6-93.7-128.6-141.8
				c0-16.7-1.5-35.4-3.2-55.2c-4.2-50.4-8.9-107.5,11.5-153.9c27.6-63,98.6-102.5,155.9-118.6c57.6-16.1,115.5-14.8,171.5-13.5
				c26.9,0.6,52.3,1.2,77.7,0c67.5-3.2,136.1-3,202.5-2.7c26.8,0.1,54.6,0.2,81.8,0.1c137.9-0.7,278-0.6,413.6-0.6h24.4
				c109.1,0,232.7,0.1,304.4,118.3c21.3,35,31.2,80.2,28.6,130.7c-2.1,42.1-12.9,87.3-30.3,127.2c-25.6,58.7-68.3,95.4-130.4,112.4
				l0,0c-51.1,14-107.2,12.4-161.5,10.9c-16.7-0.5-32.4-0.9-47.9-0.9c-122.1,0-246,1.6-365.9,3.2C766.2,693.9,642,695.5,518.3,695.5
				z M442.5,250c-37.5,0-73.7,2.2-108.9,12.1c-68.2,19.1-106.7,58.6-119,86.6c-14.5,33.2-10.6,80.6-6.9,126.4
				c1.7,21,3.4,40.8,3.4,59.8c0,90.8,135.9,103,254.2,103.5c140.6,0.6,283-1.3,420.6-3.1c120.1-1.6,244.2-3.2,366.7-3.2
				c16.3,0,33.2,0.5,49.5,0.9c50.1,1.4,102,2.8,144.9-8.9c45-12.3,74.6-37.8,93.1-80.2c27.1-62,39.2-149.5,5.2-205.5
				c-55.1-90.8-148.1-90.8-255.7-90.8h-24.4c-135.5,0-275.6-0.1-413.3,0.6c-27.4,0.1-55.3,0-82.2-0.1c-65.7-0.2-133.6-0.5-199.6,2.7
				c-27.4,1.3-55,0.7-81.7,0C472.9,250.4,457.6,250,442.5,250z"/>
		</g>
	</g>
	<g>
		<path class="st4" d="M1767.4,586.9c-4.5,26.4-34.5,45.3-61.2,35.5c-18.6-6.8-32.2-26.3-29.9-46.3c3-26.3,30.8-43.6,55.9-38.1
			c15.9,3.5,30.7,16.1,34.6,32.2C1768.2,575.9,1768.3,581.6,1767.4,586.9z"/>
		<path class="st5" d="M1717,609.4L1717,609.4c-4-0.7-6.6-4.4-6-8.4l0.6-3.8c0.7-4,4.4-6.6,8.4-6l0,0c4,0.7,6.6,4.4,6,8.4l-0.6,3.8
			C1724.8,607.4,1721,610.1,1717,609.4z"/>
		<path class="st6" d="M1722.4,600.8l-7.6-1.3c-1-0.2-1.7-1.1-1.5-2.1l0,0c0.5-3.1,3.5-5.2,6.6-4.7l0,0c3.1,0.5,5.2,3.5,4.7,6.6l0,0
			C1724.4,600.3,1723.4,601,1722.4,600.8z"/>
		<g>
			<g>
				<defs>
					<path id="SVGID_1_" d="M1767.4,586.9c-4.5,26.4-34.5,45.3-61.2,35.5c-18.6-6.8-32.2-26.3-29.9-46.3c3-26.3,30.8-43.6,55.9-38.1
						c15.9,3.5,30.7,16.1,34.6,32.2C1768.2,575.9,1768.3,581.6,1767.4,586.9z"/>
				</defs>
				<clipPath id="SVGID_00000075840750580397230950000006426913483375889028_">
					<use xlink:href="#SVGID_1_"  style="overflow:visible;"/>
				</clipPath>
				<g style="clip-path:url(#SVGID_00000075840750580397230950000006426913483375889028_);">
					
						<rect x="1674" y="588.6" transform="matrix(0.1671 -0.9859 0.9859 0.1671 828.9001 2174.2327)" class="st8" width="54.6" height="15.8"/>
					
						<rect x="1708.5" y="594.5" transform="matrix(0.1671 -0.9859 0.9859 0.1671 851.8129 2213.1494)" class="st8" width="54.6" height="15.8"/>
					<g>
						<path class="st5" d="M1717.3,576.5c-2.5,0.8-3.3-3.4-11.6-4.8c-8.2-1.4-10.5,2.2-12.5,0.7c-1.2-0.9,0.5-4.3,1.8-5.6
							c3.2-3.4,8.2-4.2,12.1-3.6c3.9,0.7,8.3,3.2,10.3,7.4C1718.3,572.3,1718.7,576.1,1717.3,576.5z"/>
					</g>
					<g>
						<path class="st5" d="M1751.7,582.3c-2.5,0.8-3.3-3.4-11.6-4.8s-10.5,2.2-12.5,0.7c-1.2-0.9,0.5-4.3,1.8-5.6
							c3.2-3.4,8.2-4.2,12.1-3.6c3.9,0.7,8.3,3.2,10.3,7.4C1752.6,578.2,1753.1,581.9,1751.7,582.3z"/>
					</g>
				</g>
			</g>
		</g>
		<path class="st9" d="M1767.4,586.9c-4.5,26.4-34.5,45.3-61.2,35.5c-18.6-6.8-32.2-26.3-29.9-46.3c3-26.3,30.8-43.6,55.9-38.1
			c15.9,3.5,30.7,16.1,34.6,32.2C1768.2,575.9,1768.3,581.6,1767.4,586.9z"/>
	</g>
	<g>
		<path class="st4" d="M352.8,76.9c6.8,40.1,52.5,68.8,93.1,54c28.2-10.3,49-40,45.5-70.4c-4.6-40-46.8-66.3-85-57.9
			c-24.2,5.3-46.6,24.4-52.6,48.9C351.6,60.2,351.4,68.8,352.8,76.9z"/>
		<path class="st5" d="M429.3,111.1L429.3,111.1c6-1,10.1-6.7,9.1-12.8l-1-5.7c-1-6-6.7-10.1-12.8-9.1l0,0c-6,1-10.1,6.7-9.1,12.8
			l1,5.7C417.6,108.1,423.3,112.2,429.3,111.1z"/>
		<path class="st6" d="M421.2,98l11.5-2c1.5-0.3,2.6-1.7,2.3-3.2l0,0c-0.8-4.7-5.3-7.9-10-7.1l0,0c-4.7,0.8-7.9,5.3-7.1,10l0,0
			C418.2,97.2,419.6,98.3,421.2,98z"/>
		<g>
			<g>
				<defs>
					<path id="SVGID_00000114037189503257047420000002245846463570295959_" d="M352.8,76.9c6.8,40.1,52.5,68.8,93.1,54
						c28.2-10.3,49-40,45.5-70.4c-4.6-40-46.8-66.3-85-57.9c-24.2,5.3-46.6,24.4-52.6,48.9C351.6,60.2,351.4,68.8,352.8,76.9z"/>
				</defs>
				<clipPath id="SVGID_00000051356122760084899600000014789692328422050999_">
					<use xlink:href="#SVGID_00000114037189503257047420000002245846463570295959_"  style="overflow:visible;"/>
				</clipPath>
				<g style="clip-path:url(#SVGID_00000051356122760084899600000014789692328422050999_);">
					
						<rect x="441.1" y="50.1" transform="matrix(0.9859 -0.1671 0.1671 0.9859 -8.9426 77.0085)" class="st8" width="24.1" height="83.1"/>
					
						<rect x="388.6" y="59" transform="matrix(0.9859 -0.1671 0.1671 0.9859 -11.1654 68.3645)" class="st8" width="24.1" height="83.1"/>
					<g>
						<path class="st5" d="M428.9,61.1c3.8,1.2,5-5.2,17.6-7.3c12.5-2.1,15.9,3.4,19,1.1c1.8-1.4-0.8-6.5-2.7-8.5
							c-4.9-5.1-12.5-6.5-18.5-5.5c-5.9,1-12.7,4.8-15.6,11.2C427.5,54.7,426.7,60.4,428.9,61.1z"/>
					</g>
					<g>
						<path class="st5" d="M376.7,69.9c3.8,1.2,5-5.2,17.6-7.3c12.5-2.1,15.9,3.4,19,1.1c1.8-1.4-0.8-6.5-2.7-8.5
							c-4.9-5.1-12.5-6.5-18.5-5.5c-5.9,1-12.7,4.8-15.6,11.2C375.2,63.6,374.5,69.3,376.7,69.9z"/>
					</g>
				</g>
			</g>
		</g>
		<path class="st11" d="M352.8,76.9c6.8,40.1,52.5,68.8,93.1,54c28.2-10.3,49-40,45.5-70.4c-4.6-40-46.8-66.3-85-57.9
			c-24.2,5.3-46.6,24.4-52.6,48.9C351.6,60.2,351.4,68.8,352.8,76.9z"/>
	</g>
	<g>
		<path class="st4" d="M1120.5,71.2c8.4,28.6-12.4,62.1-43.8,65.4c-21.9,2.3-45-10.5-52.5-31.6c-9.8-27.8,9.4-58.6,37.3-65.4
			c17.6-4.3,38.5,1.1,50.3,15.2C1115.9,59.9,1118.8,65.5,1120.5,71.2z"/>
		<path class="st5" d="M1081.2,118.4L1081.2,118.4c-4.3,1.3-8.8-1.2-10-5.5l-1.2-4.1c-1.3-4.3,1.2-8.8,5.5-10l0,0
			c4.3-1.3,8.8,1.2,10,5.5l1.2,4.1C1087.9,112.6,1085.5,117.1,1081.2,118.4z"/>
		<path class="st6" d="M1082.3,107.1l-8.2,2.4c-1.1,0.3-2.2-0.3-2.6-1.4l0,0c-1-3.4,0.9-6.9,4.3-7.9l0,0c3.4-1,6.9,0.9,7.9,4.3l0,0
			C1084.1,105.6,1083.4,106.8,1082.3,107.1z"/>
		<g>
			<g>
				<defs>
					<path id="SVGID_00000124159490314291353610000018187353273139789475_" d="M1120.5,71.2c8.4,28.6-12.4,62.1-43.8,65.4
						c-21.9,2.3-45-10.5-52.5-31.6c-9.8-27.8,9.4-58.6,37.3-65.4c17.6-4.3,38.5,1.1,50.3,15.2C1115.9,59.9,1118.8,65.5,1120.5,71.2z
						"/>
				</defs>
				<clipPath id="SVGID_00000181076399430843235950000005806853071302968732_">
					<use xlink:href="#SVGID_00000124159490314291353610000018187353273139789475_"  style="overflow:visible;"/>
				</clipPath>
				<g style="clip-path:url(#SVGID_00000181076399430843235950000005806853071302968732_);">
					
						<rect x="1050.5" y="82.8" transform="matrix(0.9591 -0.2831 0.2831 0.9591 11.2814 304.5239)" class="st8" width="17.6" height="60.8"/>
					
						<rect x="1087.8" y="71.8" transform="matrix(0.9591 -0.2831 0.2831 0.9591 15.9178 314.637)" class="st8" width="17.6" height="60.8"/>
					<g>
						<path class="st5" d="M1065.4,85.3c-2.1,2-5-1.8-13.9,0.9s-9.3,7.3-12.1,6.8c-1.6-0.3-1.6-4.5-1-6.5c1.6-4.9,6.2-8.3,10.4-9.5
							c4.2-1.2,9.9-0.9,13.9,2.4C1064.3,80.7,1066.6,84.2,1065.4,85.3z"/>
					</g>
					<g>
						<path class="st5" d="M1102.6,74.4c-2.1,2-5-1.8-13.9,0.9c-8.9,2.6-9.3,7.3-12.1,6.8c-1.6-0.3-1.6-4.5-1-6.5
							c1.6-4.9,6.2-8.3,10.4-9.5c4.2-1.2,9.9-0.9,13.9,2.4C1101.5,69.7,1103.8,73.2,1102.6,74.4z"/>
					</g>
				</g>
			</g>
		</g>
		<path class="st13" d="M1120.5,71.2c8.4,28.6-12.4,62.1-43.8,65.4c-21.9,2.3-45-10.5-52.5-31.6c-9.8-27.8,9.4-58.6,37.3-65.4
			c17.6-4.3,38.5,1.1,50.3,15.2C1115.9,59.9,1118.8,65.5,1120.5,71.2z"/>
	</g>
	<g>
		<path class="st4" d="M1625.2,73.8c8.6,23.5-7,52.9-33.3,57.4c-18.3,3.1-38.4-6.4-45.9-23.7c-9.8-22.8,4.7-49.8,27.7-57
			c14.5-4.6,32.4-1.2,43.1,10C1620.8,64.6,1623.5,69.1,1625.2,73.8z"/>
		<path class="st5" d="M1594.8,115.6L1594.8,115.6c-3.5,1.3-7.4-0.5-8.7-4l-1.2-3.4c-1.3-3.5,0.5-7.4,4-8.7l0,0
			c3.5-1.3,7.4,0.5,8.7,4l1.2,3.4C1600.1,110.4,1598.3,114.3,1594.8,115.6z"/>
		<path class="st6" d="M1595.1,106.1l-6.8,2.5c-0.9,0.3-1.9-0.1-2.2-1l0,0c-1-2.8,0.4-5.8,3.2-6.8l0,0c2.8-1,5.8,0.4,6.8,3.2l0,0
			C1596.5,104.7,1596,105.7,1595.1,106.1z"/>
		<g>
			<g>
				<defs>
					<path id="SVGID_00000055695321241019257780000017753058638951780229_" d="M1625.2,73.8c8.6,23.5-7,52.9-33.3,57.4
						c-18.3,3.1-38.4-6.4-45.9-23.7c-9.8-22.8,4.7-49.8,27.7-57c14.5-4.6,32.4-1.2,43.1,10C1620.8,64.6,1623.5,69.1,1625.2,73.8z"/>
				</defs>
				<clipPath id="SVGID_00000173153453561174079060000008183341464685299640_">
					<use xlink:href="#SVGID_00000055695321241019257780000017753058638951780229_"  style="overflow:visible;"/>
				</clipPath>
				<g style="clip-path:url(#SVGID_00000173153453561174079060000008183341464685299640_);">
					
						<rect x="1568.7" y="86.8" transform="matrix(0.9388 -0.3446 0.3446 0.9388 57.7936 549.9731)" class="st8" width="14.8" height="51.2"/>
					
						<rect x="1599.5" y="75.5" transform="matrix(0.9388 -0.3446 0.3446 0.9388 63.5756 559.8942)" class="st8" width="14.8" height="51.2"/>
					<g>
						<path class="st5" d="M1579.7,88.7c-1.7,1.8-4.3-1.2-11.6,1.5c-7.3,2.7-7.5,6.7-9.8,6.4c-1.4-0.2-1.6-3.7-1.2-5.4
							c1.1-4.2,4.7-7.3,8.2-8.6c3.5-1.3,8.3-1.3,11.8,1.2C1578.5,84.9,1580.6,87.7,1579.7,88.7z"/>
					</g>
					<g>
						<path class="st5" d="M1610.3,77.4c-1.7,1.8-4.3-1.2-11.6,1.5c-7.3,2.7-7.5,6.7-9.8,6.4c-1.4-0.2-1.6-3.7-1.2-5.4
							c1.1-4.2,4.7-7.3,8.2-8.6c3.5-1.3,8.3-1.3,11.8,1.2C1609.1,73.6,1611.3,76.4,1610.3,77.4z"/>
					</g>
				</g>
			</g>
		</g>
		<path class="st15" d="M1625.2,73.8c8.6,23.5-7,52.9-33.3,57.4c-18.3,3.1-38.4-6.4-45.9-23.7c-9.8-22.8,4.7-49.8,27.7-57
			c14.5-4.6,32.4-1.2,43.1,10C1620.8,64.6,1623.5,69.1,1625.2,73.8z"/>
	</g>
	<g>
		<path class="st4" d="M1043.9,856.2c-6.6,30-42.2,50-72.3,37.4c-21-8.8-35.5-32-31.8-54.8c4.9-30.1,37.7-48.3,66.3-40.6
			c18.1,4.9,34.3,20.1,37.9,38.8C1045.4,843.7,1045.3,850.2,1043.9,856.2z"/>
		<path class="st5" d="M986.7,879.7l-3.6-0.8c-3.5-0.8-5.8-4.3-5-7.8l1.7-7.9c0.8-3.5,4.3-5.8,7.8-5l3.6,0.8c3.5,0.8,5.8,4.3,5,7.8
			l-1.7,7.9C993.7,878.2,990.2,880.5,986.7,879.7z"/>
		<path class="st6" d="M992,869.8l-9.5-2.1c-0.9-0.2-1.5-1.1-1.3-2l0.4-1.8c0.6-2.8,3.3-4.5,6.1-3.9l2.8,0.6
			c2.8,0.6,4.5,3.3,3.9,6.1l-0.4,1.8C993.8,869.4,992.9,870,992,869.8z"/>
		<g>
			<g>
				<defs>
					<path id="SVGID_00000098901348029090361300000014446338381976390289_" d="M1043.9,856.2c-6.6,30-42.2,50-72.3,37.4
						c-21-8.8-35.5-32-31.8-54.8c4.9-30.1,37.7-48.3,66.3-40.6c18.1,4.9,34.3,20.1,37.9,38.8
						C1045.4,843.7,1045.3,850.2,1043.9,856.2z"/>
				</defs>
				<clipPath id="SVGID_00000108283418830909031810000008509366403500916902_">
					<use xlink:href="#SVGID_00000098901348029090361300000014446338381976390289_"  style="overflow:visible;"/>
				</clipPath>
				<g style="clip-path:url(#SVGID_00000108283418830909031810000008509366403500916902_);">
					
						<rect x="936.1" y="854.6" transform="matrix(0.2145 -0.9767 0.9767 0.2145 -83.5783 1623.4476)" class="st8" width="62.8" height="18.2"/>
					
						<rect x="975.5" y="863.2" transform="matrix(0.2145 -0.9767 0.9767 0.2145 -61.1048 1668.5939)" class="st8" width="62.8" height="18.2"/>
					<g>
						<path class="st5" d="M987,841.5c-2.9,0.7-3.6-4.1-13-6.1c-9.4-2.1-12.1,2-14.4,0.1c-1.3-1.1,0.8-4.9,2.4-6.3
							c3.9-3.7,9.7-4.4,14.1-3.4c4.4,1,9.4,4.1,11.4,9C988.3,836.8,988.7,841.1,987,841.5z"/>
					</g>
					<g>
						<path class="st5" d="M1026.1,850.1c-2.9,0.7-3.6-4.1-13-6.1c-9.4-2.1-12.1,2-14.4,0.1c-1.3-1.1,0.8-4.9,2.4-6.3
							c3.9-3.7,9.7-4.4,14.1-3.4c4.4,1,9.4,4.1,11.4,9C1027.4,845.4,1027.8,849.7,1026.1,850.1z"/>
					</g>
				</g>
			</g>
		</g>
		<path class="st17" d="M1043.9,856.2c-6.6,30-42.2,50-72.3,37.4c-21-8.8-35.5-32-31.8-54.8c4.9-30.1,37.7-48.3,66.3-40.6
			c18.1,4.9,34.3,20.1,37.9,38.8C1045.4,843.7,1045.3,850.2,1043.9,856.2z"/>
	</g>
	<g>
		<path class="st4" d="M478,806.1c12.3,28.6-5.1,66-37.3,73.4c-22.4,5.1-48.1-5.3-58.4-26.3c-13.7-27.6,2.5-62,30.5-72.5
			c17.7-6.7,40.1-3.7,54.1,9.5C471.8,794.9,475.5,800.3,478,806.1z"/>
		<path class="st5" d="M443.1,859.9L443.1,859.9c-4.3,1.8-9.3-0.1-11.1-4.4l-1.8-4.1c-1.8-4.3,0.1-9.3,4.4-11.1l0,0
			c4.3-1.8,9.3,0.1,11.1,4.4l1.8,4.1C449.3,853,447.4,858,443.1,859.9z"/>
		<path class="st6" d="M442.8,848l-8.2,3.5c-1.1,0.5-2.4,0-2.8-1.1l0,0c-1.4-3.4,0.1-7.2,3.5-8.7l0,0c3.4-1.4,7.2,0.1,8.7,3.5l0,0
			C444.4,846.3,443.9,847.6,442.8,848z"/>
		<g>
			<g>
				<defs>
					<path id="SVGID_00000065043630918266946590000010807657141869075872_" d="M478,806.1c12.3,28.6-5.1,66-37.3,73.4
						c-22.4,5.1-48.1-5.3-58.4-26.3c-13.7-27.6,2.5-62,30.5-72.5c17.7-6.7,40.1-3.7,54.1,9.5C471.8,794.9,475.5,800.3,478,806.1z"/>
				</defs>
				<clipPath id="SVGID_00000106870211971768096480000003618326981809021615_">
					<use xlink:href="#SVGID_00000065043630918266946590000010807657141869075872_"  style="overflow:visible;"/>
				</clipPath>
				<g style="clip-path:url(#SVGID_00000106870211971768096480000003618326981809021615_);">
					
						<rect x="410.4" y="825.4" transform="matrix(0.9184 -0.3956 0.3956 0.9184 -304.8784 235.9089)" class="st8" width="18.4" height="63.5"/>
					
						<rect x="447.8" y="809.3" transform="matrix(0.9184 -0.3956 0.3956 0.9184 -295.4556 249.3907)" class="st8" width="18.4" height="63.5"/>
					<g>
						<path class="st5" d="M422.5,827.6c-1.9,2.3-5.4-1.2-14.3,2.6s-8.8,8.8-11.7,8.6c-1.7-0.1-2.2-4.5-1.8-6.6
							c1-5.3,5.4-9.3,9.6-11.2c4.2-1.8,10.1-2.2,14.7,0.7C420.8,822.9,423.7,826.2,422.5,827.6z"/>
					</g>
					<g>
						<path class="st5" d="M459.7,811.5c-1.9,2.3-5.4-1.2-14.3,2.6s-8.8,8.8-11.7,8.6c-1.7-0.1-2.2-4.5-1.8-6.6
							c1-5.3,5.4-9.3,9.6-11.2c4.2-1.8,10.1-2.2,14.7,0.7C458,806.9,460.8,810.2,459.7,811.5z"/>
					</g>
				</g>
			</g>
		</g>
		<path class="st19" d="M478,806.1c12.3,28.6-5.1,66-37.3,73.4c-22.4,5.1-48.1-5.3-58.4-26.3c-13.7-27.6,2.5-62,30.5-72.5
			c17.7-6.7,40.1-3.7,54.1,9.5C471.8,794.9,475.5,800.3,478,806.1z"/>
	</g>
	<g>
		<path class="st4" d="M1777.3,297.2c0.6,35.1-33.6,66.6-70.4,60.5c-25.6-4.3-47.8-26.1-49.7-52.4c-2.4-34.6,29.2-63.6,62.9-62.5
			c21.3,0.7,43.3,13.3,52.3,33.1C1775.6,282.9,1777.1,290.1,1777.3,297.2z"/>
		<path class="st5" d="M1717.8,338.3L1717.8,338.3c-5.3,0.1-9.6-4.1-9.7-9.4l-0.1-5c-0.1-5.3,4.1-9.6,9.4-9.7l0,0
			c5.3-0.1,9.6,4.1,9.7,9.4l0.1,5C1727.3,333.9,1723.1,338.2,1717.8,338.3z"/>
		<path class="st6" d="M1722.7,325.9l-10.1,0.2c-1.3,0-2.4-1-2.5-2.4l0,0c-0.1-4.1,3.2-7.5,7.3-7.6l0,0c4.1-0.1,7.5,3.2,7.6,7.3l0,0
			C1725.1,324.8,1724,325.9,1722.7,325.9z"/>
		<g>
			<g>
				<defs>
					<path id="SVGID_00000059295838942976418050000008560373409187549872_" d="M1777.3,297.2c0.6,35.1-33.6,66.6-70.4,60.5
						c-25.6-4.3-47.8-26.1-49.7-52.4c-2.4-34.6,29.2-63.6,62.9-62.5c21.3,0.7,43.3,13.3,52.3,33.1
						C1775.6,282.9,1777.1,290.1,1777.3,297.2z"/>
				</defs>
				<clipPath id="SVGID_00000070097375035074571330000000532680182585595778_">
					<use xlink:href="#SVGID_00000059295838942976418050000008560373409187549872_"  style="overflow:visible;"/>
				</clipPath>
				<g style="clip-path:url(#SVGID_00000070097375035074571330000000532680182585595778_);">
					
						<rect x="1684.3" y="289.7" transform="matrix(0.9999 -1.648385e-02 1.648385e-02 0.9999 -5.1354 27.9788)" class="st8" width="20.8" height="71.6"/>
					
						<rect x="1730.2" y="289" transform="matrix(0.9999 -1.648385e-02 1.648385e-02 0.9999 -5.1176 28.7353)" class="st8" width="20.8" height="71.6"/>
					<g>
						<path class="st5" d="M1710.3,295.8c-3,1.6-5.1-3.6-16-3.4s-12.9,5.4-15.9,3.9c-1.7-0.9-0.4-5.6,1-7.6
							c3.3-5.1,9.6-7.4,14.8-7.5c5.2-0.1,11.5,2.1,15,7C1710.5,290.3,1712,294.9,1710.3,295.8z"/>
					</g>
					<g>
						<path class="st5" d="M1755.9,295.1c-3,1.6-5.1-3.6-16-3.4s-12.9,5.4-15.9,3.9c-1.7-0.9-0.4-5.6,1-7.6
							c3.3-5.1,9.6-7.4,14.8-7.5c5.2-0.1,11.5,2.1,15,7C1756.1,289.5,1757.6,294.2,1755.9,295.1z"/>
					</g>
				</g>
			</g>
		</g>
		<path class="st21" d="M1777.3,297.2c0.6,35.1-33.6,66.6-70.4,60.5c-25.6-4.3-47.8-26.1-49.7-52.4c-2.4-34.6,29.2-63.6,62.9-62.5
			c21.3,0.7,43.3,13.3,52.3,33.1C1775.6,282.9,1777.1,290.1,1777.3,297.2z"/>
	</g>
	<g>
		<path class="st4" d="M100.3,653.3c2.9,27.6-21.9,54.8-51.3,52.6C28.5,704.3,9.5,688.6,6.2,668c-4.3-27.1,18.6-52.1,45.2-53.7
			c16.9-1,35.1,7.5,43.5,22.5C98,642.2,99.7,647.8,100.3,653.3z"/>
		<path class="st5" d="M56.3,689.9L56.3,689.9c-4.1,0.4-7.9-2.6-8.3-6.7l-0.4-3.9c-0.4-4.1,2.6-7.9,6.7-8.3l0,0
			c4.1-0.4,7.9,2.6,8.3,6.7l0.4,3.9C63.4,685.7,60.4,689.4,56.3,689.9z"/>
		<path class="st6" d="M59.2,679.7l-7.9,0.8c-1.1,0.1-2-0.7-2.1-1.7l0,0c-0.3-3.2,2-6.1,5.3-6.5l0,0c3.2-0.3,6.1,2,6.5,5.3l0,0
			C61,678.7,60.3,679.6,59.2,679.7z"/>
		<g>
			<g>
				<defs>
					<path id="SVGID_00000072985191040664723210000011892411348157187212_" d="M100.3,653.3c2.9,27.6-21.9,54.8-51.3,52.6
						C28.5,704.3,9.5,688.6,6.2,668c-4.3-27.1,18.6-52.1,45.2-53.7c16.9-1,35.1,7.5,43.5,22.5C98,642.2,99.7,647.8,100.3,653.3z"/>
				</defs>
				<clipPath id="SVGID_00000065055122638485660650000015174830987741747363_">
					<use xlink:href="#SVGID_00000072985191040664723210000011892411348157187212_"  style="overflow:visible;"/>
				</clipPath>
				<g style="clip-path:url(#SVGID_00000065055122638485660650000015174830987741747363_);">
					
						<rect x="28.8" y="653.1" transform="matrix(0.9946 -0.1041 0.1041 0.9946 -70.738 7.5552)" class="st8" width="16.4" height="56.7"/>
					
						<rect x="64.9" y="649.3" transform="matrix(0.9946 -0.1041 0.1041 0.9946 -70.1465 11.2924)" class="st8" width="16.4" height="56.7"/>
					<g>
						<path class="st5" d="M47.4,656.9c-2.3,1.5-4.3-2.5-12.9-1.6s-9.8,5.2-12.3,4.2c-1.4-0.6-0.7-4.4,0.2-6.1c2.3-4.2,7-6.5,11.1-7
							c4.1-0.4,9.2,0.8,12.3,4.5C47.1,652.5,48.7,656.1,47.4,656.9z"/>
					</g>
					<g>
						<path class="st5" d="M83.3,653.1c-2.3,1.5-4.3-2.5-12.9-1.6s-9.8,5.2-12.3,4.2c-1.4-0.6-0.7-4.4,0.2-6.1c2.3-4.2,7-6.5,11.1-7
							c4.1-0.4,9.2,0.8,12.3,4.5C83.1,648.7,84.6,652.3,83.3,653.1z"/>
					</g>
				</g>
			</g>
		</g>
		<path class="st23" d="M100.3,653.3c2.9,27.6-21.9,54.8-51.3,52.6C28.5,704.3,9.5,688.6,6.2,668c-4.3-27.1,18.6-52.1,45.2-53.7
			c16.9-1,35.1,7.5,43.5,22.5C98,642.2,99.7,647.8,100.3,653.3z"/>
	</g>
	<g>
		<path class="st4" d="M86.4,111.5c6.9,24.8-11.5,53.5-38.7,56c-18.9,1.7-38.8-9.7-45-28c-8.1-24.1,8.9-50.5,33-56.1
			C51,79.9,69,84.8,79,97.2C82.6,101.6,85,106.5,86.4,111.5z"/>
		<path class="st5" d="M51.9,151.7L51.9,151.7c-3.7,1-7.6-1.1-8.6-4.9l-1-3.5c-1-3.7,1.1-7.6,4.9-8.6l0,0c3.7-1,7.6,1.1,8.6,4.9
			l1,3.5C57.7,146.8,55.6,150.6,51.9,151.7z"/>
		<path class="st6" d="M53,142l-7.1,2c-0.9,0.3-1.9-0.3-2.2-1.2l0,0c-0.8-2.9,0.9-5.9,3.8-6.7l0,0c2.9-0.8,5.9,0.9,6.7,3.8l0,0
			C54.5,140.7,53.9,141.7,53,142z"/>
		<g>
			<g>
				<defs>
					<path id="SVGID_00000099639130834944745720000013431219967885516719_" d="M86.4,111.5c6.9,24.8-11.5,53.5-38.7,56
						c-18.9,1.7-38.8-9.7-45-28c-8.1-24.1,8.9-50.5,33-56.1C51,79.9,69,84.8,79,97.2C82.6,101.6,85,106.5,86.4,111.5z"/>
				</defs>
				<clipPath id="SVGID_00000111153129763963884610000004042603386567281039_">
					<use xlink:href="#SVGID_00000099639130834944745720000013431219967885516719_"  style="overflow:visible;"/>
				</clipPath>
				<g style="clip-path:url(#SVGID_00000111153129763963884610000004042603386567281039_);">
					
						<rect x="25.3" y="120.6" transform="matrix(0.9631 -0.269 0.269 0.9631 -38.2946 14.2604)" class="st8" width="15.2" height="52.5"/>
					
						<rect x="57.8" y="111.6" transform="matrix(0.9631 -0.269 0.269 0.9631 -34.6689 22.6733)" class="st8" width="15.2" height="52.5"/>
					<g>
						<path class="st5" d="M38.6,122.9c-1.8,1.7-4.3-1.6-12,0.6s-8.2,6.2-10.6,5.7c-1.4-0.3-1.3-3.9-0.7-5.6
							c1.4-4.2,5.4-7.1,9.1-8.1s8.6-0.7,12,2.2C37.7,118.9,39.7,122,38.6,122.9z"/>
					</g>
					<g>
						<path class="st5" d="M70.9,113.9c-1.8,1.7-4.3-1.6-12,0.6s-8.2,6.2-10.6,5.7c-1.4-0.3-1.3-3.9-0.7-5.6
							c1.4-4.2,5.4-7.1,9.1-8.1s8.6-0.7,12,2.2C70,109.9,71.9,113,70.9,113.9z"/>
					</g>
				</g>
			</g>
		</g>
		<path class="st25" d="M86.4,111.5c6.9,24.8-11.5,53.5-38.7,56c-18.9,1.7-38.8-9.7-45-28c-8.1-24.1,8.9-50.5,33-56.1
			C51,79.9,69,84.8,79,97.2C82.6,101.6,85,106.5,86.4,111.5z"/>
	</g>
	<g>
		<g>
			<circle class="st26" cx="1496.1" cy="718.1" r="165.4"/>
			<path d="M1496.1,888.1c-93.7,0-170-76.3-170-170s76.3-170,170-170s170,76.3,170,170S1589.9,888.1,1496.1,888.1z M1496.1,557.3
				c-88.7,0-160.8,72.1-160.8,160.8s72.1,160.8,160.8,160.8s160.8-72.1,160.8-160.8S1584.8,557.3,1496.1,557.3z"/>
		</g>
	</g>
</g>
</svg>
