<?xml version="1.0" encoding="utf-8"?>
<!-- Generator: Adobe Illustrator 28.0.0, SVG Export Plug-In . SVG Version: 6.00 Build 0)  -->
<svg version="1.1" id="Layer_1" xmlns="http://www.w3.org/2000/svg" xmlns:xlink="http://www.w3.org/1999/xlink" x="0px" y="0px"
	 viewBox="0 0 1179 2556" style="enable-background:new 0 0 1179 2556;" xml:space="preserve">
<style type="text/css">
	.st0{fill:#FFBA26;}
	.st1{fill:#894E04;}
	.st2{fill:#FFFFFF;}
	.st3{clip-path:url(#SVGID_00000084515904799742799510000004405406800678446772_);}
	.st4{fill:#30A7F0;}
	.st5{fill:none;stroke:#000000;stroke-width:1.3331;stroke-miterlimit:10;}
	.st6{clip-path:url(#SVGID_00000116198721488687898950000003676905715645630130_);}
	.st7{fill:none;stroke:#000000;stroke-width:2.027;stroke-miterlimit:10;}
	.st8{clip-path:url(#SVGID_00000178890352439365459140000001639889091118144185_);}
	.st9{fill:none;stroke:#000000;stroke-width:1.4829;stroke-miterlimit:10;}
	.st10{clip-path:url(#SVGID_00000181792408549145722800000002384496395006553015_);}
	.st11{fill:none;stroke:#000000;stroke-width:1.2488;stroke-miterlimit:10;}
	.st12{clip-path:url(#SVGID_00000100373751323519921120000008508761349206257556_);}
	.st13{fill:none;stroke:#000000;stroke-width:1.5322;stroke-miterlimit:10;}
	.st14{clip-path:url(#SVGID_00000133501068959256052000000013150691444266456222_);}
	.st15{fill:none;stroke:#000000;stroke-width:1.5499;stroke-miterlimit:10;}
	.st16{clip-path:url(#SVGID_00000118380396609910873730000001492571043154238882_);}
	.st17{fill:none;stroke:#000000;stroke-width:2.8616;stroke-miterlimit:10;}
	.st18{clip-path:url(#SVGID_00000111179968194771389820000003659712160874529727_);}
	.st19{fill:none;stroke:#000000;stroke-width:1.2819;stroke-miterlimit:10;}
	.st20{stroke:#000000;stroke-width:7.798;stroke-miterlimit:10;}
	.st21{fill:#660708;}
	.st22{fill:#bc4749;stroke:#000000;stroke-width:7.798;stroke-miterlimit:10;}
	.st23{stroke:#000000;stroke-width:10.9197;stroke-miterlimit:10;}
	.st24{fill:#bc4749;stroke:#000000;stroke-width:10.9197;stroke-miterlimit:10;}
	.st25{fill:#660708;}
	.st26{fill:#bc4749;stroke:#000000;stroke-width:10.8197;stroke-miterlimit:10;}
</style>
<g>
	<g>
		<path class="st0" d="M1086.9,2113.6c-4.5,26.4-34.5,45.3-61.2,35.5c-18.6-6.8-32.2-26.3-29.9-46.3c3-26.3,30.8-43.6,55.9-38.1
			c15.9,3.5,30.7,16.1,34.6,32.2C1087.7,2102.6,1087.8,2108.3,1086.9,2113.6z"/>
		<path class="st1" d="M1036.5,2136.1L1036.5,2136.1c-4-0.7-6.6-4.4-6-8.4l0.6-3.8c0.7-4,4.4-6.6,8.4-6l0,0c4,0.7,6.6,4.4,6,8.4
			l-0.6,3.8C1044.3,2134.1,1040.5,2136.8,1036.5,2136.1z"/>
		<path class="st2" d="M1041.9,2127.5l-7.6-1.3c-1-0.2-1.7-1.1-1.5-2.1l0,0c0.5-3.1,3.5-5.2,6.6-4.7l0,0c3.1,0.5,5.2,3.5,4.7,6.6
			l0,0C1043.9,2127,1042.9,2127.7,1041.9,2127.5z"/>
		<g>
			<g>
				<defs>
					<path id="SVGID_1_" d="M1086.9,2113.6c-4.5,26.4-34.5,45.3-61.2,35.5c-18.6-6.8-32.2-26.3-29.9-46.3
						c3-26.3,30.8-43.6,55.9-38.1c15.9,3.5,30.7,16.1,34.6,32.2C1087.7,2102.6,1087.8,2108.3,1086.9,2113.6z"/>
				</defs>
				<clipPath id="SVGID_00000145029346788394443530000010171077442123181227_">
					<use xlink:href="#SVGID_1_"  style="overflow:visible;"/>
				</clipPath>
				<g style="clip-path:url(#SVGID_00000145029346788394443530000010171077442123181227_);">
					
						<rect x="993.5" y="2115.3" transform="matrix(0.1671 -0.9859 0.9859 0.1671 -1243.1322 2774.8604)" class="st4" width="54.6" height="15.8"/>
					
						<rect x="1028" y="2121.2" transform="matrix(0.1671 -0.9859 0.9859 0.1671 -1220.2195 2813.7771)" class="st4" width="54.6" height="15.8"/>
					<g>
						<path class="st1" d="M1036.8,2103.2c-2.5,0.8-3.3-3.4-11.6-4.8c-8.2-1.4-10.5,2.2-12.5,0.7c-1.2-0.9,0.5-4.3,1.8-5.6
							c3.2-3.4,8.2-4.2,12.1-3.6c3.9,0.7,8.3,3.2,10.3,7.4C1037.8,2099,1038.2,2102.8,1036.8,2103.2z"/>
					</g>
					<g>
						<path class="st1" d="M1071.2,2109c-2.5,0.8-3.3-3.4-11.6-4.8c-8.3-1.4-10.5,2.2-12.5,0.7c-1.2-0.9,0.5-4.3,1.8-5.6
							c3.2-3.4,8.2-4.2,12.1-3.6c3.9,0.7,8.3,3.2,10.3,7.4C1072.1,2104.9,1072.6,2108.6,1071.2,2109z"/>
					</g>
				</g>
			</g>
		</g>
		<path class="st5" d="M1086.9,2113.6c-4.5,26.4-34.5,45.3-61.2,35.5c-18.6-6.8-32.2-26.3-29.9-46.3c3-26.3,30.8-43.6,55.9-38.1
			c15.9,3.5,30.7,16.1,34.6,32.2C1087.7,2102.6,1087.8,2108.3,1086.9,2113.6z"/>
	</g>
	<g>
		<path class="st0" d="M497,363.2c6.8,40.1,52.5,68.8,93.1,54c28.2-10.3,49-40,45.5-70.4c-4.6-40-46.8-66.3-85-57.9
			c-24.2,5.3-46.6,24.4-52.6,48.9C495.8,346.5,495.6,355.1,497,363.2z"/>
		<path class="st1" d="M573.5,397.4L573.5,397.4c6-1,10.1-6.7,9.1-12.8l-1-5.7c-1-6-6.7-10.1-12.8-9.1l0,0c-6,1-10.1,6.7-9.1,12.8
			l1,5.7C561.8,394.4,567.5,398.5,573.5,397.4z"/>
		<path class="st2" d="M565.4,384.3l11.5-2c1.5-0.3,2.6-1.7,2.3-3.2l0,0c-0.8-4.7-5.3-7.9-10-7.1l0,0c-4.7,0.8-7.9,5.3-7.1,10l0,0
			C562.4,383.5,563.8,384.6,565.4,384.3z"/>
		<g>
			<g>
				<defs>
					<path id="SVGID_00000163038375336739027770000007344474929104307381_" d="M497,363.2c6.8,40.1,52.5,68.8,93.1,54
						c28.2-10.3,49-40,45.5-70.4c-4.6-40-46.8-66.3-85-57.9c-24.2,5.3-46.6,24.4-52.6,48.9C495.8,346.5,495.6,355.1,497,363.2z"/>
				</defs>
				<clipPath id="SVGID_00000124844504304380359000000002725891243693364353_">
					<use xlink:href="#SVGID_00000163038375336739027770000007344474929104307381_"  style="overflow:visible;"/>
				</clipPath>
				<g style="clip-path:url(#SVGID_00000124844504304380359000000002725891243693364353_);">
					
						<rect x="585.3" y="336.4" transform="matrix(0.9859 -0.1671 0.1671 0.9859 -54.7617 105.1318)" class="st4" width="24.1" height="83.1"/>
					
						<rect x="532.8" y="345.3" transform="matrix(0.9859 -0.1671 0.1671 0.9859 -56.9844 96.4878)" class="st4" width="24.1" height="83.1"/>
					<g>
						<path class="st1" d="M573.1,347.4c3.8,1.2,5-5.2,17.6-7.3c12.5-2.1,15.9,3.4,19,1.1c1.8-1.4-0.8-6.5-2.7-8.5
							c-4.9-5.1-12.5-6.5-18.5-5.5c-5.9,1-12.7,4.8-15.6,11.2C571.7,341,570.9,346.7,573.1,347.4z"/>
					</g>
					<g>
						<path class="st1" d="M520.9,356.2c3.8,1.2,5-5.2,17.6-7.3c12.5-2.1,15.9,3.4,19,1.1c1.8-1.4-0.8-6.5-2.7-8.5
							c-4.9-5.1-12.5-6.5-18.5-5.5c-5.9,1-12.7,4.8-15.6,11.2C519.4,349.9,518.7,355.6,520.9,356.2z"/>
					</g>
				</g>
			</g>
		</g>
		<path class="st7" d="M497,363.2c6.8,40.1,52.5,68.8,93.1,54c28.2-10.3,49-40,45.5-70.4c-4.6-40-46.8-66.3-85-57.9
			c-24.2,5.3-46.6,24.4-52.6,48.9C495.8,346.5,495.6,355.1,497,363.2z"/>
	</g>
	<g>
		<path class="st0" d="M263.7,660.5c8.4,28.6-12.4,62.1-43.8,65.4c-21.9,2.3-45-10.5-52.5-31.6c-9.8-27.8,9.4-58.6,37.3-65.4
			c17.6-4.3,38.5,1.1,50.3,15.2C259.1,649.2,262,654.8,263.7,660.5z"/>
		<path class="st1" d="M224.4,707.7L224.4,707.7c-4.3,1.3-8.8-1.2-10-5.5l-1.2-4.1c-1.3-4.3,1.2-8.8,5.5-10l0,0
			c4.3-1.3,8.8,1.2,10,5.5l1.2,4.1C231.1,701.9,228.7,706.4,224.4,707.7z"/>
		<path class="st2" d="M225.5,696.4l-8.2,2.4c-1.1,0.3-2.2-0.3-2.6-1.4l0,0c-1-3.4,0.9-6.9,4.3-7.9l0,0c3.4-1,6.9,0.9,7.9,4.3l0,0
			C227.3,694.9,226.6,696.1,225.5,696.4z"/>
		<g>
			<g>
				<defs>
					<path id="SVGID_00000176029088076111386570000011064844061559151549_" d="M263.7,660.5c8.4,28.6-12.4,62.1-43.8,65.4
						c-21.9,2.3-45-10.5-52.5-31.6c-9.8-27.8,9.4-58.6,37.3-65.4c17.6-4.3,38.5,1.1,50.3,15.2C259.1,649.2,262,654.8,263.7,660.5z"
						/>
				</defs>
				<clipPath id="SVGID_00000128472149932170481870000015433478892322203305_">
					<use xlink:href="#SVGID_00000176029088076111386570000011064844061559151549_"  style="overflow:visible;"/>
				</clipPath>
				<g style="clip-path:url(#SVGID_00000128472149932170481870000015433478892322203305_);">
					
						<rect x="193.7" y="672.1" transform="matrix(0.9591 -0.2831 0.2831 0.9591 -190.6037 86.0791)" class="st4" width="17.6" height="60.8"/>
					
						<rect x="231.1" y="661.2" transform="matrix(0.9591 -0.2831 0.2831 0.9591 -185.9673 96.1922)" class="st4" width="17.6" height="60.8"/>
					<g>
						<path class="st1" d="M208.6,674.6c-2.1,2-5-1.8-13.9,0.9s-9.3,7.3-12.1,6.8c-1.6-0.3-1.6-4.5-1-6.5c1.6-4.9,6.2-8.3,10.4-9.5
							c4.2-1.2,9.9-0.9,13.9,2.4C207.5,670,209.8,673.5,208.6,674.6z"/>
					</g>
					<g>
						<path class="st1" d="M245.8,663.7c-2.1,2-5-1.8-13.9,0.9c-8.9,2.6-9.3,7.3-12.1,6.8c-1.6-0.3-1.6-4.5-1-6.5
							c1.6-4.9,6.2-8.3,10.4-9.5c4.2-1.2,9.9-0.9,13.9,2.4C244.7,659,247,662.5,245.8,663.7z"/>
					</g>
				</g>
			</g>
		</g>
		<path class="st9" d="M263.7,660.5c8.4,28.6-12.4,62.1-43.8,65.4c-21.9,2.3-45-10.5-52.5-31.6c-9.8-27.8,9.4-58.6,37.3-65.4
			c17.6-4.3,38.5,1.1,50.3,15.2C259.1,649.2,262,654.8,263.7,660.5z"/>
	</g>
	<g>
		<path class="st0" d="M378.7,2146.6c8.6,23.5-7,52.9-33.3,57.4c-18.3,3.1-38.4-6.4-45.9-23.7c-9.8-22.8,4.7-49.8,27.7-57
			c14.5-4.6,32.4-1.2,43.1,10C374.3,2137.4,377,2141.9,378.7,2146.6z"/>
		<path class="st1" d="M348.3,2188.4L348.3,2188.4c-3.5,1.3-7.4-0.5-8.7-4l-1.2-3.4c-1.3-3.5,0.5-7.4,4-8.7l0,0
			c3.5-1.3,7.4,0.5,8.7,4l1.2,3.4C353.6,2183.2,351.8,2187.1,348.3,2188.4z"/>
		<path class="st2" d="M348.6,2178.9l-6.8,2.5c-0.9,0.3-1.9-0.1-2.2-1l0,0c-1-2.8,0.4-5.8,3.2-6.8l0,0c2.8-1,5.8,0.4,6.8,3.2l0,0
			C350,2177.5,349.5,2178.5,348.6,2178.9z"/>
		<g>
			<g>
				<defs>
					<path id="SVGID_00000068670865761736716630000000760780907731714695_" d="M378.7,2146.6c8.6,23.5-7,52.9-33.3,57.4
						c-18.3,3.1-38.4-6.4-45.9-23.7c-9.8-22.8,4.7-49.8,27.7-57c14.5-4.6,32.4-1.2,43.1,10C374.3,2137.4,377,2141.9,378.7,2146.6z"
						/>
				</defs>
				<clipPath id="SVGID_00000137115435479008772240000013489785729917915058_">
					<use xlink:href="#SVGID_00000068670865761736716630000000760780907731714695_"  style="overflow:visible;"/>
				</clipPath>
				<g style="clip-path:url(#SVGID_00000137115435479008772240000013489785729917915058_);">
					
						<rect x="322.2" y="2159.6" transform="matrix(0.9388 -0.3446 0.3446 0.9388 -732.7858 247.3945)" class="st4" width="14.8" height="51.2"/>
					
						<rect x="353" y="2148.3" transform="matrix(0.9388 -0.3446 0.3446 0.9388 -727.0038 257.3157)" class="st4" width="14.8" height="51.2"/>
					<g>
						<path class="st1" d="M333.2,2161.5c-1.7,1.8-4.3-1.2-11.6,1.5c-7.3,2.7-7.5,6.7-9.8,6.4c-1.4-0.2-1.6-3.7-1.2-5.4
							c1.1-4.2,4.7-7.3,8.2-8.6s8.3-1.3,11.8,1.2C332,2157.7,334.1,2160.5,333.2,2161.5z"/>
					</g>
					<g>
						<path class="st1" d="M363.8,2150.2c-1.7,1.8-4.3-1.2-11.6,1.5c-7.3,2.7-7.5,6.7-9.8,6.4c-1.4-0.2-1.6-3.7-1.2-5.4
							c1.1-4.2,4.7-7.3,8.2-8.6c3.5-1.3,8.3-1.3,11.8,1.2C362.6,2146.4,364.8,2149.2,363.8,2150.2z"/>
					</g>
				</g>
			</g>
		</g>
		<path class="st11" d="M378.7,2146.6c8.6,23.5-7,52.9-33.3,57.4c-18.3,3.1-38.4-6.4-45.9-23.7c-9.8-22.8,4.7-49.8,27.7-57
			c14.5-4.6,32.4-1.2,43.1,10C374.3,2137.4,377,2141.9,378.7,2146.6z"/>
	</g>
	<g>
		<path class="st0" d="M1069.9,586.9c-6.6,30-42.2,50-72.3,37.4c-21-8.8-35.5-32-31.8-54.8c4.9-30.1,37.7-48.3,66.3-40.6
			c18.1,4.9,34.3,20.1,37.9,38.8C1071.4,574.4,1071.3,580.9,1069.9,586.9z"/>
		<path class="st1" d="M1012.7,610.4l-3.6-0.8c-3.5-0.8-5.8-4.3-5-7.8l1.7-7.9c0.8-3.5,4.3-5.8,7.8-5l3.6,0.8c3.5,0.8,5.8,4.3,5,7.8
			l-1.7,7.9C1019.7,608.9,1016.2,611.2,1012.7,610.4z"/>
		<path class="st2" d="M1018,600.5l-9.5-2.1c-0.9-0.2-1.5-1.1-1.3-2l0.4-1.8c0.6-2.8,3.3-4.5,6.1-3.9l2.8,0.6
			c2.8,0.6,4.5,3.3,3.9,6.1l-0.4,1.8C1019.8,600.1,1018.9,600.7,1018,600.5z"/>
		<g>
			<g>
				<defs>
					<path id="SVGID_00000039825902871950462480000016398406197896626085_" d="M1069.9,586.9c-6.6,30-42.2,50-72.3,37.4
						c-21-8.8-35.5-32-31.8-54.8c4.9-30.1,37.7-48.3,66.3-40.6c18.1,4.9,34.3,20.1,37.9,38.8
						C1071.4,574.4,1071.3,580.9,1069.9,586.9z"/>
				</defs>
				<clipPath id="SVGID_00000098940816321848606800000015488056486696246156_">
					<use xlink:href="#SVGID_00000039825902871950462480000016398406197896626085_"  style="overflow:visible;"/>
				</clipPath>
				<g style="clip-path:url(#SVGID_00000098940816321848606800000015488056486696246156_);">
					
						<rect x="962.1" y="585.3" transform="matrix(0.2145 -0.9767 0.9767 0.2145 199.8494 1437.3274)" class="st4" width="62.8" height="18.2"/>
					
						<rect x="1001.5" y="593.9" transform="matrix(0.2145 -0.9767 0.9767 0.2145 222.3228 1482.4736)" class="st4" width="62.8" height="18.2"/>
					<g>
						<path class="st1" d="M1013,572.2c-2.9,0.7-3.6-4.1-13-6.1c-9.4-2.1-12.1,2-14.4,0.1c-1.3-1.1,0.8-4.9,2.4-6.3
							c3.9-3.7,9.7-4.4,14.1-3.4c4.4,1,9.4,4.1,11.4,9C1014.3,567.5,1014.7,571.8,1013,572.2z"/>
					</g>
					<g>
						<path class="st1" d="M1052.1,580.8c-2.9,0.7-3.6-4.1-13-6.1c-9.4-2.1-12.1,2-14.4,0.1c-1.3-1.1,0.8-4.9,2.4-6.3
							c3.9-3.7,9.7-4.4,14.1-3.4c4.4,1,9.4,4.1,11.4,9C1053.4,576.1,1053.8,580.4,1052.1,580.8z"/>
					</g>
				</g>
			</g>
		</g>
		<path class="st13" d="M1069.9,586.9c-6.6,30-42.2,50-72.3,37.4c-21-8.8-35.5-32-31.8-54.8c4.9-30.1,37.7-48.3,66.3-40.6
			c18.1,4.9,34.3,20.1,37.9,38.8C1071.4,574.4,1071.3,580.9,1069.9,586.9z"/>
	</g>
	<g>
		<path class="st0" d="M218.8,1680.5c12.3,28.6-5.1,66-37.3,73.4c-22.4,5.1-48.1-5.3-58.4-26.3c-13.7-27.6,2.5-62,30.5-72.5
			c17.7-6.7,40.1-3.7,54.1,9.5C212.6,1669.3,216.3,1674.7,218.8,1680.5z"/>
		<path class="st1" d="M183.9,1734.3L183.9,1734.3c-4.3,1.8-9.3-0.1-11.1-4.4l-1.8-4.1c-1.8-4.3,0.1-9.3,4.4-11.1l0,0
			c4.3-1.8,9.3,0.1,11.1,4.4l1.8,4.1C190.1,1727.4,188.2,1732.4,183.9,1734.3z"/>
		<path class="st2" d="M183.6,1722.4l-8.2,3.5c-1.1,0.5-2.4,0-2.8-1.1l0,0c-1.4-3.4,0.1-7.2,3.5-8.7l0,0c3.4-1.4,7.2,0.1,8.7,3.5
			l0,0C185.2,1720.7,184.7,1722,183.6,1722.4z"/>
		<g>
			<g>
				<defs>
					<path id="SVGID_00000022525749221958034490000012725175684987147411_" d="M218.8,1680.5c12.3,28.6-5.1,66-37.3,73.4
						c-22.4,5.1-48.1-5.3-58.4-26.3c-13.7-27.6,2.5-62,30.5-72.5c17.7-6.7,40.1-3.7,54.1,9.5
						C212.6,1669.3,216.3,1674.7,218.8,1680.5z"/>
				</defs>
				<clipPath id="SVGID_00000014618243427961613110000007367574173820342463_">
					<use xlink:href="#SVGID_00000022525749221958034490000012725175684987147411_"  style="overflow:visible;"/>
				</clipPath>
				<g style="clip-path:url(#SVGID_00000014618243427961613110000007367574173820342463_);">
					
						<rect x="151.1" y="1699.8" transform="matrix(0.9184 -0.3956 0.3956 0.9184 -671.9551 204.6922)" class="st4" width="18.4" height="63.5"/>
					
						<rect x="188.5" y="1683.7" transform="matrix(0.9184 -0.3956 0.3956 0.9184 -662.5324 218.174)" class="st4" width="18.4" height="63.5"/>
					<g>
						<path class="st1" d="M163.3,1702c-1.9,2.3-5.4-1.2-14.3,2.6c-8.9,3.8-8.8,8.8-11.7,8.6c-1.7-0.1-2.2-4.5-1.8-6.6
							c1-5.3,5.4-9.3,9.6-11.2c4.2-1.8,10.1-2.2,14.7,0.7C161.6,1697.3,164.5,1700.6,163.3,1702z"/>
					</g>
					<g>
						<path class="st1" d="M200.5,1685.9c-1.9,2.3-5.4-1.2-14.3,2.6c-8.9,3.8-8.8,8.8-11.7,8.6c-1.7-0.1-2.2-4.5-1.8-6.6
							c1-5.3,5.4-9.3,9.6-11.2c4.2-1.8,10.1-2.2,14.7,0.7C198.8,1681.3,201.6,1684.6,200.5,1685.9z"/>
					</g>
				</g>
			</g>
		</g>
		<path class="st15" d="M218.8,1680.5c12.3,28.6-5.1,66-37.3,73.4c-22.4,5.1-48.1-5.3-58.4-26.3c-13.7-27.6,2.5-62,30.5-72.5
			c17.7-6.7,40.1-3.7,54.1,9.5C212.6,1669.3,216.3,1674.7,218.8,1680.5z"/>
	</g>
	<g>
		<path class="st0" d="M751.9,2195.8c6,57.1-45.3,113.4-106.2,108.9c-42.4-3.3-81.7-35.8-88.6-78.4c-8.9-56.1,38.5-107.8,93.5-111.1
			c35-2.1,72.6,15.5,90,46.6C747.2,2172.8,750.7,2184.4,751.9,2195.8z"/>
		<path class="st1" d="M660.9,2271.5L660.9,2271.5c-8.5,0.8-16.3-5.4-17.2-13.9l-0.8-8.1c-0.8-8.5,5.4-16.3,13.9-17.2l0,0
			c8.5-0.8,16.3,5.4,17.2,13.9l0.8,8.1C675.6,2262.8,669.4,2270.5,660.9,2271.5z"/>
		<path class="st2" d="M666.9,2250.4l-16.3,1.7c-2.3,0.2-4.1-1.4-4.3-3.5l0,0c-0.6-6.6,4.1-12.6,11-13.5l0,0
			c6.6-0.6,12.6,4.1,13.5,11l0,0C670.6,2248.3,669.2,2250.2,666.9,2250.4z"/>
		<g>
			<g>
				<defs>
					<path id="SVGID_00000162342378422174972350000003891151217442216084_" d="M751.9,2195.8c6,57.1-45.3,113.4-106.2,108.9
						c-42.4-3.3-81.7-35.8-88.6-78.4c-8.9-56.1,38.5-107.8,93.5-111.1c35-2.1,72.6,15.5,90,46.6
						C747.2,2172.8,750.7,2184.4,751.9,2195.8z"/>
				</defs>
				<clipPath id="SVGID_00000177470991898020284550000015967843811910759096_">
					<use xlink:href="#SVGID_00000162342378422174972350000003891151217442216084_"  style="overflow:visible;"/>
				</clipPath>
				<g style="clip-path:url(#SVGID_00000177470991898020284550000015967843811910759096_);">
					
						<rect x="604" y="2195.4" transform="matrix(0.9946 -0.1041 0.1041 0.9946 -231.2673 76.8858)" class="st4" width="33.9" height="117.3"/>
					
						<rect x="678.7" y="2187.5" transform="matrix(0.9946 -0.1041 0.1041 0.9946 -230.0432 84.6195)" class="st4" width="33.9" height="117.3"/>
					<g>
						<path class="st1" d="M642.5,2203.2c-4.8,3.1-8.9-5.2-26.7-3.3c-17.8,1.9-20.3,10.8-25.5,8.7c-2.9-1.2-1.4-9.1,0.4-12.6
							c4.8-8.7,14.5-13.5,23-14.5c8.5-0.8,19,1.7,25.5,9.3C641.8,2194.1,645.1,2201.6,642.5,2203.2z"/>
					</g>
					<g>
						<path class="st1" d="M716.7,2195.4c-4.8,3.1-8.9-5.2-26.7-3.3c-17.8,1.9-20.3,10.8-25.5,8.7c-2.9-1.2-1.4-9.1,0.4-12.6
							c4.8-8.7,14.5-13.5,23-14.5c8.5-0.8,19,1.7,25.5,9.3C716.3,2186.2,719.4,2193.7,716.7,2195.4z"/>
					</g>
				</g>
			</g>
		</g>
		<path class="st17" d="M751.9,2195.8c6,57.1-45.3,113.4-106.2,108.9c-42.4-3.3-81.7-35.8-88.6-78.4
			c-8.9-56.1,38.5-107.8,93.5-111.1c35-2.1,72.6,15.5,90,46.6C747.2,2172.8,750.7,2184.4,751.9,2195.8z"/>
	</g>
	<g>
		<path class="st0" d="M199.8,284.9c6.9,24.8-11.5,53.5-38.7,56c-18.9,1.7-38.8-9.7-45-28c-8.1-24.1,8.9-50.5,33-56.1
			c15.3-3.5,33.3,1.4,43.3,13.8C196,275,198.4,279.9,199.8,284.9z"/>
		<path class="st1" d="M165.3,325.1L165.3,325.1c-3.7,1-7.6-1.1-8.6-4.9l-1-3.5c-1-3.7,1.1-7.6,4.9-8.6l0,0c3.7-1,7.6,1.1,8.6,4.9
			l1,3.5C171.1,320.2,169,324,165.3,325.1z"/>
		<path class="st2" d="M166.4,315.4l-7.1,2c-0.9,0.3-1.9-0.3-2.2-1.2l0,0c-0.8-2.9,0.9-5.9,3.8-6.7l0,0c2.9-0.8,5.9,0.9,6.7,3.8l0,0
			C167.9,314.1,167.3,315.1,166.4,315.4z"/>
		<g>
			<g>
				<defs>
					<path id="SVGID_00000064314664210287724920000011996956646499149487_" d="M199.8,284.9c6.9,24.8-11.5,53.5-38.7,56
						c-18.9,1.7-38.8-9.7-45-28c-8.1-24.1,8.9-50.5,33-56.1c15.3-3.5,33.3,1.4,43.3,13.8C196,275,198.4,279.9,199.8,284.9z"/>
				</defs>
				<clipPath id="SVGID_00000080886464450645670640000006168478875025067400_">
					<use xlink:href="#SVGID_00000064314664210287724920000011996956646499149487_"  style="overflow:visible;"/>
				</clipPath>
				<g style="clip-path:url(#SVGID_00000080886464450645670640000006168478875025067400_);">
					
						<rect x="138.7" y="294" transform="matrix(0.9631 -0.269 0.269 0.9631 -80.7595 51.1601)" class="st4" width="15.2" height="52.5"/>
					
						<rect x="171.2" y="285" transform="matrix(0.9631 -0.269 0.269 0.9631 -77.1339 59.573)" class="st4" width="15.2" height="52.5"/>
					<g>
						<path class="st1" d="M152,296.3c-1.8,1.7-4.3-1.6-12,0.6c-7.7,2.2-8.2,6.2-10.6,5.7c-1.4-0.3-1.3-3.9-0.7-5.6
							c1.4-4.2,5.4-7.1,9.1-8.1s8.6-0.7,12,2.2C151.1,292.3,153.1,295.4,152,296.3z"/>
					</g>
					<g>
						<path class="st1" d="M184.3,287.3c-1.8,1.7-4.3-1.6-12,0.6c-7.7,2.2-8.2,6.2-10.6,5.7c-1.4-0.3-1.3-3.9-0.7-5.6
							c1.4-4.2,5.4-7.1,9.1-8.1s8.6-0.7,12,2.2C183.4,283.3,185.3,286.4,184.3,287.3z"/>
					</g>
				</g>
			</g>
		</g>
		<path class="st19" d="M199.8,284.9c6.9,24.8-11.5,53.5-38.7,56c-18.9,1.7-38.8-9.7-45-28c-8.1-24.1,8.9-50.5,33-56.1
			c15.3-3.5,33.3,1.4,43.3,13.8C196,275,198.4,279.9,199.8,284.9z"/>
	</g>
	<g>
		<g>
			<g>
				<g>
					<path class="st20" d="M439.5,1657.7c-15.1,0-30.1,0-45.1-0.1c-35-0.2-100.1-0.4-154.8-15.8c-90.2-25.5-109.1-79.5-109.1-120.3
						c0-14.2-1.3-30-2.7-46.8c-3.6-42.8-7.6-473.1,9.8-512.5c23.4-53.5,83.7-87,132.3-100.6c48.9-13.7,98-12.6,145.5-11.5
						c22.8,0.5,37.2-2.5,93.5-2.3c22.7,0.1,46.3,0.2,69.4,0.1c117-0.6,66.2,1.2,181.3,1.2h20.7c92.6,0,197.5,0.1,258.3,100.4
						c18.1,29.7,26.5,449.9,24.3,492.8c-1.8,35.7-10.9,74.1-25.7,107.9c-21.7,49.8-58,81-110.7,95.4l0,0
						c-43.4,11.9-91,9.7-137.1,8.4c-14.2-0.4-79.7-0.3-181.4,1.1C505.6,1656.3,544.5,1657.7,439.5,1657.7z M375.2,897.8
						c-31.8,0-62.5,1.9-92.4,10.3c-57.9,16.2-90.5,49.7-101,73.5c-12.3,28.2-9,450.3-5.9,489.1c1.4,17.8,2.9,34.6,2.9,50.7
						c0,77.1,115.3,87.4,215.7,87.8c119.3,0.5,95.9-1.1,212.7-2.6c101.9-1.4,37.5-1.9,141.5-1.9c13.8,0,28.2,1.3,42,1.6
						c42.5,1.2,86.6,2.4,123-7.6c38.2-10.4,63.3-32.1,79-68.1c23-52.6,33.3-508.7,4.4-556.3c-46.8-77.1-125.7-77.1-217-77.1h-20.7
						c-115,0-64.2-1.8-181-1.2c-23.3,0.1-46.9,0-69.8-0.1c-55.8-0.2-71.8,2.9-94.5,2.3C400.9,898.1,388,897.8,375.2,897.8z"/>
				</g>
				<g>
					<path d="M375.2,863.8c-31.8,0-62.5,1.9-92.4,10.3c-57.9,16.2-90.5,49.7-101,73.5c-12.3,28.2-9,450.3-5.9,489.1
						c1.4,17.8,2.9,34.6,2.9,50.7c0,77.1,115.3,87.4,215.7,87.8c119.3,0.5,95.9-1.1,212.7-2.6c101.9-1.4,37.5-1.9,141.5-1.9
						c13.8,0,28.2,1.3,42,1.6c42.5,1.2,86.6,2.4,123-7.6c38.2-10.4,63.3-32.1,79-68.1c23-52.6,33.3-508.7,4.4-556.3
						c-46.8-77.1-125.7-77.1-217-77.1h-20.7c-115,0-64.2-1.8-181-1.2c-23.3,0.1-46.9,0-69.8-0.1c-55.8-0.2-71.8,2.9-94.5,2.3
						C400.9,864.1,388,863.8,375.2,863.8z"/>
				</g>
				<g>
					<path class="st21" d="M375.2,885.6c-31.8,0-62.5,1.9-92.4,10.3c-57.9,16.2-90.5,49.7-101,73.5c-12.3,28.2-9,450.3-5.9,489.1
						c1.4,17.8,2.9,34.6,2.9,50.7c0,77.1,115.3,87.4,215.7,87.8c119.3,0.5,250.2-4.5,354.1-4.5c13.8,0,28.2,1.3,42,1.6
						c42.5,1.2,86.6,2.4,123-7.6c38.2-10.4,63.3-32.1,79-68.1c23-52.6,33.3-508.7,4.4-556.3c-46.8-77.1-125.7-77.1-217-77.1
						C780.1,885.3,388,885.6,375.2,885.6z"/>
				</g>
				<g>
					<path class="st22" d="M439.5,1623.7c-15.1,0-30.1,0-45.1-0.1c-35-0.2-100.1-0.4-154.8-15.8c-90.2-25.5-109.1-79.5-109.1-120.3
						c0-14.2-1.3-30-2.7-46.8c-3.6-42.8-4.7-441.5,9.8-512.5s83.7-87,132.3-100.6c48.9-13.7,98-12.6,145.5-11.5
						c22.8,0.5,364.9-1,364.9-1c92.6,0,197.5,0.1,258.3,100.4c18.1,29.7,26.5,68.1,24.3,110.9c-1.2,23.6,7.5,290,0.3,391.8
						c-3.6,52.2-10.8,93.5-15.8,105c-21.7,49.8-68.3,74-121,88.4l0,0c-43.4,11.9-91,9.7-137.1,8.4c-14.2-0.4-79.7-0.3-181.4,1.1
						C505.6,1622.3,544.5,1623.7,439.5,1623.7z M375.2,863.8c-31.8,0-62.5,1.9-92.4,10.3c-57.9,16.2-92.2,27.6-101,73.5
						s-9,450.3-5.9,489.1c1.4,17.8,2.9,34.6,2.9,50.7c0,77.1,115.3,87.4,215.7,87.8c119.3,0.5,95.9-1.1,212.7-2.6
						c101.9-1.4,169.6-0.6,183.5-0.3c42.5,1.2,86.6,2.4,123-7.6c38.2-10.4,63.3-32.1,79-68.1c23-52.6,33.3-508.7,4.4-556.3
						c-46.8-77.1-125.7-77.1-217-77.1C780.1,863.5,388,863.8,375.2,863.8z"/>
				</g>
				<g>
					<g>
						<path class="st23" d="M356.2,1195.7l-39.8-30.7l46.6-82l-70.2-96.4l50.5-35.4l48.1,82l46.9-82.6l55.7,35.2L356.2,1195.7z"/>
						<path class="st23" d="M669.2,1000.4c19,18.4,28.6,40.6,28.6,66.5c0,26-9.5,48.2-28.6,66.7c-19,18.4-42.1,27.7-69,27.7
							s-50-9.3-69-27.7c-19-18.4-28.6-40.6-28.6-66.7c0-25.9,9.5-48.1,28.6-66.5c19-18.4,42.1-27.7,69-27.7
							C627.1,972.8,650.2,981.9,669.2,1000.4z M616.7,1007.2c-13,0-23.9,4.4-33,13.3s-13.7,19.6-13.7,32.2s4.5,23.3,13.7,32.1
							s20.1,13.3,33,13.3c13,0,24.6-3.7,33-13.3c10.3-11.6,17-34.1,5.2-55.9C643.3,1007.2,620.1,1007.2,616.7,1007.2z"/>
						<path class="st23" d="M721.3,975.8l56-6.3v120.3c-0.6,15.9,9.6,24.1,30.5,24.6c21.5,1.1,32.4-13.1,32.9-42.2l-1.4-113.4
							l55.7,13.8l-1.5,108.9c0,61.2-29.8,89.8-89.6,85.8c-52.5,0-79.9-25.3-82-75.8L721.3,975.8z"/>
					</g>
					<g>
						<path class="st24" d="M356.2,1172l-39.8-30.7l46.6-82L292.7,963l50.5-35.4l48.1,82l46.9-82.6l55.7,35.2L356.2,1172z"/>
						<path class="st24" d="M669.2,976.7c19,18.4,28.6,40.6,28.6,66.5c0,26-9.5,48.2-28.6,66.7c-19,18.4-42.1,27.7-69,27.7
							s-50-9.3-69-27.7c-19-18.4-28.6-40.6-28.6-66.7c0-25.9,9.5-48.1,28.6-66.5c19-18.4,42.1-27.7,69-27.7
							C627.1,949.1,650.2,958.3,669.2,976.7z M616.7,983.6c-13,0-23.9,4.4-33,13.3s-13.7,19.6-13.7,32.2c0,12.6,4.5,23.3,13.7,32.1
							s20.1,13.3,33,13.3c13,0,24.6-3.7,33-13.3c10.3-11.6,17-34.1,5.2-55.9C643.3,983.6,620.1,983.6,616.7,983.6z"/>
						<path class="st24" d="M721.3,952.2l56-6.3v120.3c-0.6,15.9,9.6,24.1,30.5,24.6c21.5,1.1,32.4-13.1,32.9-42.2l-1.4-113.4
							L895,949l-1.5,108.9c0,61.2-29.8,89.8-89.6,85.8c-52.5,0-79.9-25.3-82-75.8L721.3,952.2z"/>
					</g>
				</g>
			</g>
		</g>
		<g>
			<g>
				<circle class="st25" cx="921.4" cy="1712.3" r="190.4"/>
				<path d="M921.4,1907.9c-107.8,0-195.7-87.8-195.7-195.7s87.8-195.7,195.7-195.7s195.7,87.8,195.7,195.7
					S1029.3,1907.9,921.4,1907.9z M921.4,1527.2c-102.1,0-185.1,83-185.1,185.1s83,185.1,185.1,185.1s185.1-83,185.1-185.1
					S1023.5,1527.2,921.4,1527.2z"/>
			</g>
		</g>
		<g>
			<path class="st23" d="M579.3,1298.6c17.4,16.8,26.1,37.1,26.1,60.8c0,23.8-8.7,44-26.1,60.9c-17.4,16.8-38.4,25.2-63,25.2
				c-24.6,0-45.7-8.4-63-25.2c-17.4-16.8-26.1-37.1-26.1-60.9c0-23.7,8.7-43.9,26.1-60.8c17.4-16.8,38.4-25.2,63-25.2
				C540.9,1273.4,561.9,1281.7,579.3,1298.6z M531.4,1304.9c-11.8,0-21.8,4-30.1,12.1c-8.4,8.1-12.5,17.9-12.5,29.3
				c0,11.4,4.1,21.2,12.5,29.3c8.4,8.1,18.4,12.1,30.1,12.1c11.8,0,22.5-3.4,30.1-12.1c9.4-10.7,15.5-31.1,4.8-51
				C555.6,1304.9,534.5,1304.9,531.4,1304.9z"/>
			<path class="st23" d="M286.7,1248.2l51.7,6.2L328,1405.5l89.5-9.1l4.1,63.7l-143.3,5.5L286.7,1248.2z"/>
			<path class="st23" d="M601.7,1442.9l27.6-37.1c30.4,19.4,53.1,21.5,68.2,6.4c13.4-14.2,6.8-30.1-19.5-47.9
				c-24.1-11.5-43.3-25.1-57.8-40.6c-15.1-12.4-16.2-31.9-3.5-58.8c15.7-19.4,41-25.3,75.9-17.8c25.9,5.2,45.7,16.2,59.2,33.3
				l-21,30.6c-33.2-22.6-56.5-30.3-69.7-23.1c-5.9,12,12.1,28.8,53.8,50.6c42.9,26.3,46.6,63.8,11.3,112.9
				C700.1,1483.1,658.7,1480.3,601.7,1442.9z"/>
			<path class="st23" d="M764.4,1306.8v-49.7l179-12.6l-1.4,53.9l-69.1,5.5l12.6,151.1l-63,8.2l3.5-158.7L764.4,1306.8z"/>
		</g>
		<g>
			<path class="st26" d="M579.3,1278.6c17.4,16.8,26.1,37.1,26.1,60.8c0,23.8-8.7,44-26.1,60.9c-17.4,16.8-38.4,25.2-63,25.2
				c-24.6,0-45.7-8.4-63-25.2c-17.4-16.8-26.1-37.1-26.1-60.9c0-23.7,8.7-43.9,26.1-60.8c17.4-16.8,38.4-25.2,63-25.2
				C540.9,1253.4,561.9,1261.7,579.3,1278.6z M531.4,1284.9c-11.8,0-21.8,4-30.1,12.1c-8.4,8.1-12.5,17.9-12.5,29.3
				c0,11.4,4.1,21.2,12.5,29.3c8.4,8.1,18.4,12.1,30.1,12.1c11.8,0,22.5-3.4,30.1-12.1c9.4-10.7,15.5-31.1,4.8-51
				C555.6,1284.9,534.5,1284.9,531.4,1284.9z"/>
			<path class="st26" d="M286.7,1228.2l51.7,6.2L328,1385.5l89.5-9.1l4.1,63.7l-143.3,5.5L286.7,1228.2z"/>
			<path class="st26" d="M601.7,1422.9l27.6-37.1c30.4,19.4,53.1,21.5,68.2,6.4c13.4-14.2,6.8-30.1-19.5-47.9
				c-24.1-11.5-43.3-25.1-57.8-40.6c-15.1-12.4-16.2-31.9-3.5-58.8c15.7-19.4,41-25.3,75.9-17.8c25.9,5.2,45.7,16.2,59.2,33.3
				l-21,30.6c-33.2-22.6-56.5-30.3-69.7-23.1c-5.9,12,12.1,28.8,53.8,50.6c42.9,26.3,46.6,63.8,11.3,112.9
				C700.1,1463.1,658.7,1460.3,601.7,1422.9z"/>
			<path class="st26" d="M764.4,1286.8v-49.7l179-12.6l-1.4,53.9l-69.1,5.5l12.6,151.1l-63,8.2l3.5-158.7L764.4,1286.8z"/>
		</g>
	</g>
</g>
</svg>
